<?xml version="1.0" encoding="UTF-8"?>
<svg width="17px" height="18px" viewBox="0 0 17 18" version="1.1" xmlns="http://www.w3.org/2000/svg" xmlns:xlink="http://www.w3.org/1999/xlink">
    <!-- Generator: sketchtool 60.1 (101010) - https://sketch.com -->
    <title>787FCFAB-C9D5-4641-95BE-7FAC02A9EC75</title>
    <desc>Created with sketchtool.</desc>
    <g id="End-User" stroke="none" stroke-width="1" fill="none" fill-rule="evenodd" opacity="0.5">
        <g id="6.welcome_27Nov" transform="translate(-374.000000, -356.000000)" fill="#FFFFFF" fill-rule="nonzero">
            <g id="Group" transform="translate(253.000000, 80.000000)">
                <g id="Add-da" transform="translate(73.000000, 265.500000)">
                    <g id="ic-data" transform="translate(39.000000, 1.000000)">
                        <path d="M25.4491342,20.9747024 L25.4491342,24.298566 C25.4491342,25.777868 21.9243777,26.9649621 17.5595238,26.9649621 C13.1946699,26.9649621 9.66991342,25.777868 9.66991342,24.298566 L9.66991342,24.298566 L9.66991342,20.9747024 C11.5510011,22.1617965 14.7104978,22.6366342 17.5595238,22.6366342 C20.4085498,22.6366342 23.5680465,22.1617965 25.4491342,20.9747024 L25.4491342,20.9747024 Z M25.4491342,14.9479167 L25.4491342,18.2717803 C25.4491342,19.7510823 21.9243777,20.9381764 17.5595238,20.9381764 C13.1946699,20.9381764 9.66991342,19.7510823 9.66991342,18.2900433 L9.66991342,18.2900433 L9.66991342,14.9479167 C11.5510011,16.1532738 14.7104978,16.6281115 17.5595238,16.6281115 C20.4085498,16.6281115 23.5680465,16.1532738 25.4491342,14.9479167 L25.4491342,14.9479167 Z M17.5595238,9.61512446 C21.9168353,9.61512446 25.4491342,10.8089107 25.4491342,12.2815206 C25.4491342,13.7541305 21.9168353,14.9479167 17.5595238,14.9479167 C13.2022123,14.9479167 9.66991342,13.7541305 9.66991342,12.2815206 C9.66991342,10.8089107 13.2022123,9.61512446 17.5595238,9.61512446 Z" id="Combined-Shape"></path>
                    </g>
                </g>
            </g>
        </g>
    </g>
</svg>