<?xml version="1.0" encoding="UTF-8"?>
<svg width="160px" height="32px" viewBox="0 0 160 32" version="1.1" xmlns="http://www.w3.org/2000/svg" xmlns:xlink="http://www.w3.org/1999/xlink">
    <!-- Generator: sketchtool 60.1 (101010) - https://sketch.com -->
    <title>3F284C4A-B3F0-41D1-9B14-E2ED9DF7CA61</title>
    <desc>Created with sketchtool.</desc>
    <defs>
        <path d="M22.1028043,0.880271186 L18.2665023,0.880271186 C18.2029379,0.681762712 18.0181202,0.536949153 17.8012532,0.536949153 L17.8012532,0.536949153 C17.5315049,0.536949153 17.3135696,0.759864407 17.3135696,1.03322034 L17.3135696,1.03322034 C17.3135696,1.30711864 17.5315049,1.52949153 17.8012532,1.52949153 L17.8012532,1.52949153 C17.8461222,1.52949153 17.8893888,1.52352542 17.9305187,1.51267797 L17.9305187,1.51267797 L19.83585,4.47837288 C19.7963225,4.52772881 19.7664099,4.58522034 19.7477144,4.64813559 L19.7477144,4.64813559 L15.9301079,4.74250847 C15.9204931,4.69044068 15.9017976,4.64108475 15.8772265,4.59661017 L15.8772265,4.59661017 C17.1784284,3.43755932 17.6751926,2.10115254 17.6767951,2.09627119 L17.6767951,2.09627119 C15.8537237,1.07444068 13.6572779,0.536949153 11.3326348,0.536949153 L11.3326348,0.536949153 C5.28119158,0.536949153 0.0982845403,4.17464407 0.0982845403,10.5448136 L0.0982845403,10.5448136 L0.0982845403,21.7762712 C0.0982845403,28.1469831 5.28119158,31.784678 11.3326348,31.784678 L11.3326348,31.784678 C15.3318541,31.784678 18.9512892,30.1966102 20.9463585,27.2808136 L20.9463585,27.2808136 C20.9538367,27.2808136 20.9597124,27.2808136 20.9671905,27.2808136 L20.9671905,27.2808136 C21.2369389,27.2808136 21.4548742,27.0589831 21.4548742,26.7856271 L21.4548742,26.7856271 C21.4548742,26.6961356 21.4319055,26.6126102 21.3913097,26.5399322 L21.3913097,26.5399322 C21.7198151,26.1065763 21.9895634,25.6206102 22.1450026,25.0961356 L22.1450026,25.0961356 C22.3389009,25.0310508 22.4799178,24.8455593 22.4799178,24.6258983 L22.4799178,24.6258983 C22.4799178,24.5288136 22.4532101,24.4387797 22.4056703,24.3628475 L22.4056703,24.3628475 C22.6364253,23.5612203 22.7469954,22.7189153 22.7550077,21.8798644 L22.7550077,21.8798644 C22.8623729,21.7887458 22.9307447,21.6515254 22.9307447,21.4985763 L22.9307447,21.4985763 C22.9307447,21.2252203 22.7122753,21.0028475 22.4430611,21.0028475 L22.4430611,21.0028475 L21.5590344,19.4852881 C21.6343503,19.3974237 21.6808218,19.2829831 21.6808218,19.1582373 L21.6808218,19.1582373 C21.6808218,19.0351186 21.6370211,18.9228475 21.564376,18.8360678 L21.564376,18.8360678 L22.4526759,17.3689492 C22.4889985,17.3781695 22.5274576,17.3830508 22.5675193,17.3830508 L22.5675193,17.3830508 C22.8372676,17.3830508 23.055737,17.1612203 23.055737,16.887322 L23.055737,16.887322 C23.055737,16.6671186 22.9141859,16.48 22.718151,16.4154576 L22.718151,16.4154576 L22.718151,11.8844746 C22.9141859,11.8193898 23.055737,11.6328136 23.055737,11.4126102 L23.055737,11.4126102 C23.055737,11.1918644 22.9141859,11.0052881 22.718151,10.9407458 L22.718151,10.9407458 L22.718151,7.86061017 C22.9141859,7.7960678 23.055737,7.60894915 23.055737,7.38874576 L23.055737,7.38874576 C23.055737,7.16854237 22.9141859,6.98142373 22.718151,6.91688136 L22.718151,6.91688136 L22.718151,1.50508475 C22.9141859,1.44054237 23.055737,1.2539661 23.055737,1.03322034 L23.055737,1.03322034 C23.055737,0.759864407 22.8372676,0.536949153 22.5675193,0.536949153 L22.5675193,0.536949153 C22.3501181,0.536949153 22.1663688,0.681762712 22.1028043,0.880271186 L22.1028043,0.880271186 Z M18.1810375,1.34454237 C18.2184284,1.29789831 18.2478069,1.24366102 18.2665023,1.18562712 L18.2665023,1.18562712 L22.1028043,1.18616949 C22.1220339,1.24637288 22.1519466,1.30169492 22.1909399,1.34942373 L22.1909399,1.34942373 L20.33849,4.30915254 C20.2994967,4.29938983 20.2578326,4.2939661 20.2161685,4.2939661 L20.2161685,4.2939661 C20.1712994,4.2939661 20.128567,4.2999322 20.0885054,4.31077966 L20.0885054,4.31077966 L18.1810375,1.34454237 Z M20.6413559,5.03376271 C20.6808834,4.96162712 20.7038521,4.87810169 20.7038521,4.78969492 L20.7038521,4.78969492 C20.7038521,4.66983051 20.662188,4.55918644 20.5927478,4.4740339 L20.5927478,4.4740339 L22.4163534,1.55932203 L22.4163534,6.91688136 C22.3987262,6.92284746 22.380565,6.92989831 22.3629379,6.9380339 L22.3629379,6.9380339 L20.6413559,5.03376271 Z M15.8563945,5.11294915 C15.8692142,5.09288136 15.8814997,5.07172881 15.8916487,5.04949153 L15.8916487,5.04949153 L19.7557268,4.9540339 C19.821962,5.14711864 20.0030406,5.28542373 20.2161685,5.28542373 L20.2161685,5.28542373 C20.2893477,5.28542373 20.3577196,5.26915254 20.4202157,5.23986441 L20.4202157,5.23986441 L22.1417976,7.14467797 C22.1038726,7.21301695 22.080904,7.29166102 22.0793015,7.37518644 L22.0793015,7.37518644 L18.826831,8.35145763 C18.7381613,8.22128814 18.5912686,8.13559322 18.4240781,8.13559322 L18.4240781,8.13559322 C18.3541037,8.13559322 18.2878685,8.15077966 18.2280431,8.17735593 L18.2280431,8.17735593 L15.8563945,5.11294915 Z M11.9885773,6.24054237 C13.2742886,6.13369492 14.2998665,5.71823729 15.1059065,5.18833898 L15.1059065,5.18833898 C15.124602,5.20786441 15.1448998,5.22413559 15.1657319,5.23986441 L15.1657319,5.23986441 L14.0183667,8.87701695 C13.9537339,8.87755932 13.8912378,8.89057627 13.8346174,8.91444068 L13.8346174,8.91444068 L11.7818593,6.46237288 C11.8069646,6.40216949 11.8208526,6.336 11.8208526,6.26711864 L11.8208526,6.26711864 C11.8208526,6.25844068 11.8203184,6.24976271 11.8203184,6.24108475 L11.8203184,6.24108475 C11.842753,6.24271186 11.8641192,6.24488136 11.8870878,6.24650847 L11.8870878,6.24650847 C11.9212738,6.24488136 11.9549255,6.24271186 11.9885773,6.24054237 L11.9885773,6.24054237 Z M14.4558398,9.59674576 C14.4894915,9.52949153 14.508187,9.45355932 14.508187,9.37328814 L14.508187,9.37328814 C14.508187,9.20732203 14.4285978,9.06088136 14.305208,8.97030508 L14.305208,8.97030508 L15.4525732,5.33261017 C15.5113303,5.33261017 15.5668824,5.32176271 15.6186954,5.30223729 L15.6186954,5.30223729 L18.0020955,8.38074576 C17.9593631,8.45450847 17.9353261,8.54020339 17.9353261,8.63186441 L17.9353261,8.63186441 C17.9353261,8.77667797 17.9972881,8.90738983 18.0950385,8.99850847 L18.0950385,8.99850847 L16.5614792,11.2862373 C16.5075295,11.2650847 16.4482383,11.2536949 16.3868105,11.2536949 L16.3868105,11.2536949 C16.3040164,11.2536949 16.2254956,11.2743051 16.1571238,11.3111864 L16.1571238,11.3111864 L14.4558398,9.59674576 Z M6.25442219,22.1749153 L6.25442219,10.1467119 C6.25442219,7.52705085 8.89368259,6.40271186 10.8449512,6.24108475 L10.8449512,6.24108475 C10.8444171,6.24976271 10.8438829,6.25844068 10.8438829,6.26711864 L10.8438829,6.26711864 C10.8438829,6.48786441 10.9859682,6.67498305 11.1820031,6.73952542 L11.1820031,6.73952542 L11.1820031,11.2775593 C10.9859682,11.3421017 10.8438829,11.5292203 10.8438829,11.7494237 L10.8438829,11.7494237 C10.8438829,12.0227797 11.0628865,12.2451525 11.3326348,12.2451525 L11.3326348,12.2451525 C11.550036,12.2451525 11.7332512,12.1014237 11.7968156,11.9023729 L11.7968156,11.9023729 L15.9215614,11.9023729 C15.9760452,12.0710508 16.1175963,12.2012203 16.2917309,12.2359322 L16.2917309,12.2359322 L16.2917309,14.2703729 C16.0882178,14.3300339 15.9391885,14.5209492 15.9391885,14.7465763 L15.9391885,14.7465763 C15.9391885,15.0204746 16.1571238,15.2428475 16.4268721,15.2428475 L16.4268721,15.2428475 C16.4685362,15.2428475 16.5085978,15.2374237 16.5465229,15.227661 L16.5465229,15.227661 L17.4262763,16.6470508 C17.356302,16.7327458 17.3135696,16.8439322 17.3135696,16.964339 L17.3135696,16.964339 C17.3135696,17.0565424 17.3381407,17.1427797 17.3814073,17.2170847 L17.3814073,17.2170847 C17.0983051,17.540339 16.8136004,17.8608814 16.5363739,18.1895593 L16.5363739,18.1895593 C16.4888341,18.1743729 16.4391577,18.1656949 16.3868105,18.1656949 L16.3868105,18.1656949 C16.1170621,18.1656949 15.8975244,18.3880678 15.8975244,18.6619661 L15.8975244,18.6619661 C15.8975244,18.8908475 16.0513611,19.0844746 16.2596816,19.1408814 L16.2596816,19.1408814 L16.2596816,21.0570847 C16.0807396,21.1303051 15.9541448,21.3087458 15.9541448,21.5170169 L15.9541448,21.5170169 C15.9541448,21.7290847 16.085547,21.9107797 16.2708988,21.9812881 L16.2708988,21.9812881 C16.2297689,22.8208814 16.0070262,23.6376949 15.5038521,24.1795254 L15.5038521,24.1795254 C15.4285362,24.1312542 15.3393323,24.1035932 15.2437185,24.1035932 L15.2437185,24.1035932 C14.9739702,24.1035932 14.7555008,24.3254237 14.7555008,24.599322 L14.7555008,24.599322 C14.7555008,24.7549831 14.8260092,24.8938305 14.9371135,24.9854915 L14.9371135,24.9854915 C13.867735,25.7681356 12.4223112,26.1022373 11.3326348,26.1022373 L11.3326348,26.1022373 C9.36908064,26.1022373 6.25442219,25.0207458 6.25442219,22.1749153 L6.25442219,22.1749153 Z M11.4838007,11.2775593 L11.4944838,6.73518644 C11.5254648,6.72433898 11.5543092,6.71132203 11.5810169,6.69450847 L11.5810169,6.69450847 L13.6043965,9.11294915 C13.5584592,9.18833898 13.5317514,9.27783051 13.5317514,9.37328814 L13.5317514,9.37328814 C13.5317514,9.44216949 13.5456394,9.50779661 13.5707447,9.56691525 L13.5707447,9.56691525 L11.5842219,11.3242034 C11.5527067,11.304678 11.519055,11.2894915 11.4838007,11.2775593 L11.4838007,11.2775593 Z M18.9064201,8.70725424 C18.9096251,8.68664407 18.9112275,8.6660339 18.9117617,8.64488136 L18.9117617,8.64488136 L22.1647663,7.66861017 C22.2251258,7.75864407 22.3143297,7.82698305 22.41849,7.86115254 L22.41849,7.86115254 L22.4174217,10.9402034 C22.3410375,10.9656949 22.2715973,11.0096271 22.2165794,11.0671186 L22.2165794,11.0671186 L18.9064201,8.70725424 Z M18.7686081,8.98277966 L22.0835747,11.3458983 C22.0803698,11.3675932 22.0793015,11.3898305 22.0793015,11.4126102 L22.0793015,11.4126102 C22.0793015,11.6328136 22.2213867,11.8204746 22.4174217,11.8844746 L22.4174217,11.8844746 L22.4163534,16.1176949 L21.5932203,14.0968136 C21.6765485,14.0084068 21.7278274,13.888 21.7278274,13.7551186 L21.7278274,13.7551186 C21.7278274,13.4812203 21.509358,13.2593898 21.2401438,13.2593898 L21.2401438,13.2593898 C21.1958089,13.2593898 21.1541448,13.2653559 21.1130149,13.2762034 L21.1130149,13.2762034 L20.0991885,11.688678 C20.1718336,11.6018983 20.2161685,11.4901695 20.2161685,11.3670508 L20.2161685,11.3670508 C20.2161685,11.0936949 19.9971649,10.871322 19.7279507,10.871322 L19.7279507,10.871322 C19.484376,10.871322 19.2835336,11.0519322 19.2456086,11.2878644 L19.2456086,11.2878644 L16.8344325,11.5525424 C16.8237494,11.5270508 16.8103955,11.5026441 16.7954391,11.479322 L16.7954391,11.479322 L18.3866872,9.1259661 C18.3984386,9.12705085 18.4107242,9.12759322 18.4240781,9.12759322 L18.4240781,9.12759322 C18.558151,9.12759322 18.6799384,9.07227119 18.7686081,8.98277966 L18.7686081,8.98277966 Z M11.7813251,11.5530847 L13.7683821,9.7979661 C13.8426297,9.84298305 13.9286287,9.86901695 14.0205033,9.86901695 L14.0205033,9.86901695 C14.1006266,9.86901695 14.1764766,9.84894915 14.2437802,9.81369492 L14.2437802,9.81369492 L15.9482691,11.5313898 C15.937586,11.552 15.9285054,11.5736949 15.9215614,11.5964746 L15.9215614,11.5964746 L11.7968156,11.5964746 C11.7925424,11.5818305 11.7872008,11.5671864 11.7813251,11.5530847 L11.7813251,11.5530847 Z M16.5929944,14.2801356 L16.5935285,12.1979661 C16.7286697,12.1339661 16.8296251,12.0081356 16.8627427,11.8562712 L16.8627427,11.8562712 L19.2910118,11.5899661 C19.3198562,11.648 19.3593837,11.6995254 19.4074576,11.7412881 L19.4074576,11.7412881 L18.8156138,13.2610169 C18.8038624,13.2599322 18.7905085,13.2593898 18.7776888,13.2593898 L18.7776888,13.2593898 C18.5084746,13.2593898 18.2900051,13.4812203 18.2900051,13.7551186 L18.2900051,13.7551186 C18.2900051,13.7692203 18.2905393,13.783322 18.2910734,13.7974237 L18.2910734,13.7974237 L16.7986441,14.4244068 C16.7436261,14.3604068 16.6731176,14.3099661 16.5929944,14.2801356 L16.5929944,14.2801356 Z M19.842794,11.8492203 L20.8608937,13.4427119 C20.8251053,13.4866441 20.7973292,13.5365424 20.7786338,13.591322 L20.7786338,13.591322 C20.2669132,13.5842712 19.7546584,13.595661 19.2429379,13.6016271 L19.2429379,13.6016271 C19.2140935,13.5132203 19.1617463,13.435661 19.0933744,13.3770847 L19.0933744,13.3770847 L19.6846841,11.8606102 C19.6985722,11.8616949 19.7135285,11.8627797 19.7279507,11.8627797 L19.7279507,11.8627797 C19.766944,11.8627797 19.8054032,11.8584407 19.842794,11.8492203 L19.842794,11.8492203 Z M19.1430508,14.084339 C19.1868516,14.0344407 19.2205033,13.975322 19.2424037,13.9107797 L19.2424037,13.9107797 L20.7754289,13.9086102 C20.8389933,14.1065763 21.0227427,14.2508475 21.2401438,14.2508475 L21.2401438,14.2508475 C21.2689882,14.2508475 21.2983667,14.2481356 21.3261428,14.2427119 L21.3261428,14.2427119 L22.2502311,16.5103729 C22.1460709,16.6009492 22.0793015,16.7365424 22.0793015,16.887322 L22.0793015,16.887322 C22.0793015,17.0104407 22.1225681,17.1227119 22.1962815,17.2089492 L22.1962815,17.2089492 L21.3079815,18.6749831 C21.2903544,18.6706441 21.2732614,18.6679322 21.2556343,18.6657627 L21.2556343,18.6657627 L20.3043041,16.2191186 C20.4106009,16.1274576 20.4784386,15.9918644 20.4784386,15.8394576 L20.4784386,15.8394576 C20.4784386,15.5655593 20.2599692,15.3437288 19.9902209,15.3437288 L19.9902209,15.3437288 C19.9538983,15.3437288 19.9181099,15.3475254 19.8828557,15.355661 L19.8828557,15.355661 L19.1430508,14.084339 Z M16.801849,15.0644068 C16.8723575,14.9781695 16.915624,14.8675254 16.915624,14.7465763 L16.915624,14.7465763 C16.915624,14.7335593 16.9150899,14.7205424 16.9140216,14.7069831 L16.9140216,14.7069831 L18.4085876,14.0789153 C18.4977915,14.1841356 18.6307961,14.2508475 18.7776888,14.2508475 L18.7776888,14.2508475 C18.8145455,14.2508475 18.8492655,14.2470508 18.8829173,14.2394576 L18.8829173,14.2394576 L19.6237904,15.511322 C19.5484746,15.5991864 19.5020031,15.7130847 19.5020031,15.8394576 L19.5020031,15.8394576 C19.5020031,15.8654915 19.5041397,15.8909831 19.5073446,15.9159322 L19.5073446,15.9159322 L18.1473857,16.6150508 C18.0597843,16.5244746 17.9363945,16.4686102 17.8012532,16.4686102 L17.8012532,16.4686102 C17.7601233,16.4686102 17.7195275,16.4740339 17.6810683,16.4837966 L17.6810683,16.4837966 L16.801849,15.0644068 Z M18.2900051,16.964339 C18.2900051,16.9377627 18.2873344,16.9128136 18.2841294,16.8878644 L18.2841294,16.8878644 L19.6435542,16.1887458 C19.6686595,16.2142373 19.6959014,16.2370169 19.7263482,16.2565424 L19.7263482,16.2565424 L19.4015819,17.4492203 C19.1553364,17.4595254 18.9555624,17.6558644 18.9357987,17.9031864 L18.9357987,17.9031864 L16.8066564,18.4108475 C16.8013148,18.4 16.7954391,18.3902373 16.7890293,18.3810169 L16.7890293,18.3810169 C17.0673241,18.0631864 17.3472214,17.7475254 17.6185722,17.4242712 L17.6185722,17.4242712 C17.6751926,17.4475932 17.7371546,17.4600678 17.8012532,17.4600678 L17.8012532,17.4600678 C18.0704674,17.4600678 18.2900051,17.2382373 18.2900051,16.964339 L18.2900051,16.964339 Z M19.9106317,17.9449492 C19.9106317,17.7719322 19.8235645,17.6200678 19.691094,17.5305763 L19.691094,17.5305763 L20.0174628,16.3346441 C20.0201335,16.3346441 20.0222702,16.3341017 20.0244068,16.3341017 L20.0244068,16.3341017 L20.9538367,18.724339 C20.8048074,18.8094915 20.7038521,18.971661 20.7038521,19.1582373 L20.7038521,19.1582373 C20.7038521,19.2797288 20.7476528,19.392 20.8202979,19.4782373 L20.8202979,19.4782373 L20.1205547,20.6221017 C20.0788906,20.6101695 20.035624,20.6042034 19.9902209,20.6042034 L19.9902209,20.6042034 C19.8449307,20.6042034 19.7145968,20.6682034 19.6253929,20.7707119 L19.6253929,20.7707119 L18.5325116,20.2212881 C18.5362506,20.1985085 18.537319,20.1735593 18.537319,20.1491525 L18.537319,20.1491525 C18.537319,20.0282034 18.4956549,19.9186441 18.4251464,19.8324068 L18.4251464,19.8324068 L19.3011608,18.4249492 C19.3401541,18.4357966 19.3807499,18.440678 19.422414,18.440678 L19.422414,18.440678 C19.6921623,18.440678 19.9106317,18.2183051 19.9106317,17.9449492 L19.9106317,17.9449492 Z M16.83283,18.8626441 C16.853662,18.8149153 16.8675501,18.7633898 16.8723575,18.7096949 L16.8723575,18.7096949 L19.0047047,18.2014915 C19.0169902,18.2221017 19.0314124,18.2427119 19.0474371,18.2616949 L19.0474371,18.2616949 L18.1703544,19.6686102 C18.1318952,19.6588475 18.0912994,19.6534237 18.0496353,19.6534237 L18.0496353,19.6534237 C17.9582948,19.6534237 17.87283,19.6789153 17.7996507,19.7233898 L17.7996507,19.7233898 L16.83283,18.8626441 Z M16.560945,21.0359322 L16.560945,19.1240678 C16.5855162,19.1153898 16.609019,19.104 16.6309194,19.0904407 L16.6309194,19.0904407 L17.600945,19.9533559 C17.5747714,20.0130169 17.5608834,20.0797288 17.5608834,20.1491525 L17.5608834,20.1491525 C17.5608834,20.2207458 17.5758398,20.288 17.6030817,20.3492881 L17.6030817,20.3492881 L16.7452286,21.1281356 C16.691813,21.0852881 16.6293169,21.0527458 16.560945,21.0359322 L16.560945,21.0359322 Z M20.4779045,21.0668475 C20.4704263,20.9621695 20.4319671,20.8667119 20.3716076,20.7902373 L20.3716076,20.7902373 L21.0750899,19.6387797 C21.1130149,19.648 21.1520082,19.6534237 21.192604,19.6534237 L21.192604,19.6534237 C21.2289266,19.6534237 21.2652491,19.6485424 21.2999692,19.6414915 L21.2999692,19.6414915 L22.1503441,21.1015593 C22.0771649,21.1574237 22.0194761,21.2328136 21.9863585,21.3212203 L21.9863585,21.3212203 L20.4779045,21.0668475 Z M18.7857011,22.5616271 C18.7808937,22.3256949 18.6137031,22.1293559 18.3925629,22.0848814 L18.3925629,22.0848814 L18.2462044,20.603661 C18.3038932,20.5776271 18.3551721,20.5407458 18.3984386,20.4962712 L18.3984386,20.4962712 L19.5046739,21.0511186 C19.5025372,21.0668475 19.5020031,21.083661 19.5020031,21.1004746 L19.5020031,21.1004746 C19.5020031,21.3743729 19.7204725,21.5951186 19.9902209,21.5951186 L19.9902209,21.5951186 C20.1643554,21.5951186 20.3171238,21.5029153 20.4031228,21.3646102 L20.4031228,21.3646102 L21.970868,21.6282034 C21.9858243,21.6818983 22.0077247,21.7312542 22.0376374,21.7757288 L22.0376374,21.7757288 L20.7877144,22.8539661 C20.7038521,22.784 20.5959527,22.7416949 20.4784386,22.7416949 L20.4784386,22.7416949 C20.3117822,22.7416949 20.1654237,22.8263051 20.0762198,22.9564746 L20.0762198,22.9564746 L18.7857011,22.5616271 Z M16.6907447,21.9438644 C16.8344325,21.8576271 16.9305804,21.6987119 16.9305804,21.5170169 L16.9305804,21.5170169 C16.9305804,21.4709153 16.9252388,21.4269831 16.9134874,21.384678 L16.9134874,21.384678 L17.803924,20.5776271 C17.8471905,20.603661 17.8952645,20.6226441 17.9460092,20.6340339 L17.9460092,20.6340339 L18.0939702,22.1201356 C17.9257114,22.1987797 17.8081972,22.3712542 17.8081972,22.5708475 L17.8081972,22.5708475 C17.8081972,22.8447458 18.0272008,23.067661 18.2969492,23.067661 L18.2969492,23.067661 C18.4630714,23.067661 18.6088957,22.9830508 18.6970313,22.8545085 L18.6970313,22.8545085 L19.9902209,23.2493559 C19.9928916,23.3681356 20.0366923,23.4771525 20.1088033,23.5612203 L20.1088033,23.5612203 L19.3481664,24.8341695 C19.3209245,24.8303729 19.2942167,24.8271186 19.2664407,24.8271186 L19.2664407,24.8271186 C19.1334361,24.8271186 19.0137853,24.8813559 18.9251156,24.968678 L18.9251156,24.968678 L17.7996507,24.3265085 C17.8049923,24.2950508 17.8081972,24.2619661 17.8081972,24.2294237 L17.8081972,24.2294237 C17.8081972,23.9560678 17.5897278,23.7336949 17.3199795,23.7336949 L17.3199795,23.7336949 L17.3098305,23.7336949 L16.6907447,21.9438644 Z M20.923924,23.4418983 C20.9517001,23.3795254 20.9671905,23.3106441 20.9671905,23.2374237 L20.9671905,23.2374237 C20.9671905,23.1951186 20.961849,23.1528136 20.9517001,23.1143051 L20.9517001,23.1143051 L22.2817463,21.9671864 C22.332491,21.9850847 22.3864407,21.9943051 22.442527,21.9943051 L22.442527,21.9943051 L22.4510734,21.9943051 C22.4350488,22.7232542 22.339435,23.4538305 22.1492758,24.1572881 L22.1492758,24.1572881 C22.0995994,24.1393898 22.046718,24.1301695 21.9917001,24.1301695 L21.9917001,24.1301695 C21.9008937,24.1301695 21.8154289,24.1551186 21.7422496,24.1995932 L21.7422496,24.1995932 L20.923924,23.4418983 Z M16.516076,22.5703051 C16.52302,22.5225763 16.5304982,22.472678 16.5363739,22.4206102 L16.5363739,22.4206102 L17.02566,23.8345763 C16.9300462,23.908339 16.8622085,24.0162712 16.839774,24.1410169 L16.839774,24.1410169 L15.7586441,24.3427797 C16.1816949,23.8465085 16.4156549,23.2119322 16.516076,22.5703051 L16.516076,22.5703051 Z M20.7188084,23.6686102 L21.540339,24.4376949 C21.516302,24.4957288 21.5029481,24.5591864 21.5029481,24.6258983 L21.5029481,24.6258983 C21.5029481,24.6508475 21.5050847,24.6752542 21.5082897,24.6991186 L21.5082897,24.6991186 L19.691094,25.0787797 C19.6702619,25.0413559 19.6446225,25.0061017 19.6157781,24.9762712 L19.6157781,24.9762712 L20.3668002,23.7195932 C20.4020544,23.7288136 20.4399795,23.7326102 20.4784386,23.7326102 L20.4784386,23.7326102 C20.5655059,23.7326102 20.6477658,23.7098305 20.7188084,23.6686102 L20.7188084,23.6686102 Z M17.5822496,25.911322 L17.5026605,24.6893559 C17.5587468,24.6660339 17.6089574,24.6334915 17.6522239,24.5928136 L17.6522239,24.5928136 L18.7851669,25.239322 C18.7808937,25.2664407 18.7776888,25.2946441 18.7776888,25.3233898 L18.7776888,25.3233898 C18.7776888,25.367322 18.7840986,25.4107119 18.7947817,25.4508475 L18.7947817,25.4508475 L17.8429173,26.0751186 C17.7761479,25.9948475 17.6853416,25.9368136 17.5822496,25.911322 L17.5822496,25.911322 Z M19.7140627,25.5208136 C19.7332922,25.4757966 19.7466461,25.4286102 19.7519877,25.3781695 L19.7519877,25.3781695 L21.6514432,24.9816949 C21.7016538,25.0310508 21.7625475,25.0701017 21.8298511,25.0939661 L21.8298511,25.0939661 C21.6861633,25.5381695 21.4489985,25.952 21.1653621,26.3322034 L21.1653621,26.3322034 C21.1044684,26.3050847 21.0371649,26.2898983 20.9671905,26.2898983 L20.9671905,26.2898983 C20.8769183,26.2898983 20.7919877,26.3148475 20.7193426,26.3582373 L20.7193426,26.3582373 L19.7140627,25.5208136 Z" id="path-1"></path>
        <linearGradient x1="64.7340765%" y1="17.8618744%" x2="41.8507473%" y2="85.4108647%" id="linearGradient-3">
            <stop stop-color="#455B99" offset="0%"></stop>
            <stop stop-color="#5C90A7" offset="51.237859%"></stop>
            <stop stop-color="#72C2B3" offset="100%"></stop>
        </linearGradient>
    </defs>
    <g id="End-User" stroke="none" stroke-width="1" fill="none" fill-rule="evenodd">
        <g id="4.event_form_27Nov" transform="translate(-30.000000, -4.000000)">
            <g id="header">
                <g id="logo-header">
                    <g id="logo" transform="translate(30.000000, 4.000000)">
                        <path d="M135.826226,9.87086825 L135.826226,17.3942174 C135.826226,20.467427 137.511633,22.2360926 140.31271,22.2360926 C143.001246,22.2360926 144.723987,20.6345534 144.723987,17.4873611 L144.723987,9.87086825 L145.708178,9.87086825 L145.708178,17.3755886 C145.708178,21.1183683 143.493071,23.1111111 140.274836,23.1111111 C137.094475,23.1111111 134.842035,21.1369971 134.842035,17.4873611 L134.842035,9.87086825 L135.826226,9.87086825 Z M50.7943112,9.87092147 L50.7943112,22.9067805 L48.4661224,22.9067805 L48.4661224,9.87092147 L50.7943112,9.87092147 Z M76.1412695,9.77777778 L81.9717511,22.9067805 L79.5110022,22.9067805 L78.1670048,19.7590559 L71.9009684,19.7590559 L70.5374928,22.9067805 L68.1524925,22.9067805 L73.9829741,9.77777778 L76.1412695,9.77777778 Z M40.6107712,9.87092147 C42.1257442,9.87092147 43.3182443,10.2807537 44.0751897,11.0259033 C44.6622418,11.6028619 44.9652363,12.310754 44.9652363,13.2230299 C44.9652363,14.7873117 44.0562526,15.6250727 43.0720612,16.1285809 C44.6243674,16.6496533 45.7032446,17.5246718 45.7032446,19.3311272 C45.7032446,21.6591872 43.753258,22.9062482 40.8001429,22.9062482 L34.6666667,22.9062482 L34.6666667,9.87092147 L40.6107712,9.87092147 Z M56.4922868,9.87081502 L63.5910172,18.883931 L63.5910172,9.87081502 L65.8818727,9.87081502 L65.8818727,22.906674 L63.9318861,22.906674 L56.6243058,13.6327557 L56.6243058,22.906674 L54.3339914,22.906674 L54.3339914,9.87081502 L56.4922868,9.87081502 Z M90.1487094,9.87060212 C93.2533218,9.87060212 95.0707483,11.5093989 95.0707483,14.0237463 C95.0707483,16.165519 93.7646252,17.4498375 91.9093244,17.9719744 L95.4873658,22.9064611 L92.7420184,22.9064611 L89.4485755,18.3626457 L86.5706679,18.3626457 L86.5706679,22.9064611 L84.2419381,22.9064611 L84.2419381,9.87060212 L90.1487094,9.87060212 Z M98.8562869,9.87108115 L102.566347,15.6438611 L106.314823,9.87108115 L108.983881,9.87108115 L103.721514,17.7111188 L103.721514,22.9064079 L101.373847,22.9064079 L101.373847,17.7664728 L96.1109395,9.87108115 L98.8562869,9.87108115 Z M120.607944,9.87081502 L120.607944,10.7649945 L112.25882,10.7649945 L112.25882,16.1098457 L119.755772,16.1098457 L119.755772,17.0029606 L112.25882,17.0029606 L112.25882,22.906674 L111.274628,22.906674 L111.274628,9.87081502 L120.607944,9.87081502 Z M124.676837,9.87081502 L124.676837,22.0124946 L132.457305,22.0124946 L132.457305,22.906674 L123.692645,22.906674 L123.692645,9.87081502 L124.676837,9.87081502 Z M149.625682,9.87081502 L154.15004,15.6063375 L158.655462,9.87081502 L159.810628,9.87081502 L154.737092,16.2402469 L160,22.906674 L158.826437,22.906674 L154.112166,16.8917205 L149.417373,22.906674 L148.262206,22.906674 L153.544592,16.2583433 L148.452119,9.87081502 L149.625682,9.87081502 Z M40.6486456,17.3011269 L36.9569811,17.3011269 L36.9569811,20.8767802 L40.81908,20.8767802 C42.4092606,20.8767802 43.3750558,20.2620318 43.3750558,19.0516961 C43.3750558,17.9531328 42.4850092,17.3011269 40.6486456,17.3011269 Z M75.024518,12.5156701 L72.7525997,17.7295879 L77.3148325,17.7295879 L75.024518,12.5156701 Z M89.9593378,11.9564886 L86.5706679,11.9564886 L86.5706679,16.3331777 L89.9782749,16.3331777 C91.6442041,16.3331777 92.7041441,15.4767879 92.7041441,14.11689 C92.7041441,12.7202669 91.6820784,11.9564886 89.9593378,11.9564886 Z M40.3083177,11.9009217 L36.9569811,11.9009217 L36.9569811,15.3648026 L40.1378833,15.3648026 C41.633378,15.3648026 42.6365065,14.7873117 42.6365065,13.5583472 C42.6365065,12.5342988 41.8032714,11.9009217 40.3083177,11.9009217 Z" id="Combined-Shape" fill="#FFFFFF"></path>
                        <g id="Logo">
                            <mask id="mask-2" fill="white">
                                <use xlink:href="#path-1"></use>
                            </mask>
                            <g id="Clip-15"></g>
                            <path d="M22.1028043,0.880271186 L18.2665023,0.880271186 C18.2029379,0.681762712 18.0181202,0.536949153 17.8012532,0.536949153 L17.8012532,0.536949153 C17.5315049,0.536949153 17.3135696,0.759864407 17.3135696,1.03322034 L17.3135696,1.03322034 C17.3135696,1.30711864 17.5315049,1.52949153 17.8012532,1.52949153 L17.8012532,1.52949153 C17.8461222,1.52949153 17.8893888,1.52352542 17.9305187,1.51267797 L17.9305187,1.51267797 L19.83585,4.47837288 C19.7963225,4.52772881 19.7664099,4.58522034 19.7477144,4.64813559 L19.7477144,4.64813559 L15.9301079,4.74250847 C15.9204931,4.69044068 15.9017976,4.64108475 15.8772265,4.59661017 L15.8772265,4.59661017 C17.1784284,3.43755932 17.6751926,2.10115254 17.6767951,2.09627119 L17.6767951,2.09627119 C15.8537237,1.07444068 13.6572779,0.536949153 11.3326348,0.536949153 L11.3326348,0.536949153 C5.28119158,0.536949153 0.0982845403,4.17464407 0.0982845403,10.5448136 L0.0982845403,10.5448136 L0.0982845403,21.7762712 C0.0982845403,28.1469831 5.28119158,31.784678 11.3326348,31.784678 L11.3326348,31.784678 C15.3318541,31.784678 18.9512892,30.1966102 20.9463585,27.2808136 L20.9463585,27.2808136 C20.9538367,27.2808136 20.9597124,27.2808136 20.9671905,27.2808136 L20.9671905,27.2808136 C21.2369389,27.2808136 21.4548742,27.0589831 21.4548742,26.7856271 L21.4548742,26.7856271 C21.4548742,26.6961356 21.4319055,26.6126102 21.3913097,26.5399322 L21.3913097,26.5399322 C21.7198151,26.1065763 21.9895634,25.6206102 22.1450026,25.0961356 L22.1450026,25.0961356 C22.3389009,25.0310508 22.4799178,24.8455593 22.4799178,24.6258983 L22.4799178,24.6258983 C22.4799178,24.5288136 22.4532101,24.4387797 22.4056703,24.3628475 L22.4056703,24.3628475 C22.6364253,23.5612203 22.7469954,22.7189153 22.7550077,21.8798644 L22.7550077,21.8798644 C22.8623729,21.7887458 22.9307447,21.6515254 22.9307447,21.4985763 L22.9307447,21.4985763 C22.9307447,21.2252203 22.7122753,21.0028475 22.4430611,21.0028475 L22.4430611,21.0028475 L21.5590344,19.4852881 C21.6343503,19.3974237 21.6808218,19.2829831 21.6808218,19.1582373 L21.6808218,19.1582373 C21.6808218,19.0351186 21.6370211,18.9228475 21.564376,18.8360678 L21.564376,18.8360678 L22.4526759,17.3689492 C22.4889985,17.3781695 22.5274576,17.3830508 22.5675193,17.3830508 L22.5675193,17.3830508 C22.8372676,17.3830508 23.055737,17.1612203 23.055737,16.887322 L23.055737,16.887322 C23.055737,16.6671186 22.9141859,16.48 22.718151,16.4154576 L22.718151,16.4154576 L22.718151,11.8844746 C22.9141859,11.8193898 23.055737,11.6328136 23.055737,11.4126102 L23.055737,11.4126102 C23.055737,11.1918644 22.9141859,11.0052881 22.718151,10.9407458 L22.718151,10.9407458 L22.718151,7.86061017 C22.9141859,7.7960678 23.055737,7.60894915 23.055737,7.38874576 L23.055737,7.38874576 C23.055737,7.16854237 22.9141859,6.98142373 22.718151,6.91688136 L22.718151,6.91688136 L22.718151,1.50508475 C22.9141859,1.44054237 23.055737,1.2539661 23.055737,1.03322034 L23.055737,1.03322034 C23.055737,0.759864407 22.8372676,0.536949153 22.5675193,0.536949153 L22.5675193,0.536949153 C22.3501181,0.536949153 22.1663688,0.681762712 22.1028043,0.880271186 L22.1028043,0.880271186 Z M18.1810375,1.34454237 C18.2184284,1.29789831 18.2478069,1.24366102 18.2665023,1.18562712 L18.2665023,1.18562712 L22.1028043,1.18616949 C22.1220339,1.24637288 22.1519466,1.30169492 22.1909399,1.34942373 L22.1909399,1.34942373 L20.33849,4.30915254 C20.2994967,4.29938983 20.2578326,4.2939661 20.2161685,4.2939661 L20.2161685,4.2939661 C20.1712994,4.2939661 20.128567,4.2999322 20.0885054,4.31077966 L20.0885054,4.31077966 L18.1810375,1.34454237 Z M20.6413559,5.03376271 C20.6808834,4.96162712 20.7038521,4.87810169 20.7038521,4.78969492 L20.7038521,4.78969492 C20.7038521,4.66983051 20.662188,4.55918644 20.5927478,4.4740339 L20.5927478,4.4740339 L22.4163534,1.55932203 L22.4163534,6.91688136 C22.3987262,6.92284746 22.380565,6.92989831 22.3629379,6.9380339 L22.3629379,6.9380339 L20.6413559,5.03376271 Z M15.8563945,5.11294915 C15.8692142,5.09288136 15.8814997,5.07172881 15.8916487,5.04949153 L15.8916487,5.04949153 L19.7557268,4.9540339 C19.821962,5.14711864 20.0030406,5.28542373 20.2161685,5.28542373 L20.2161685,5.28542373 C20.2893477,5.28542373 20.3577196,5.26915254 20.4202157,5.23986441 L20.4202157,5.23986441 L22.1417976,7.14467797 C22.1038726,7.21301695 22.080904,7.29166102 22.0793015,7.37518644 L22.0793015,7.37518644 L18.826831,8.35145763 C18.7381613,8.22128814 18.5912686,8.13559322 18.4240781,8.13559322 L18.4240781,8.13559322 C18.3541037,8.13559322 18.2878685,8.15077966 18.2280431,8.17735593 L18.2280431,8.17735593 L15.8563945,5.11294915 Z M11.9885773,6.24054237 C13.2742886,6.13369492 14.2998665,5.71823729 15.1059065,5.18833898 L15.1059065,5.18833898 C15.124602,5.20786441 15.1448998,5.22413559 15.1657319,5.23986441 L15.1657319,5.23986441 L14.0183667,8.87701695 C13.9537339,8.87755932 13.8912378,8.89057627 13.8346174,8.91444068 L13.8346174,8.91444068 L11.7818593,6.46237288 C11.8069646,6.40216949 11.8208526,6.336 11.8208526,6.26711864 L11.8208526,6.26711864 C11.8208526,6.25844068 11.8203184,6.24976271 11.8203184,6.24108475 L11.8203184,6.24108475 C11.842753,6.24271186 11.8641192,6.24488136 11.8870878,6.24650847 L11.8870878,6.24650847 C11.9212738,6.24488136 11.9549255,6.24271186 11.9885773,6.24054237 L11.9885773,6.24054237 Z M14.4558398,9.59674576 C14.4894915,9.52949153 14.508187,9.45355932 14.508187,9.37328814 L14.508187,9.37328814 C14.508187,9.20732203 14.4285978,9.06088136 14.305208,8.97030508 L14.305208,8.97030508 L15.4525732,5.33261017 C15.5113303,5.33261017 15.5668824,5.32176271 15.6186954,5.30223729 L15.6186954,5.30223729 L18.0020955,8.38074576 C17.9593631,8.45450847 17.9353261,8.54020339 17.9353261,8.63186441 L17.9353261,8.63186441 C17.9353261,8.77667797 17.9972881,8.90738983 18.0950385,8.99850847 L18.0950385,8.99850847 L16.5614792,11.2862373 C16.5075295,11.2650847 16.4482383,11.2536949 16.3868105,11.2536949 L16.3868105,11.2536949 C16.3040164,11.2536949 16.2254956,11.2743051 16.1571238,11.3111864 L16.1571238,11.3111864 L14.4558398,9.59674576 Z M6.25442219,22.1749153 L6.25442219,10.1467119 C6.25442219,7.52705085 8.89368259,6.40271186 10.8449512,6.24108475 L10.8449512,6.24108475 C10.8444171,6.24976271 10.8438829,6.25844068 10.8438829,6.26711864 L10.8438829,6.26711864 C10.8438829,6.48786441 10.9859682,6.67498305 11.1820031,6.73952542 L11.1820031,6.73952542 L11.1820031,11.2775593 C10.9859682,11.3421017 10.8438829,11.5292203 10.8438829,11.7494237 L10.8438829,11.7494237 C10.8438829,12.0227797 11.0628865,12.2451525 11.3326348,12.2451525 L11.3326348,12.2451525 C11.550036,12.2451525 11.7332512,12.1014237 11.7968156,11.9023729 L11.7968156,11.9023729 L15.9215614,11.9023729 C15.9760452,12.0710508 16.1175963,12.2012203 16.2917309,12.2359322 L16.2917309,12.2359322 L16.2917309,14.2703729 C16.0882178,14.3300339 15.9391885,14.5209492 15.9391885,14.7465763 L15.9391885,14.7465763 C15.9391885,15.0204746 16.1571238,15.2428475 16.4268721,15.2428475 L16.4268721,15.2428475 C16.4685362,15.2428475 16.5085978,15.2374237 16.5465229,15.227661 L16.5465229,15.227661 L17.4262763,16.6470508 C17.356302,16.7327458 17.3135696,16.8439322 17.3135696,16.964339 L17.3135696,16.964339 C17.3135696,17.0565424 17.3381407,17.1427797 17.3814073,17.2170847 L17.3814073,17.2170847 C17.0983051,17.540339 16.8136004,17.8608814 16.5363739,18.1895593 L16.5363739,18.1895593 C16.4888341,18.1743729 16.4391577,18.1656949 16.3868105,18.1656949 L16.3868105,18.1656949 C16.1170621,18.1656949 15.8975244,18.3880678 15.8975244,18.6619661 L15.8975244,18.6619661 C15.8975244,18.8908475 16.0513611,19.0844746 16.2596816,19.1408814 L16.2596816,19.1408814 L16.2596816,21.0570847 C16.0807396,21.1303051 15.9541448,21.3087458 15.9541448,21.5170169 L15.9541448,21.5170169 C15.9541448,21.7290847 16.085547,21.9107797 16.2708988,21.9812881 L16.2708988,21.9812881 C16.2297689,22.8208814 16.0070262,23.6376949 15.5038521,24.1795254 L15.5038521,24.1795254 C15.4285362,24.1312542 15.3393323,24.1035932 15.2437185,24.1035932 L15.2437185,24.1035932 C14.9739702,24.1035932 14.7555008,24.3254237 14.7555008,24.599322 L14.7555008,24.599322 C14.7555008,24.7549831 14.8260092,24.8938305 14.9371135,24.9854915 L14.9371135,24.9854915 C13.867735,25.7681356 12.4223112,26.1022373 11.3326348,26.1022373 L11.3326348,26.1022373 C9.36908064,26.1022373 6.25442219,25.0207458 6.25442219,22.1749153 L6.25442219,22.1749153 Z M11.4838007,11.2775593 L11.4944838,6.73518644 C11.5254648,6.72433898 11.5543092,6.71132203 11.5810169,6.69450847 L11.5810169,6.69450847 L13.6043965,9.11294915 C13.5584592,9.18833898 13.5317514,9.27783051 13.5317514,9.37328814 L13.5317514,9.37328814 C13.5317514,9.44216949 13.5456394,9.50779661 13.5707447,9.56691525 L13.5707447,9.56691525 L11.5842219,11.3242034 C11.5527067,11.304678 11.519055,11.2894915 11.4838007,11.2775593 L11.4838007,11.2775593 Z M18.9064201,8.70725424 C18.9096251,8.68664407 18.9112275,8.6660339 18.9117617,8.64488136 L18.9117617,8.64488136 L22.1647663,7.66861017 C22.2251258,7.75864407 22.3143297,7.82698305 22.41849,7.86115254 L22.41849,7.86115254 L22.4174217,10.9402034 C22.3410375,10.9656949 22.2715973,11.0096271 22.2165794,11.0671186 L22.2165794,11.0671186 L18.9064201,8.70725424 Z M18.7686081,8.98277966 L22.0835747,11.3458983 C22.0803698,11.3675932 22.0793015,11.3898305 22.0793015,11.4126102 L22.0793015,11.4126102 C22.0793015,11.6328136 22.2213867,11.8204746 22.4174217,11.8844746 L22.4174217,11.8844746 L22.4163534,16.1176949 L21.5932203,14.0968136 C21.6765485,14.0084068 21.7278274,13.888 21.7278274,13.7551186 L21.7278274,13.7551186 C21.7278274,13.4812203 21.509358,13.2593898 21.2401438,13.2593898 L21.2401438,13.2593898 C21.1958089,13.2593898 21.1541448,13.2653559 21.1130149,13.2762034 L21.1130149,13.2762034 L20.0991885,11.688678 C20.1718336,11.6018983 20.2161685,11.4901695 20.2161685,11.3670508 L20.2161685,11.3670508 C20.2161685,11.0936949 19.9971649,10.871322 19.7279507,10.871322 L19.7279507,10.871322 C19.484376,10.871322 19.2835336,11.0519322 19.2456086,11.2878644 L19.2456086,11.2878644 L16.8344325,11.5525424 C16.8237494,11.5270508 16.8103955,11.5026441 16.7954391,11.479322 L16.7954391,11.479322 L18.3866872,9.1259661 C18.3984386,9.12705085 18.4107242,9.12759322 18.4240781,9.12759322 L18.4240781,9.12759322 C18.558151,9.12759322 18.6799384,9.07227119 18.7686081,8.98277966 L18.7686081,8.98277966 Z M11.7813251,11.5530847 L13.7683821,9.7979661 C13.8426297,9.84298305 13.9286287,9.86901695 14.0205033,9.86901695 L14.0205033,9.86901695 C14.1006266,9.86901695 14.1764766,9.84894915 14.2437802,9.81369492 L14.2437802,9.81369492 L15.9482691,11.5313898 C15.937586,11.552 15.9285054,11.5736949 15.9215614,11.5964746 L15.9215614,11.5964746 L11.7968156,11.5964746 C11.7925424,11.5818305 11.7872008,11.5671864 11.7813251,11.5530847 L11.7813251,11.5530847 Z M16.5929944,14.2801356 L16.5935285,12.1979661 C16.7286697,12.1339661 16.8296251,12.0081356 16.8627427,11.8562712 L16.8627427,11.8562712 L19.2910118,11.5899661 C19.3198562,11.648 19.3593837,11.6995254 19.4074576,11.7412881 L19.4074576,11.7412881 L18.8156138,13.2610169 C18.8038624,13.2599322 18.7905085,13.2593898 18.7776888,13.2593898 L18.7776888,13.2593898 C18.5084746,13.2593898 18.2900051,13.4812203 18.2900051,13.7551186 L18.2900051,13.7551186 C18.2900051,13.7692203 18.2905393,13.783322 18.2910734,13.7974237 L18.2910734,13.7974237 L16.7986441,14.4244068 C16.7436261,14.3604068 16.6731176,14.3099661 16.5929944,14.2801356 L16.5929944,14.2801356 Z M19.842794,11.8492203 L20.8608937,13.4427119 C20.8251053,13.4866441 20.7973292,13.5365424 20.7786338,13.591322 L20.7786338,13.591322 C20.2669132,13.5842712 19.7546584,13.595661 19.2429379,13.6016271 L19.2429379,13.6016271 C19.2140935,13.5132203 19.1617463,13.435661 19.0933744,13.3770847 L19.0933744,13.3770847 L19.6846841,11.8606102 C19.6985722,11.8616949 19.7135285,11.8627797 19.7279507,11.8627797 L19.7279507,11.8627797 C19.766944,11.8627797 19.8054032,11.8584407 19.842794,11.8492203 L19.842794,11.8492203 Z M19.1430508,14.084339 C19.1868516,14.0344407 19.2205033,13.975322 19.2424037,13.9107797 L19.2424037,13.9107797 L20.7754289,13.9086102 C20.8389933,14.1065763 21.0227427,14.2508475 21.2401438,14.2508475 L21.2401438,14.2508475 C21.2689882,14.2508475 21.2983667,14.2481356 21.3261428,14.2427119 L21.3261428,14.2427119 L22.2502311,16.5103729 C22.1460709,16.6009492 22.0793015,16.7365424 22.0793015,16.887322 L22.0793015,16.887322 C22.0793015,17.0104407 22.1225681,17.1227119 22.1962815,17.2089492 L22.1962815,17.2089492 L21.3079815,18.6749831 C21.2903544,18.6706441 21.2732614,18.6679322 21.2556343,18.6657627 L21.2556343,18.6657627 L20.3043041,16.2191186 C20.4106009,16.1274576 20.4784386,15.9918644 20.4784386,15.8394576 L20.4784386,15.8394576 C20.4784386,15.5655593 20.2599692,15.3437288 19.9902209,15.3437288 L19.9902209,15.3437288 C19.9538983,15.3437288 19.9181099,15.3475254 19.8828557,15.355661 L19.8828557,15.355661 L19.1430508,14.084339 Z M16.801849,15.0644068 C16.8723575,14.9781695 16.915624,14.8675254 16.915624,14.7465763 L16.915624,14.7465763 C16.915624,14.7335593 16.9150899,14.7205424 16.9140216,14.7069831 L16.9140216,14.7069831 L18.4085876,14.0789153 C18.4977915,14.1841356 18.6307961,14.2508475 18.7776888,14.2508475 L18.7776888,14.2508475 C18.8145455,14.2508475 18.8492655,14.2470508 18.8829173,14.2394576 L18.8829173,14.2394576 L19.6237904,15.511322 C19.5484746,15.5991864 19.5020031,15.7130847 19.5020031,15.8394576 L19.5020031,15.8394576 C19.5020031,15.8654915 19.5041397,15.8909831 19.5073446,15.9159322 L19.5073446,15.9159322 L18.1473857,16.6150508 C18.0597843,16.5244746 17.9363945,16.4686102 17.8012532,16.4686102 L17.8012532,16.4686102 C17.7601233,16.4686102 17.7195275,16.4740339 17.6810683,16.4837966 L17.6810683,16.4837966 L16.801849,15.0644068 Z M18.2900051,16.964339 C18.2900051,16.9377627 18.2873344,16.9128136 18.2841294,16.8878644 L18.2841294,16.8878644 L19.6435542,16.1887458 C19.6686595,16.2142373 19.6959014,16.2370169 19.7263482,16.2565424 L19.7263482,16.2565424 L19.4015819,17.4492203 C19.1553364,17.4595254 18.9555624,17.6558644 18.9357987,17.9031864 L18.9357987,17.9031864 L16.8066564,18.4108475 C16.8013148,18.4 16.7954391,18.3902373 16.7890293,18.3810169 L16.7890293,18.3810169 C17.0673241,18.0631864 17.3472214,17.7475254 17.6185722,17.4242712 L17.6185722,17.4242712 C17.6751926,17.4475932 17.7371546,17.4600678 17.8012532,17.4600678 L17.8012532,17.4600678 C18.0704674,17.4600678 18.2900051,17.2382373 18.2900051,16.964339 L18.2900051,16.964339 Z M19.9106317,17.9449492 C19.9106317,17.7719322 19.8235645,17.6200678 19.691094,17.5305763 L19.691094,17.5305763 L20.0174628,16.3346441 C20.0201335,16.3346441 20.0222702,16.3341017 20.0244068,16.3341017 L20.0244068,16.3341017 L20.9538367,18.724339 C20.8048074,18.8094915 20.7038521,18.971661 20.7038521,19.1582373 L20.7038521,19.1582373 C20.7038521,19.2797288 20.7476528,19.392 20.8202979,19.4782373 L20.8202979,19.4782373 L20.1205547,20.6221017 C20.0788906,20.6101695 20.035624,20.6042034 19.9902209,20.6042034 L19.9902209,20.6042034 C19.8449307,20.6042034 19.7145968,20.6682034 19.6253929,20.7707119 L19.6253929,20.7707119 L18.5325116,20.2212881 C18.5362506,20.1985085 18.537319,20.1735593 18.537319,20.1491525 L18.537319,20.1491525 C18.537319,20.0282034 18.4956549,19.9186441 18.4251464,19.8324068 L18.4251464,19.8324068 L19.3011608,18.4249492 C19.3401541,18.4357966 19.3807499,18.440678 19.422414,18.440678 L19.422414,18.440678 C19.6921623,18.440678 19.9106317,18.2183051 19.9106317,17.9449492 L19.9106317,17.9449492 Z M16.83283,18.8626441 C16.853662,18.8149153 16.8675501,18.7633898 16.8723575,18.7096949 L16.8723575,18.7096949 L19.0047047,18.2014915 C19.0169902,18.2221017 19.0314124,18.2427119 19.0474371,18.2616949 L19.0474371,18.2616949 L18.1703544,19.6686102 C18.1318952,19.6588475 18.0912994,19.6534237 18.0496353,19.6534237 L18.0496353,19.6534237 C17.9582948,19.6534237 17.87283,19.6789153 17.7996507,19.7233898 L17.7996507,19.7233898 L16.83283,18.8626441 Z M16.560945,21.0359322 L16.560945,19.1240678 C16.5855162,19.1153898 16.609019,19.104 16.6309194,19.0904407 L16.6309194,19.0904407 L17.600945,19.9533559 C17.5747714,20.0130169 17.5608834,20.0797288 17.5608834,20.1491525 L17.5608834,20.1491525 C17.5608834,20.2207458 17.5758398,20.288 17.6030817,20.3492881 L17.6030817,20.3492881 L16.7452286,21.1281356 C16.691813,21.0852881 16.6293169,21.0527458 16.560945,21.0359322 L16.560945,21.0359322 Z M20.4779045,21.0668475 C20.4704263,20.9621695 20.4319671,20.8667119 20.3716076,20.7902373 L20.3716076,20.7902373 L21.0750899,19.6387797 C21.1130149,19.648 21.1520082,19.6534237 21.192604,19.6534237 L21.192604,19.6534237 C21.2289266,19.6534237 21.2652491,19.6485424 21.2999692,19.6414915 L21.2999692,19.6414915 L22.1503441,21.1015593 C22.0771649,21.1574237 22.0194761,21.2328136 21.9863585,21.3212203 L21.9863585,21.3212203 L20.4779045,21.0668475 Z M18.7857011,22.5616271 C18.7808937,22.3256949 18.6137031,22.1293559 18.3925629,22.0848814 L18.3925629,22.0848814 L18.2462044,20.603661 C18.3038932,20.5776271 18.3551721,20.5407458 18.3984386,20.4962712 L18.3984386,20.4962712 L19.5046739,21.0511186 C19.5025372,21.0668475 19.5020031,21.083661 19.5020031,21.1004746 L19.5020031,21.1004746 C19.5020031,21.3743729 19.7204725,21.5951186 19.9902209,21.5951186 L19.9902209,21.5951186 C20.1643554,21.5951186 20.3171238,21.5029153 20.4031228,21.3646102 L20.4031228,21.3646102 L21.970868,21.6282034 C21.9858243,21.6818983 22.0077247,21.7312542 22.0376374,21.7757288 L22.0376374,21.7757288 L20.7877144,22.8539661 C20.7038521,22.784 20.5959527,22.7416949 20.4784386,22.7416949 L20.4784386,22.7416949 C20.3117822,22.7416949 20.1654237,22.8263051 20.0762198,22.9564746 L20.0762198,22.9564746 L18.7857011,22.5616271 Z M16.6907447,21.9438644 C16.8344325,21.8576271 16.9305804,21.6987119 16.9305804,21.5170169 L16.9305804,21.5170169 C16.9305804,21.4709153 16.9252388,21.4269831 16.9134874,21.384678 L16.9134874,21.384678 L17.803924,20.5776271 C17.8471905,20.603661 17.8952645,20.6226441 17.9460092,20.6340339 L17.9460092,20.6340339 L18.0939702,22.1201356 C17.9257114,22.1987797 17.8081972,22.3712542 17.8081972,22.5708475 L17.8081972,22.5708475 C17.8081972,22.8447458 18.0272008,23.067661 18.2969492,23.067661 L18.2969492,23.067661 C18.4630714,23.067661 18.6088957,22.9830508 18.6970313,22.8545085 L18.6970313,22.8545085 L19.9902209,23.2493559 C19.9928916,23.3681356 20.0366923,23.4771525 20.1088033,23.5612203 L20.1088033,23.5612203 L19.3481664,24.8341695 C19.3209245,24.8303729 19.2942167,24.8271186 19.2664407,24.8271186 L19.2664407,24.8271186 C19.1334361,24.8271186 19.0137853,24.8813559 18.9251156,24.968678 L18.9251156,24.968678 L17.7996507,24.3265085 C17.8049923,24.2950508 17.8081972,24.2619661 17.8081972,24.2294237 L17.8081972,24.2294237 C17.8081972,23.9560678 17.5897278,23.7336949 17.3199795,23.7336949 L17.3199795,23.7336949 L17.3098305,23.7336949 L16.6907447,21.9438644 Z M20.923924,23.4418983 C20.9517001,23.3795254 20.9671905,23.3106441 20.9671905,23.2374237 L20.9671905,23.2374237 C20.9671905,23.1951186 20.961849,23.1528136 20.9517001,23.1143051 L20.9517001,23.1143051 L22.2817463,21.9671864 C22.332491,21.9850847 22.3864407,21.9943051 22.442527,21.9943051 L22.442527,21.9943051 L22.4510734,21.9943051 C22.4350488,22.7232542 22.339435,23.4538305 22.1492758,24.1572881 L22.1492758,24.1572881 C22.0995994,24.1393898 22.046718,24.1301695 21.9917001,24.1301695 L21.9917001,24.1301695 C21.9008937,24.1301695 21.8154289,24.1551186 21.7422496,24.1995932 L21.7422496,24.1995932 L20.923924,23.4418983 Z M16.516076,22.5703051 C16.52302,22.5225763 16.5304982,22.472678 16.5363739,22.4206102 L16.5363739,22.4206102 L17.02566,23.8345763 C16.9300462,23.908339 16.8622085,24.0162712 16.839774,24.1410169 L16.839774,24.1410169 L15.7586441,24.3427797 C16.1816949,23.8465085 16.4156549,23.2119322 16.516076,22.5703051 L16.516076,22.5703051 Z M20.7188084,23.6686102 L21.540339,24.4376949 C21.516302,24.4957288 21.5029481,24.5591864 21.5029481,24.6258983 L21.5029481,24.6258983 C21.5029481,24.6508475 21.5050847,24.6752542 21.5082897,24.6991186 L21.5082897,24.6991186 L19.691094,25.0787797 C19.6702619,25.0413559 19.6446225,25.0061017 19.6157781,24.9762712 L19.6157781,24.9762712 L20.3668002,23.7195932 C20.4020544,23.7288136 20.4399795,23.7326102 20.4784386,23.7326102 L20.4784386,23.7326102 C20.5655059,23.7326102 20.6477658,23.7098305 20.7188084,23.6686102 L20.7188084,23.6686102 Z M17.5822496,25.911322 L17.5026605,24.6893559 C17.5587468,24.6660339 17.6089574,24.6334915 17.6522239,24.5928136 L17.6522239,24.5928136 L18.7851669,25.239322 C18.7808937,25.2664407 18.7776888,25.2946441 18.7776888,25.3233898 L18.7776888,25.3233898 C18.7776888,25.367322 18.7840986,25.4107119 18.7947817,25.4508475 L18.7947817,25.4508475 L17.8429173,26.0751186 C17.7761479,25.9948475 17.6853416,25.9368136 17.5822496,25.911322 L17.5822496,25.911322 Z M19.7140627,25.5208136 C19.7332922,25.4757966 19.7466461,25.4286102 19.7519877,25.3781695 L19.7519877,25.3781695 L21.6514432,24.9816949 C21.7016538,25.0310508 21.7625475,25.0701017 21.8298511,25.0939661 L21.8298511,25.0939661 C21.6861633,25.5381695 21.4489985,25.952 21.1653621,26.3322034 L21.1653621,26.3322034 C21.1044684,26.3050847 21.0371649,26.2898983 20.9671905,26.2898983 L20.9671905,26.2898983 C20.8769183,26.2898983 20.7919877,26.3148475 20.7193426,26.3582373 L20.7193426,26.3582373 L19.7140627,25.5208136 Z" id="Fill-14" fill="url(#linearGradient-3)" mask="url(#mask-2)"></path>
                        </g>
                    </g>
                </g>
            </g>
        </g>
    </g>
</svg>