<?xml version="1.0" encoding="UTF-8"?>
<svg width="275px" height="30px" viewBox="0 0 275 30" version="1.1" xmlns="http://www.w3.org/2000/svg" xmlns:xlink="http://www.w3.org/1999/xlink">
    <!-- Generator: sketchtool 60.1 (101010) - https://sketch.com -->
    <title>570C3963-D175-4C15-9C23-BBDB72EF620D</title>
    <desc>Created with sketchtool.</desc>
    <g id="End-User" stroke="none" stroke-width="1" fill="none" fill-rule="evenodd">
        <g id="6.welcome_27Nov" transform="translate(-326.000000, -256.000000)" fill="#FFFFFF">
            <g id="Group" transform="translate(253.000000, 80.000000)">
                <g id="welcome" transform="translate(0.000000, 131.500000)">
                    <g id="logo" transform="translate(0.000000, 25.000000)">
                        <path d="M294.286536,20.2036354 L294.286536,36.6609616 C294.286536,43.3836076 297.973365,47.2525638 304.10072,47.2525638 C309.981892,47.2525638 313.750388,43.7491966 313.750388,36.8647134 L313.750388,20.2036354 L315.903306,20.2036354 L315.903306,36.6202112 C315.903306,44.8075418 311.05776,49.1666667 304.01787,49.1666667 C297.06083,49.1666667 292.133617,44.8482922 292.133617,36.8647134 L292.133617,20.2036354 L294.286536,20.2036354 Z M108.279222,20.2037518 L108.279222,48.7196934 L103.186309,48.7196934 L103.186309,20.2037518 L108.279222,20.2037518 Z M120.743544,20.203519 L136.272017,39.9197101 L136.272017,20.203519 L141.283263,20.203519 L141.283263,48.7194605 L137.017667,48.7194605 L121.032336,28.4327642 L121.032336,48.7194605 L116.022273,48.7194605 L116.022273,20.203519 L120.743544,20.203519 Z M163.725694,20 L176.479872,48.7196934 L171.096984,48.7196934 L168.15699,41.8340459 L154.450035,41.8340459 L151.467432,48.7196934 L146.250244,48.7196934 L159.004423,20 L163.725694,20 Z M260.996544,20.203519 L260.996544,22.1595365 L242.732835,22.1595365 L242.732835,33.8513986 L259.132417,33.8513986 L259.132417,35.8050875 L242.732835,35.8050875 L242.732835,48.7194605 L240.579916,48.7194605 L240.579916,20.203519 L260.996544,20.203519 Z M269.897247,20.203519 L269.897247,46.763443 L286.917021,46.763443 L286.917021,48.7194605 L267.744328,48.7194605 L267.744328,20.203519 L269.897247,20.203519 Z M324.472845,20.203519 L334.36988,32.7499744 L344.225489,20.203519 L346.752416,20.203519 L335.654056,34.1366511 L347.166667,48.7194605 L344.599498,48.7194605 L334.287029,35.5617496 L324.01717,48.7194605 L321.490242,48.7194605 L333.045462,34.1762372 L321.905676,20.203519 L324.472845,20.203519 Z M86.0027288,20.2037518 C89.3167321,20.2037518 91.9253261,21.1002599 93.5811442,22.7302745 C94.8653205,23.9923715 95.5281212,25.5408854 95.5281212,27.536489 C95.5281212,30.9583555 93.5397192,32.7909576 91.3868006,33.8923818 C94.7824704,35.0322277 97.1425142,36.9463306 97.1425142,40.8979518 C97.1425142,45.9905832 92.8769185,48.7185291 86.4169792,48.7185291 L73,48.7185291 L73,20.2037518 L86.0027288,20.2037518 Z M194.366968,20.2030533 C201.158308,20.2030533 205.133929,23.7879211 205.133929,29.2880562 C205.133929,33.9731839 202.276784,36.7826306 198.218314,37.9248051 L206.045279,48.7189948 L200.039832,48.7189948 L192.835425,38.7793985 L186.540003,38.7793985 L186.540003,48.7189948 L181.445906,48.7189948 L181.445906,20.2030533 L194.366968,20.2030533 Z M213.414794,20.2041011 L221.530552,32.8320573 L229.730343,20.2041011 L235.568907,20.2041011 L224.057479,37.3541835 L224.057479,48.7188784 L218.921958,48.7188784 L218.921958,37.4752703 L207.409347,20.2041011 L213.414794,20.2041011 Z M86.0855788,36.4573262 L78.0100629,36.4573262 L78.0100629,44.2790678 L86.4584042,44.2790678 C89.9369241,44.2790678 92.0496013,42.9343058 92.0496013,40.2866963 C92.0496013,37.883589 90.1026243,36.4573262 86.0855788,36.4573262 Z M161.2828,25.9891394 L156.312978,37.3945846 L166.292863,37.3945846 L161.2828,25.9891394 Z M193.952718,24.7659299 L186.540003,24.7659299 L186.540003,34.3399372 L193.994143,34.3399372 C197.638363,34.3399372 199.956982,32.4665847 199.956982,29.491808 C199.956982,26.4366949 197.721213,24.7659299 193.952718,24.7659299 Z M85.3411117,24.6443774 L78.0100629,24.6443774 L78.0100629,32.2216168 L84.9682863,32.2216168 C88.239681,32.2216168 90.4340246,30.9583555 90.4340246,28.2699956 C90.4340246,26.0298898 88.6113228,24.6443774 85.3411117,24.6443774 Z" id="Combined-Shape"></path>
                    </g>
                </g>
            </g>
        </g>
    </g>
</svg>