<?xml version="1.0" encoding="UTF-8"?>
<svg width="9px" height="10px" viewBox="0 0 9 10" version="1.1" xmlns="http://www.w3.org/2000/svg" xmlns:xlink="http://www.w3.org/1999/xlink">
    <!-- Generator: sketchtool 63.1 (101010) - https://sketch.com -->
    <title>650A3FED-E6B2-45B6-B0B2-6456A2A1B2C7@3x</title>
    <desc>Created with sketchtool.</desc>
    <g id="Page-2" stroke="none" stroke-width="1" fill="none" fill-rule="evenodd" opacity="0.800000012">
        <g id="4.data_source-30-oct" transform="translate(-378.000000, -235.000000)" fill="#1391FF" fill-rule="nonzero">
            <g id="action" transform="translate(329.000000, 233.000000)">
                <g id="Group-4">
                    <g id="ic-copy" transform="translate(48.000000, 1.000000)">
                        <g id="content_copy-24px">
                            <path d="M7.63157895,1 L1.94736842,1 C1.42631579,1 1,1.40909091 1,1.90909091 L1,8.27272727 L1.94736842,8.27272727 L1.94736842,1.90909091 L7.63157895,1.90909091 L7.63157895,1 Z M9.05263158,2.81818182 L3.84210526,2.81818182 C3.32105263,2.81818182 2.89473684,3.22727273 2.89473684,3.72727273 L2.89473684,10.0909091 C2.89473684,10.5909091 3.32105263,11 3.84210526,11 L9.05263158,11 C9.57368421,11 10,10.5909091 10,10.0909091 L10,3.72727273 C10,3.22727273 9.57368421,2.81818182 9.05263158,2.81818182 Z M9.05263158,10.0909091 L3.84210526,10.0909091 L3.84210526,3.72727273 L9.05263158,3.72727273 L9.05263158,10.0909091 Z" id="Shape"></path>
                        </g>
                    </g>
                </g>
            </g>
        </g>
    </g>
</svg>