<?xml version="1.0" encoding="UTF-8"?>
<svg width="14px" height="14px" viewBox="0 0 14 14" version="1.1" xmlns="http://www.w3.org/2000/svg" xmlns:xlink="http://www.w3.org/1999/xlink">
    <!-- Generator: sketchtool 63.1 (101010) - https://sketch.com -->
    <title>AA4A9383-CD8D-4A12-B82F-BD12926CFFF9</title>
    <desc>Created with sketchtool.</desc>
    <g id="Page-1" stroke="none" stroke-width="1" fill="none" fill-rule="evenodd" opacity="0.5">
        <g id="Landing-Revised" transform="translate(-730.000000, -984.000000)" fill="#FFFFFF">
            <g id="footer-address" transform="translate(0.000000, 960.000000)">
                <g id="logo-&amp;-address" transform="translate(100.000000, 18.000000)">
                    <g id="address" transform="translate(140.666667, 0.000000)">
                        <g id="ic-phone" transform="translate(488.333333, 5.000000)">
                            <path d="M4.18055556,7.07638889 C5.18055556,9.04166667 6.79166667,10.6458333 8.75694444,11.6527778 L10.2847222,10.125 C10.4722222,9.9375 10.75,9.875 10.9930556,9.95833333 C11.7708333,10.2152778 12.6111111,10.3541667 13.4722222,10.3541667 C13.8541667,10.3541667 14.1666667,10.6666667 14.1666667,11.0486111 L14.1666667,13.4722222 C14.1666667,13.8541667 13.8541667,14.1666667 13.4722222,14.1666667 C6.95138889,14.1666667 1.66666667,8.88194444 1.66666667,2.36111111 C1.66666667,1.97916667 1.97916667,1.66666667 2.36111111,1.66666667 L4.79166667,1.66666667 C5.17361111,1.66666667 5.48611111,1.97916667 5.48611111,2.36111111 C5.48611111,3.22916667 5.625,4.0625 5.88194444,4.84027778 C5.95833333,5.08333333 5.90277778,5.35416667 5.70833333,5.54861111 L4.18055556,7.07638889 L4.18055556,7.07638889 Z" id="Icon"></path>
                        </g>
                    </g>
                </g>
            </g>
        </g>
    </g>
</svg>