<?xml version="1.0" encoding="UTF-8"?>
<svg width="73px" height="14px" viewBox="0 0 73 14" version="1.1" xmlns="http://www.w3.org/2000/svg" xmlns:xlink="http://www.w3.org/1999/xlink">
    <!-- Generator: sketchtool 63.1 (101010) - https://sketch.com -->
    <title>26BBC539-DE3D-46B7-8239-6A1906518A00</title>
    <desc>Created with sketchtool.</desc>
    <g id="Page-2" stroke="none" stroke-width="1" fill="none" fill-rule="evenodd">
        <g id="7_End-User_Swagger" transform="translate(-814.000000, -200.000000)">
            <g id="stat" transform="translate(350.000000, 161.500000)">
                <g id="stat-3" transform="translate(454.000000, 10.000000)">
                    <g id="Group-5" transform="translate(0.000000, 21.500000)">
                        <g id="no1" transform="translate(10.000000, 4.000000)">
                            <g id="logo_aws-[Converted]" transform="translate(0.000000, 5.000000)" fill-rule="nonzero">
                                <path d="M5.83962738,4.48870704 C5.83962738,4.74304419 5.86640263,4.9492635 5.91325933,5.100491 C5.96680984,5.25171849 6.03374798,5.41669394 6.12746137,5.59541735 C6.16093044,5.65040917 6.17431807,5.70540098 6.17431807,5.75351882 C6.17431807,5.82225859 6.13415518,5.89099836 6.04713561,5.95973813 L5.62542534,6.24844517 C5.56518101,6.28968903 5.50493669,6.31031097 5.45138618,6.31031097 C5.38444804,6.31031097 5.3175099,6.27594108 5.25057176,6.21407529 C5.15685837,6.11096563 5.0765326,6.000982 5.00959447,5.89099836 C4.94265633,5.77414075 4.87571819,5.64353519 4.80208624,5.48543372 C4.27996876,6.11783961 3.62397501,6.43404255 2.83410498,6.43404255 C2.27182462,6.43404255 1.8233391,6.2690671 1.49534222,5.9391162 C1.16734535,5.6091653 1,5.16923077 1,4.6193126 C1,4.03502455 1.20081441,3.56072013 1.60913706,3.20327332 C2.0174597,2.84582651 2.55965862,2.66710311 3.24912144,2.66710311 C3.47671111,2.66710311 3.71099459,2.68772504 3.9586657,2.72209493 C4.20633681,2.75646481 4.46070173,2.81145663 4.72845429,2.87332242 L4.72845429,2.37152209 C4.72845429,1.84909984 4.62135327,1.48477905 4.41384504,1.27168576 C4.199643,1.05859247 3.83817705,0.955482815 3.32275339,0.955482815 C3.08846991,0.955482815 2.84749261,0.982978723 2.5998215,1.04484452 C2.35215039,1.10671031 2.11117309,1.18232406 1.87688961,1.27855974 C1.76978859,1.32667758 1.68946282,1.35417349 1.64260612,1.36792144 C1.59574943,1.38166939 1.56228036,1.38854337 1.5355051,1.38854337 C1.44179171,1.38854337 1.39493501,1.3198036 1.39493501,1.17545008 L1.39493501,0.838625205 C1.39493501,0.728641571 1.40832264,0.646153846 1.44179171,0.598036007 C1.47526078,0.549918167 1.5355051,0.501800327 1.6292185,0.453682488 C1.86350198,0.3299509 2.14464216,0.226841244 2.47263904,0.144353519 C2.80063591,0.0549918167 3.14871423,0.0137479542 3.51687399,0.0137479542 C4.31343783,0.0137479542 4.89579963,0.199345336 5.2706532,0.570540098 C5.63881296,0.941734861 5.82623975,1.50540098 5.82623975,2.26153846 L5.82623975,4.48870704 L5.83962738,4.48870704 L5.83962738,4.48870704 Z M3.12193897,5.53355155 C3.34283483,5.53355155 3.5704245,5.49230769 3.8114018,5.40981997 C4.05237909,5.32733224 4.26658113,5.17610475 4.44731411,4.96988543 C4.55441513,4.83927987 4.63474089,4.69492635 4.67490378,4.5299509 C4.71506666,4.36497545 4.74184191,4.16563011 4.74184191,3.93191489 L4.74184191,3.64320786 C4.54772131,3.59509002 4.34021309,3.55384615 4.12601104,3.52635025 C3.911809,3.49885434 3.70430078,3.48510638 3.49679255,3.48510638 C3.04830702,3.48510638 2.72031015,3.57446809 2.49941429,3.76006547 C2.27851844,3.94566285 2.17141742,4.20687398 2.17141742,4.55057283 C2.17141742,4.87364975 2.25174318,5.11423895 2.41908853,5.2792144 C2.57974006,5.45106383 2.81402354,5.53355155 3.12193897,5.53355155 Z M8.49707146,6.27594108 C8.37658281,6.27594108 8.29625704,6.25531915 8.24270653,6.20720131 C8.18915602,6.16595745 8.14229933,6.06972177 8.10213644,5.9391162 L6.5290902,0.625531915 C6.48892732,0.488052373 6.46884587,0.398690671 6.46884587,0.350572831 C6.46884587,0.240589198 6.52239639,0.178723404 6.62949741,0.178723404 L7.28549116,0.178723404 C7.41267362,0.178723404 7.4996932,0.199345336 7.5465499,0.247463175 C7.60010041,0.288707038 7.64026329,0.384942717 7.68042617,0.515548282 L8.80498689,5.06612111 L9.84922184,0.515548282 C9.88269091,0.37806874 9.9228538,0.288707038 9.97640431,0.247463175 C10.0299548,0.206219313 10.1236682,0.178723404 10.2441569,0.178723404 L10.779662,0.178723404 C10.9068444,0.178723404 10.993864,0.199345336 11.0474145,0.247463175 C11.100965,0.288707038 11.1478217,0.384942717 11.174597,0.515548282 L12.2322196,5.12111293 L13.3902493,0.515548282 C13.4304122,0.37806874 13.4772689,0.288707038 13.5241256,0.247463175 C13.5776761,0.206219313 13.6646957,0.178723404 13.7851844,0.178723404 L14.407709,0.178723404 C14.5148101,0.178723404 14.5750544,0.233715221 14.5750544,0.350572831 C14.5750544,0.384942717 14.5683606,0.419312602 14.5616668,0.460556465 C14.5549729,0.501800327 14.5415853,0.556792144 14.5148101,0.632405892 L12.9016009,5.94599018 C12.8614381,6.08346972 12.8145814,6.17283142 12.7610308,6.21407529 C12.7074803,6.25531915 12.6204608,6.28281506 12.5066659,6.28281506 L11.9309979,6.28281506 C11.8038155,6.28281506 11.7167959,6.26219313 11.6632454,6.21407529 C11.6096949,6.16595745 11.5628382,6.07659574 11.5360629,5.9391162 L10.4985218,1.50540098 L9.46767446,5.93224223 C9.43420539,6.06972177 9.39404251,6.15908347 9.340492,6.20720131 C9.28694148,6.25531915 9.19322809,6.27594108 9.07273944,6.27594108 L8.49707146,6.27594108 Z M17.0986222,6.46153846 C16.7505439,6.46153846 16.4024656,6.4202946 16.0677749,6.33780687 C15.7330842,6.25531915 15.4720254,6.16595745 15.2979863,6.06284779 C15.1908853,6.000982 15.1172533,5.93224223 15.090478,5.87037643 C15.0637028,5.80851064 15.0503152,5.73977087 15.0503152,5.67790507 L15.0503152,5.32733224 C15.0503152,5.18297872 15.1038657,5.11423895 15.2042729,5.11423895 C15.2444358,5.11423895 15.2845987,5.12111293 15.3247615,5.13486088 C15.3649244,5.14860884 15.4251687,5.17610475 15.4921069,5.20360065 C15.7196965,5.30671031 15.9673677,5.38919804 16.2284264,5.44418985 C16.4961789,5.49918167 16.7572377,5.52667758 17.0249902,5.52667758 C17.4467005,5.52667758 17.7746974,5.45106383 18.0022871,5.29983633 C18.2298767,5.14860884 18.3503654,4.92864157 18.3503654,4.64680851 C18.3503654,4.45433715 18.290121,4.29623568 18.1696324,4.16563011 C18.0491437,4.03502455 17.8215541,3.91816694 17.4935572,3.80818331 L16.5229542,3.49885434 C16.0343058,3.34075286 15.6728399,3.10703764 15.451944,2.79770867 C15.2310481,2.49525368 15.1172533,2.15842881 15.1172533,1.800982 C15.1172533,1.51227496 15.1774976,1.25793781 15.2979863,1.03797054 C15.4184749,0.818003273 15.5791265,0.625531915 15.7799409,0.474304419 C15.9807553,0.316202946 16.208345,0.199345336 16.4760975,0.11685761 C16.7438501,0.0343698854 17.0249902,0 17.319518,0 C17.4667819,0 17.6207397,0.00687397709 17.7680036,0.0274959083 C17.9219613,0.0481178396 18.0625314,0.075613748 18.2031015,0.103109656 C18.3369777,0.137479542 18.4641602,0.171849427 18.5846489,0.21309329 C18.7051375,0.254337152 18.7988509,0.295581015 18.865789,0.336824877 C18.9595024,0.391816694 19.0264406,0.446808511 19.0666034,0.508674304 C19.1067663,0.563666121 19.1268478,0.639279869 19.1268478,0.735515548 L19.1268478,1.05859247 C19.1268478,1.20294599 19.0732973,1.27855974 18.9728901,1.27855974 C18.9193395,1.27855974 18.83232,1.25106383 18.7185251,1.19607201 C18.3369777,1.01734861 17.9085737,0.927986907 17.4333129,0.927986907 C17.0517655,0.927986907 16.7505439,0.9898527 16.5430356,1.12045827 C16.3355274,1.25106383 16.2284264,1.45040917 16.2284264,1.73224223 C16.2284264,1.92471358 16.2953645,2.08968903 16.4292408,2.2202946 C16.5631171,2.35090016 16.8107882,2.48150573 17.1655603,2.59836334 L18.1160819,2.90769231 C18.5980365,3.06579378 18.9461148,3.28576105 19.153623,3.56759411 C19.3611313,3.84942717 19.4615385,4.17250409 19.4615385,4.5299509 C19.4615385,4.82553191 19.4012941,5.09361702 19.2874993,5.32733224 C19.1670107,5.56104746 19.0063591,5.76726678 18.7988509,5.93224223 C18.5913427,6.10409165 18.3436716,6.22782324 18.0558376,6.31718494 C17.7546159,6.41342062 17.4400067,6.46153846 17.0986222,6.46153846 Z" id="Shape" fill="#FFFFFF"></path>
                                <path d="M18.3598743,9.46421498 C16.1377671,11.1206552 12.9092954,12 10.13335,12 C6.24297398,12 2.7375831,10.5480586 0.0899660969,8.13497283 C-0.119411778,7.94410729 0.0697037219,7.68507549 0.319606347,7.83504127 C3.18335535,9.51193136 6.71576273,10.5276087 10.3697444,10.5276087 C12.835,10.5276087 15.5434041,10.0095451 18.0356763,8.94615137 C18.4071531,8.77573571 18.724597,9.19154992 18.3598743,9.46421498 Z M19.2851894,8.40082126 C19.0015161,8.03272343 17.4075426,8.22358897 16.6848513,8.31220511 C16.4687193,8.33947162 16.4349486,8.14860608 16.6308183,8.00545693 C17.9005938,7.10566224 19.9876184,7.36469404 20.2307669,7.66462561 C20.4739154,7.97137379 20.1632256,10.0777114 18.9744996,11.0865721 C18.7921383,11.2433545 18.616531,11.161555 18.6975805,10.9570562 C18.9677455,10.2822101 19.5688626,8.76210246 19.2851894,8.40082126 Z" id="Shape" fill="#FF9900"></path>
                            </g>
                            <text id="12" opacity="0.5" font-family="Avenir-Heavy, Avenir" font-size="18" font-weight="600" line-spacing="22" fill="#FFFFFF">
                                <tspan x="52" y="18">12</tspan>
                            </text>
                        </g>
                    </g>
                </g>
            </g>
        </g>
    </g>
</svg>