<?xml version="1.0" encoding="UTF-8"?>
<svg width="109px" height="12px" viewBox="0 0 109 12" version="1.1" xmlns="http://www.w3.org/2000/svg" xmlns:xlink="http://www.w3.org/1999/xlink">
    <!-- Generator: sketchtool 60.1 (101010) - https://sketch.com -->
    <title>BC4DA523-EED6-410C-9CC5-BA2F05E9C0C1</title>
    <desc>Created with sketchtool.</desc>
    <g id="End-User" stroke="none" stroke-width="1" fill="none" fill-rule="evenodd">
        <g id="5.data_source_27Nov" transform="translate(-465.000000, -496.000000)" fill="#FFFFFF" fill-rule="nonzero">
            <g id="datasource" transform="translate(100.000000, 226.000000)">
                <g id="datasource3" transform="translate(355.000000, 260.000000)">
                    <path d="M118,19 L116,19 L115,20.5 L116,22 L118,22 L119,20.5 L118,19 L118,19 Z M114,12.9627329 L111.642691,12.9627329 L109.990719,15.8136646 C109.786543,16.1118012 109.712297,16.2981366 109.24826,16.3167702 L108.116009,16.3167702 L108.116009,10 L106,10 L106,22 L108.116009,22 L108.116009,18.2546584 L109.044084,18.2546584 C109.489559,18.2732919 109.582367,18.4409938 109.74942,18.7204969 L111.62413,22 L114,22 L111.401392,17.4720497 L114,12.9627329 Z M104.980952,13.9947499 C104.638095,13.7460624 104.27619,13.5329017 103.87619,13.3730312 C103.266667,13.1243437 102.619048,13 101.952381,13 C101.095238,13 100.238095,13.2131607 99.4952381,13.6217187 C98.752381,14.0125133 98.1238095,14.5809418 97.6857143,15.273714 C97.247619,15.9487229 97,16.7125487 97,17.4941379 C97,18.2757271 97.2285714,19.0573163 97.6857143,19.7323251 C98.1238095,20.4250973 98.752381,20.9935258 99.4952381,21.3843204 C100.847619,22.1126195 102.485714,22.2014364 103.914286,21.6152445 C104.295238,21.455374 104.67619,21.2422133 105,20.9935258 L104.028571,19.4125841 C103.761905,19.6790349 103.457143,19.8921956 103.114286,20.0343027 C102.752381,20.1941733 102.352381,20.2829902 101.971429,20.2829902 C101.47619,20.2829902 101,20.1586465 100.580952,19.909959 C100.161905,19.6612715 99.8,19.3060037 99.5714286,18.8974457 C99.3238095,18.4711244 99.1904762,17.9915128 99.1904762,17.5119013 C99.1904762,17.0322897 99.3238095,16.5526782 99.5714286,16.1441202 C99.8,15.7355622 100.161905,15.3802944 100.580952,15.1316069 C101,14.8829194 101.47619,14.7585757 101.971429,14.7585757 C102.752381,14.7585757 103.495238,15.0783167 104.009524,15.6112184 L104.752381,14.4033079 L104.980952,13.9947499 Z M92.2690583,13 C91.1748879,13 90.0269058,13.3017751 88.8071749,13.9053254 L89.5964126,15.2721893 C90.3139013,14.9349112 91.0672646,14.6686391 91.8565022,14.6686391 C93.309417,14.6686391 93.8475336,15.4142012 93.9372197,16.3905325 L91.5515695,16.3905325 C89.5964126,16.3905325 88,17.5621302 88,19.2485207 C88,20.9171598 89.3991031,22 91.2466368,22 C92.2511211,22 93.2914798,21.6272189 93.9372197,20.8284024 L93.9372197,21.8047337 L96,21.8047337 L96,16.6390533 C96,14.4556213 94.5650224,13 92.2690583,13 L92.2690583,13 Z M94,19.1324503 C94,20.0463576 93.1598174,21 91.7351598,21 C90.7488584,21 90,20.4238411 90,19.5099338 C90,18.5960265 90.8401826,18 91.8812785,18 L94,18 L94,19.1324503 Z M84,10 L86,10 L86,22 L84,22 L84,10 Z M80.7536179,15.6556708 C81.885533,15.0585575 82.4703557,14.1628875 82.4703557,13.0059804 C82.4703557,12.4648464 82.3194337,11.9237125 82.0175897,11.4572177 C81.6968805,10.9907229 81.2629797,10.6175271 80.7536179,10.3749498 C80.2065257,10.1137127 79.6028377,9.98309415 78.9048234,10.0017539 L73,10.0017539 L73,22 L79.1312064,22 C79.8669512,21.9813402 80.5461002,21.8507217 81.1309229,21.5708248 C81.6968805,21.3095877 82.1685117,20.9177321 82.5080862,20.4139177 C82.8476607,19.9101033 83.017448,19.3316498 82.9985827,18.7345365 C82.9985827,18.1001035 82.791065,17.4843304 82.41376,16.9618562 C81.9987245,16.4207223 81.4516322,15.9915471 80.7536179,15.6556708 L80.7536179,15.6556708 Z M75,12 L78.1666667,12 C78.7037037,12 79.1296296,12.133758 79.4814815,12.4203822 C79.8148148,12.6687898 80,13.089172 80,13.5095541 C80,13.9299363 79.8333333,14.2929936 79.4814815,14.5796178 C79.1296296,14.866242 78.7037037,15 78.1666667,15 L75,15 L75,12 Z M79.4865897,19.5737705 C79.1492522,19.852459 78.7107133,20 78.1709732,20 L75,20 L75,17 L78.1709732,17 C78.7107133,17 79.1492522,17.147541 79.4865897,17.4262295 C80.0937974,17.9344262 80.1781318,18.8360656 79.6552585,19.4262295 C79.6215248,19.4590164 79.5540573,19.5245902 79.4865897,19.5737705 L79.4865897,19.5737705 Z M64.4603179,13.4354839 C63.9536263,13.1451613 63.3564541,13 62.777378,13 C62.2344941,13 61.6916102,13.1270161 61.2030148,13.3810484 C60.7506116,13.6169355 60.3524967,13.9616935 60.0629587,14.3790323 L60.0629587,13.1814516 L58,13.1814516 L58,21.9818548 L60.0629587,21.9818548 L60.0629587,16.4294355 C60.1353432,15.9576613 60.388689,15.5221774 60.7687077,15.25 C61.1668225,14.9233871 61.6735141,14.7600806 62.1802057,14.7782258 C62.7230896,14.7782258 63.1573967,14.9596774 63.5012231,15.3407258 C63.8450496,15.7217742 64.0260108,16.2116935 64.0079147,16.8104839 L64.0079147,22 L65.9984889,22 L65.9984889,16.4112903 C66.016585,15.7943548 65.871816,15.1955645 65.5822779,14.6512097 C65.3470282,14.125 64.9489134,13.7076613 64.4603179,13.4354839 Z M54.7283237,13.6136364 C53.3410405,12.7954545 51.6416185,12.7954545 50.2716763,13.6136364 C49.5953757,14.0049407 49.0231214,14.5741107 48.6242775,15.2677866 C48.2254335,15.9436759 48,16.708498 48,17.4911067 C48,18.2737154 48.2080925,19.0563241 48.6242775,19.7322134 C49.0231214,20.4258893 49.5953757,20.9950593 50.2716763,21.3863636 C51.6589595,22.2045455 53.3583815,22.2045455 54.7283237,21.3863636 C55.4046243,20.9772727 55.9768786,20.4081028 56.3757225,19.7322134 C56.7745665,19.0563241 57,18.291502 57,17.4911067 C57,16.708498 56.7919075,15.9258893 56.3757225,15.2677866 C55.9768786,14.5741107 55.4046243,14.0049407 54.7283237,13.6136364 L54.7283237,13.6136364 Z M54.6583746,18.4951768 C54.4373568,18.9389068 54.1313322,19.3247588 53.7403008,19.5948553 C53.3662707,19.8649518 52.9412365,20 52.499201,20 C52.0571654,20 51.6321312,19.8649518 51.2581012,19.5948553 C50.8670697,19.3247588 50.5610451,18.9389068 50.3400273,18.4951768 C50.1190096,18.0321543 50,17.511254 50,16.9903537 C50,16.4694534 50.1190096,15.9485531 50.3400273,15.5048232 C50.5610451,15.0610932 50.8840711,14.6752412 51.2581012,14.4051447 C51.6321312,14.1350482 52.0571654,14 52.499201,14 C52.9412365,14 53.3662707,14.1350482 53.7403008,14.4051447 C54.5223637,14.9646302 54.9984019,15.9485531 54.9984019,16.9903537 C55.0154033,17.511254 54.8963937,18.0321543 54.6583746,18.4951768 L54.6583746,18.4951768 Z M45.0574257,13.3024598 C44.4514851,12.8988258 43.7386139,12.6970088 43.0257426,12.7153558 C41.8316832,12.6970088 40.6910891,13.3024598 40.0316832,14.3298917 L40.0316832,10 L38,10 L38,21.8154673 L40.0316832,21.8154673 L40.0316832,20.3844014 C40.6910891,21.4118333 41.8316832,22.0172843 43.0257426,21.9989373 C43.7386139,22.0172843 44.4514851,21.7971203 45.0574257,21.4118333 C45.6633663,21.0081994 46.1623762,20.4394424 46.4653465,19.7606034 C46.8217822,19.0083765 47,18.1827615 47,17.3571466 C47,16.5315316 46.8217822,15.7059167 46.4653465,14.9720367 C46.1623762,14.2931978 45.6633663,13.7060938 45.0574257,13.3024598 L45.0574257,13.3024598 Z M44.2926989,19.1538462 C43.8217699,19.7115385 43.2059397,20 42.4814335,20 C41.7569274,20 41.1592098,19.7115385 40.7063935,19.1538462 C40.2354645,18.5961538 40,17.8653846 40,17 C40,16.1346154 40.2535771,15.4038462 40.7063935,14.8461538 C41.1592098,14.2884615 41.7569274,14 42.4814335,14 C43.2240523,14 43.8217699,14.2884615 44.2926989,14.8461538 C44.7636279,15.4038462 44.9990923,16.1153846 44.9990923,17 C45.017205,17.8653846 44.7636279,18.5961538 44.2926989,19.1538462 L44.2926989,19.1538462 Z M32.9860627,14.4477233 L32.9860627,13.0003583 L31,13.0003583 L31,22 L32.9860627,22 L32.9860627,17.6579048 C32.9860627,16.8043305 33.2648084,16.1177599 33.8222997,15.598193 C34.3797909,15.078626 35.1114983,14.8745105 36,14.8745105 L36,13.0003583 C35.0940767,12.9818023 33.5958188,13.6869289 32.9860627,14.4477233 L32.9860627,14.4477233 Z M25.2690583,13 C24.1748879,13 23.0269058,13.3017751 21.8071749,13.9053254 L22.5964126,15.2721893 C23.3139013,14.9349112 24.0672646,14.6686391 24.8565022,14.6686391 C26.309417,14.6686391 26.8475336,15.4142012 26.9372197,16.3905325 L24.5515695,16.3905325 C22.5964126,16.3905325 21,17.5621302 21,19.2485207 C21,20.9171598 22.3991031,22 24.2466368,22 C25.2511211,22 26.2914798,21.6272189 26.9372197,20.8284024 L26.9372197,21.8047337 L29,21.8047337 L29,16.6390533 C29,14.4556213 27.5650224,13 25.2690583,13 L25.2690583,13 Z M27,19.1324503 C27,20.0463576 26.1598174,21 24.7351598,21 C23.7488584,21 23,20.4238411 23,19.5099338 C23,18.5960265 23.8401826,18 24.8812785,18 L27,18 L27,19.1324503 Z M18.9891697,18.7927928 C17.4368231,20.3783784 14.8916968,20.4324324 13.3032491,18.8828829 C11.7148014,17.3333333 11.6606498,14.7927928 13.2129964,13.2072072 C14.765343,11.6216216 17.3104693,11.5675676 18.898917,13.1171171 C18.9350181,13.1531532 18.9530686,13.1711712 18.9891697,13.2072072 L20,11.4594595 C18.898917,10.5225225 17.4909747,10 16.0469314,10 C12.7075812,10 10,12.6846847 10,16 C10,19.3153153 12.7075812,22 16.0469314,22 C17.4909747,22 18.898917,21.4954955 20,20.5585586 L18.9891697,18.7927928 Z" id="Shape"></path>
                </g>
            </g>
        </g>
    </g>
</svg>