<?xml version="1.0" encoding="UTF-8"?>
<svg width="16px" height="16px" viewBox="0 0 16 16" version="1.1" xmlns="http://www.w3.org/2000/svg" xmlns:xlink="http://www.w3.org/1999/xlink">
    <!-- Generator: sketchtool 60.1 (101010) - https://sketch.com -->
    <title>D7A301D0-29F4-4DCB-9CBA-CFFD8E97A094</title>
    <desc>Created with sketchtool.</desc>
    <g id="admin" stroke="none" stroke-width="1" fill="none" fill-rule="evenodd">
        <g id="3.add-text-fields_27Nov" transform="translate(-337.000000, -395.000000)">
            <g id="sidebar" transform="translate(320.000000, 244.000000)">
                <g id="fields" transform="translate(0.000000, 60.000000)">
                    <g id="checkbox" transform="translate(15.000000, 89.104478)">
                        <g id="check_box_outline_blank-24px">
                            <polygon id="Path" points="0 0 20 0 20 19.800995 0 19.800995"></polygon>
                            <path d="M15.8333333,4.1252073 L15.8333333,15.6757877 L4.16666667,15.6757877 L4.16666667,4.1252073 L15.8333333,4.1252073 L15.8333333,4.1252073 Z M15.8333333,2.47512438 L4.16666667,2.47512438 C3.25,2.47512438 2.5,3.21766169 2.5,4.1252073 L2.5,15.6757877 C2.5,16.5833333 3.25,17.3258706 4.16666667,17.3258706 L15.8333333,17.3258706 C16.75,17.3258706 17.5,16.5833333 17.5,15.6757877 L17.5,4.1252073 C17.5,3.21766169 16.75,2.47512438 15.8333333,2.47512438 Z" id="Shape" fill="#27293D" fill-rule="nonzero"></path>
                        </g>
                    </g>
                </g>
            </g>
        </g>
    </g>
</svg>