<?xml version="1.0" encoding="UTF-8"?>
<svg width="9px" height="10px" viewBox="0 0 9 10" version="1.1" xmlns="http://www.w3.org/2000/svg" xmlns:xlink="http://www.w3.org/1999/xlink">
    <!-- Generator: Sketch 63.1 (92452) - https://sketch.com -->
    <title>ic copy@3x</title>
    <desc>Created with Sketch.</desc>
    <g id="Page-3" stroke="none" stroke-width="1" fill="none" fill-rule="evenodd" opacity="0.800000012">
        <g id="Artboard" transform="translate(-89.000000, -45.000000)">
            <g id="ic-copy" transform="translate(88.000000, 44.000000)">
                <g id="content_copy-24px">
                    <polygon id="Path" points="0 0 12 0 12 12 0 12"></polygon>
                    <path d="M7.63157895,1 L1.94736842,1 C1.42631579,1 1,1.40909091 1,1.90909091 L1,8.27272727 L1.94736842,8.27272727 L1.94736842,1.90909091 L7.63157895,1.90909091 L7.63157895,1 Z M9.05263158,2.81818182 L3.84210526,2.81818182 C3.32105263,2.81818182 2.89473684,3.22727273 2.89473684,3.72727273 L2.89473684,10.0909091 C2.89473684,10.5909091 3.32105263,11 3.84210526,11 L9.05263158,11 C9.57368421,11 10,10.5909091 10,10.0909091 L10,3.72727273 C10,3.22727273 9.57368421,2.81818182 9.05263158,2.81818182 Z M9.05263158,10.0909091 L3.84210526,10.0909091 L3.84210526,3.72727273 L9.05263158,3.72727273 L9.05263158,10.0909091 Z" id="Shape" fill="#FFFFFF" fill-rule="nonzero"></path>
                </g>
            </g>
        </g>
    </g>
</svg>