<?xml version="1.0" encoding="UTF-8"?>
<svg width="12px" height="14px" viewBox="0 0 12 14" version="1.1" xmlns="http://www.w3.org/2000/svg" xmlns:xlink="http://www.w3.org/1999/xlink">
    <!-- Generator: sketchtool 64 (101010) - https://sketch.com -->
    <title>1A8C0447-4556-4669-B918-16311DEC9732</title>
    <desc>Created with sketchtool.</desc>
    <g id="New-updated_-screens" stroke="none" stroke-width="1" fill="none" fill-rule="evenodd">
        <g id="My-Organisation-(selected-checkbox)" transform="translate(-1334.000000, -78.000000)">
            <g id="top">
                <g id="heading-copy" transform="translate(30.000000, 70.000000)">
                    <g id="all" transform="translate(694.000000, 0.000000)">
                        <g id="btns" transform="translate(98.000000, 0.000000)">
                            <g id="delete" transform="translate(488.000000, 0.000000)">
                                <g id="txt" transform="translate(21.000000, 6.000000)">
                                    <g id="Group-26">
                                        <g id="delete">
                                            <g>
                                                <polygon id="Path" points="0 0 18 0 18 18 0 18"></polygon>
                                                <path d="M12,6.75 L12,14.25 L6,14.25 L6,6.75 L12,6.75 M10.875,2.25 L7.125,2.25 L6.375,3 L3.75,3 L3.75,4.5 L14.25,4.5 L14.25,3 L11.625,3 L10.875,2.25 Z M13.5,5.25 L4.5,5.25 L4.5,14.25 C4.5,15.075 5.175,15.75 6,15.75 L12,15.75 C12.825,15.75 13.5,15.075 13.5,14.25 L13.5,5.25 Z" id="Shape" fill="#1391FF" fill-rule="nonzero"></path>
                                            </g>
                                        </g>
                                    </g>
                                </g>
                            </g>
                        </g>
                    </g>
                </g>
            </g>
        </g>
    </g>
</svg>