<?xml version="1.0" encoding="UTF-8"?>
<svg width="85px" height="10px" viewBox="0 0 85 10" version="1.1" xmlns="http://www.w3.org/2000/svg" xmlns:xlink="http://www.w3.org/1999/xlink">
    <!-- Generator: sketchtool 60.1 (101010) - https://sketch.com -->
    <title>0820DE17-6888-4EED-A3BF-A4D543704977</title>
    <desc>Created with sketchtool.</desc>
    <g id="End-User" stroke="none" stroke-width="1" fill="none" fill-rule="evenodd">
        <g id="5.data_source_27Nov" transform="translate(-125.000000, -243.000000)" fill="#FFFFFF" fill-rule="nonzero">
            <g id="datasource" transform="translate(100.000000, 226.000000)">
                <g id="datasource10">
                    <g id="Forcepoint_Logo" transform="translate(10.000000, 10.000000)">
                        <g id="logo" transform="translate(0.177096, 0.236128)">
                            <path d="M22.5501771,9.12042503 L17.8571429,9.12042503 L17.8571429,10.8028335 L21.7532468,10.8028335 C21.8713105,10.8028335 21.9303424,10.8618654 21.9303424,10.9504132 C21.9303424,12.042503 21.9303424,12.4262102 21.9303424,12.6623377 C21.9303424,12.7804014 21.8713105,12.8099174 21.7532468,12.8099174 L17.8571429,12.8099174 C17.8571429,12.8099174 17.8571429,14.6694215 17.8571429,15.5844156 C17.8571429,15.7319953 17.8571429,15.7615112 17.7390791,15.7615112 L15.6729634,15.7615112 C15.5844156,15.7615112 15.5844156,15.7615112 15.5844156,15.5844156 C15.5844156,13.1641086 15.5844156,10.1239669 15.5844156,7.31995277 C15.5844156,7.17237308 15.5844156,7.14285714 15.6729634,7.14285714 L22.5501771,7.14285714 C22.6387249,7.14285714 22.6387249,7.2609209 22.6387249,7.2609209 L22.6387249,8.97284534 C22.6682409,9.03187721 22.6682409,9.12042503 22.5501771,9.12042503 Z M32.4970484,11.5112161 C32.4970484,9.03187721 30.5489965,6.99527745 27.9811098,6.99527745 C25.4132231,6.99527745 23.4651712,9.00236128 23.4651712,11.5112161 C23.4651712,13.9905549 25.4132231,15.9976387 27.9811098,15.9976387 C30.5489965,15.9976387 32.4970484,13.9905549 32.4970484,11.5112161 Z M30.1357733,11.5112161 C30.1357733,12.8099174 29.338843,13.8429752 28.0106257,13.8429752 C26.6528926,13.8429752 25.8854782,12.8394333 25.8854782,11.5112161 C25.8854782,10.2125148 26.6528926,9.17945691 28.0106257,9.17945691 C29.338843,9.14994097 30.1357733,10.1829988 30.1357733,11.5112161 Z M41.4403778,15.4368359 C40.7024793,14.2561983 39.9940968,12.957497 39.6399055,12.4557261 C40.40732,12.1015348 40.8205431,11.2750885 40.8205431,10.094451 C40.8205431,8.53010626 39.7874852,7.20188902 37.8394333,7.20188902 L33.9138135,7.20188902 C33.8842975,7.20188902 33.8252656,7.20188902 33.8252656,7.31995277 C33.8252656,10.3600945 33.8252656,12.4262102 33.8252656,15.7024793 C33.8252656,15.8205431 33.8252656,15.8205431 33.9138135,15.8205431 C34.6812279,15.8205431 35.1829988,15.8205431 35.9799292,15.8205431 C36.068477,15.8205431 36.068477,15.8205431 36.068477,15.7024793 C36.068477,14.6989374 36.068477,13.3116883 36.068477,13.3116883 L37.514758,13.2821724 C37.514758,13.2821724 38.4297521,14.7284534 38.8724911,15.5548996 C38.9905549,15.7910272 39.0495868,15.8205431 39.1381346,15.8205431 L41.3813459,15.8205431 C41.5584416,15.7615112 41.5879575,15.6729634 41.4403778,15.4368359 Z M38.4297521,10.2420307 C38.4297521,10.9799292 38.0460449,11.4817001 37.3671783,11.5112161 L36.0979929,11.540732 L36.0979929,9.06139315 L37.3671783,9.06139315 C38.0755608,9.06139315 38.4297521,9.56316411 38.4297521,10.2420307 Z M46.5171192,16.0271547 C48.9079103,16.0271547 50.3541913,14.3742621 50.6493506,12.8099174 C50.6788666,12.6623377 50.6493506,12.6328217 50.5903188,12.6328217 L48.5242031,12.6328217 C48.4356553,12.6328217 48.4061393,12.6918536 48.4061393,12.7213695 C48.0224321,13.4887839 47.4321133,13.8429752 46.5761511,13.8429752 C45.3069658,13.8429752 44.5100354,12.8394333 44.5100354,11.4817001 L44.5100354,11.5112161 C44.5100354,10.1534829 45.3364817,9.14994097 46.5761511,9.14994097 C47.4616293,9.14994097 48.0519481,9.50413223 48.4061393,10.2715466 C48.4061393,10.3010626 48.4356553,10.3600945 48.5242031,10.3600945 L50.5903188,10.3600945 C50.6493506,10.3600945 50.6788666,10.3305785 50.6493506,10.1829988 C50.3246753,8.61865407 48.9079103,6.96576151 46.5171192,6.96576151 C44.0377804,6.96576151 42.0897285,8.88429752 42.0897285,11.4817001 C42.0897285,14.1086187 44.0377804,16.0271547 46.5171192,16.0271547 Z M58.0578512,15.5844156 C58.0578512,15.0531287 58.0578512,14.5808737 58.0578512,13.961039 C58.0578512,13.8134593 58.0283353,13.7839433 57.8807556,13.7839433 L54.1912633,13.7839433 L54.1912633,12.3376623 L57.7331759,12.3376623 C57.8512397,12.3376623 57.8512397,12.3081464 57.8512397,12.1605667 C57.8512397,11.6587957 57.8512397,11.2455726 57.8512397,10.6257379 C57.8512397,10.4781582 57.8512397,10.4486423 57.7331759,10.4486423 L54.1912633,10.4486423 L54.1912633,9.00236128 L57.8217237,9.00236128 C57.9102715,9.00236128 57.9693034,8.97284534 57.9693034,8.85478158 C57.9693034,8.29397875 57.9693034,7.93978749 57.9693034,7.31995277 C57.9693034,7.17237308 57.9693034,7.14285714 57.8217237,7.14285714 L52.0956316,7.14285714 C51.9775679,7.14285714 51.9775679,7.14285714 51.9775679,7.2609209 C51.9775679,9.7107438 51.9775679,13.3412043 51.9775679,15.5548996 C51.9775679,15.7024793 51.9775679,15.7319953 52.1251476,15.7319953 L57.9397875,15.7319953 C58.0578512,15.7615112 58.0578512,15.7615112 58.0578512,15.5844156 Z M67.6800472,10.4781582 C67.6800472,8.53010626 66.5584416,7.17237308 64.6694215,7.17237308 L60.0354191,7.17237308 C59.9763872,7.17237308 59.9173554,7.17237308 59.9173554,7.29043684 C59.9173554,10.3305785 59.9173554,12.3966942 59.9173554,15.6729634 C59.9173554,15.7910272 59.9173554,15.7910272 60.0354191,15.7910272 C60.7733176,15.7910272 61.3046045,15.7910272 62.1015348,15.7910272 C62.1900826,15.7910272 62.2195986,15.7910272 62.2195986,15.6729634 C62.2195986,14.6694215 62.2195986,13.5773318 62.2195986,13.5773318 C62.2195986,13.5773318 64.4923259,13.6363636 64.8465171,13.5773318 C66.4698937,13.3707202 67.6800472,12.5442739 67.6800472,10.4781582 Z M65.3482881,10.3896104 C65.3482881,11.0979929 64.9940968,11.6587957 64.1086187,11.7178276 L62.2195986,11.7178276 L62.2195986,9.06139315 L64.0791027,9.06139315 C64.8465171,9.06139315 65.3482881,9.53364817 65.3482881,10.3896104 Z M77.7449823,11.5112161 C77.7449823,9.03187721 75.7969303,6.99527745 73.2290437,6.99527745 C70.661157,6.99527745 68.7131051,9.00236128 68.7131051,11.5112161 C68.7131051,13.9905549 70.661157,15.9976387 73.2290437,15.9976387 C75.7969303,15.9976387 77.7449823,13.9905549 77.7449823,11.5112161 Z M75.3541913,11.5112161 C75.3541913,12.8099174 74.5572609,13.8429752 73.2290437,13.8429752 C71.8713105,13.8429752 71.1038961,12.8394333 71.1038961,11.5112161 C71.1038961,10.2125148 71.8713105,9.17945691 73.2290437,9.17945691 C74.5867769,9.14994097 75.3541913,10.1829988 75.3541913,11.5112161 Z M81.3459268,15.6729634 C81.3459268,13.6658796 81.3459268,9.26800472 81.3459268,7.29043684 C81.3459268,7.20188902 81.3459268,7.17237308 81.227863,7.17237308 C80.4014168,7.17237308 79.9291617,7.17237308 79.1322314,7.17237308 C79.0141677,7.17237308 79.0141677,7.17237308 79.0141677,7.29043684 C79.0141677,10.3305785 79.0141677,12.3966942 79.0141677,15.6729634 C79.0141677,15.7910272 79.0141677,15.7910272 79.1322314,15.7910272 C79.9291617,15.7910272 80.4014168,15.7910272 81.227863,15.7910272 C81.3459268,15.7615112 81.3459268,15.7615112 81.3459268,15.6729634 Z M99.2916175,9.3270366 C99.2916175,8.61865407 99.2916175,8.14639906 99.2916175,7.29043684 C99.2916175,7.20188902 99.2916175,7.17237308 99.2030697,7.17237308 L91.824085,7.17237308 C91.7355372,7.17237308 91.7355372,7.20188902 91.7355372,7.29043684 C91.7355372,8.14639906 91.7355372,8.61865407 91.7355372,9.3270366 C91.7355372,9.41558442 91.7355372,9.41558442 91.824085,9.41558442 L94.3919717,9.38606848 C94.3919717,9.38606848 94.3919717,14.0791027 94.3919717,15.6434475 C94.3919717,15.7615112 94.3919717,15.7615112 94.5100354,15.7615112 C95.3069658,15.7615112 95.7497048,15.7615112 96.6056671,15.7615112 C96.6942149,15.7615112 96.7237308,15.7615112 96.7237308,15.6434475 C96.7237308,14.6399055 96.7237308,9.38606848 96.7237308,9.38606848 L99.2325856,9.41558442 C99.2621015,9.41558442 99.2916175,9.41558442 99.2916175,9.3270366 Z M90.40732,15.4663518 L90.40732,14.2561983 C90.40732,11.9539551 90.40732,9.38606848 90.40732,7.31995277 C90.40732,7.20188902 90.40732,7.17237308 90.2892562,7.17237308 C89.4923259,7.17237308 89.1086187,7.17237308 88.3707202,7.17237308 C88.2821724,7.17237308 88.2821724,7.17237308 88.2821724,7.31995277 L88.2821724,11.3636364 C88.2821724,11.3636364 85.1239669,8.47107438 83.6186541,7.29043684 C83.2349469,6.96576151 83.2054309,7.31995277 83.2054309,7.43801653 L83.2054309,7.46753247 L83.2054309,8.67768595 L83.2054309,8.67768595 C83.2054309,11.1865407 83.2054309,12.8984652 83.2054309,15.6434475 C83.2054309,15.7024793 83.2349469,15.7615112 83.3234947,15.7615112 C84.0909091,15.7615112 84.4451004,15.7615112 85.2420307,15.7615112 C85.3600945,15.7615112 85.3600945,15.7615112 85.3600945,15.6434475 L85.3600945,11.9244392 C85.3600945,11.9244392 87.957497,14.1086187 89.8760331,15.5548996 C90.3482881,15.9976387 90.40732,15.7024793 90.40732,15.4663518 Z" id="Shape-2"></path>
                        </g>
                    </g>
                </g>
            </g>
        </g>
    </g>
</svg>