<?xml version="1.0" encoding="UTF-8"?>
<svg width="18px" height="12px" viewBox="0 0 18 12" version="1.1" xmlns="http://www.w3.org/2000/svg" xmlns:xlink="http://www.w3.org/1999/xlink">
    <!-- Generator: sketchtool 64 (101010) - https://sketch.com -->
    <title>4CA7E74D-FFE5-4BA0-8751-3E541328D269</title>
    <desc>Created with sketchtool.</desc>
    <g id="New-updated_-screens" stroke="none" stroke-width="1" fill="none" fill-rule="evenodd">
        <g id="My-Organisation" transform="translate(-1071.000000, -79.000000)">
            <g id="top">
                <g id="heading-copy" transform="translate(30.000000, 70.000000)">
                    <g id="all" transform="translate(914.000000, 0.000000)">
                        <g id="btns" transform="translate(98.000000, 0.000000)">
                            <g id="last-run">
                                <g id="start">
                                    <g id="btn-start">
                                        <g id="ic-group" transform="translate(29.000000, 6.000000)">
                                            <g id="group_add-24px">
                                                <polygon id="Path" points="0 0 18 0 18 18 0 18"></polygon>
                                                <path d="M3.75,11.25 L3.75,9 L6,9 L6,7.5 L3.75,7.5 L3.75,5.25 L2.25,5.25 L2.25,7.5 L0,7.5 L0,9 L2.25,9 L2.25,11.25 L3.75,11.25 Z M9,10.3125 C7.245,10.3125 3.75,11.19 3.75,12.9375 L3.75,14.25 L14.25,14.25 L14.25,12.9375 C14.25,11.19 10.755,10.3125 9,10.3125 Z M5.505,12.75 C6.135,12.315 7.6575,11.8125 9,11.8125 C10.3425,11.8125 11.865,12.315 12.495,12.75 L5.505,12.75 Z M9,9 C10.4475,9 11.625,7.8225 11.625,6.375 C11.625,4.9275 10.4475,3.75 9,3.75 C7.5525,3.75 6.375,4.9275 6.375,6.375 C6.375,7.8225 7.5525,9 9,9 Z M9,5.25 C9.6225,5.25 10.125,5.7525 10.125,6.375 C10.125,6.9975 9.6225,7.5 9,7.5 C8.3775,7.5 7.875,6.9975 7.875,6.375 C7.875,5.7525 8.3775,5.25 9,5.25 Z M12.75,9 C14.1975,9 15.375,7.8225 15.375,6.375 C15.375,4.9275 14.1975,3.75 12.75,3.75 C12.57,3.75 12.39,3.765 12.2175,3.8025 C12.7875,4.5075 13.125,5.4 13.125,6.375 C13.125,7.35 12.7725,8.235 12.2025,8.94 C12.3825,8.9775 12.5625,9 12.75,9 Z M14.49,10.515 C15.24,11.1225 15.75,11.9175 15.75,12.9375 L15.75,14.25 L18,14.25 L18,12.9375 C18,11.67 16.17,10.8675 14.49,10.515 Z" id="Shape" fill="#1391FF" fill-rule="nonzero"></path>
                                            </g>
                                        </g>
                                    </g>
                                </g>
                            </g>
                        </g>
                    </g>
                </g>
            </g>
        </g>
    </g>
</svg>