<?xml version="1.0" encoding="UTF-8"?>
<svg width="15px" height="16px" viewBox="0 0 15 16" version="1.1" xmlns="http://www.w3.org/2000/svg" xmlns:xlink="http://www.w3.org/1999/xlink">
    <!-- Generator: sketchtool 64 (101010) - https://sketch.com -->
    <title>B2E43183-B7A9-42E3-8513-8193A7C53910</title>
    <desc>Created with sketchtool.</desc>
    <g id="New-updated_-screens" stroke="none" stroke-width="1" fill="none" fill-rule="evenodd" opacity="0.72">
        <g id="Custom-Dashboard-(Dropdown)" transform="translate(-445.000000, -361.000000)" fill="#FFFFFF" fill-rule="nonzero">
            <g id="dropdown" transform="translate(423.000000, 114.000000)">
                <g id="all" transform="translate(10.000000, 10.000000)">
                    <g id="6" transform="translate(0.000000, 225.000000)">
                        <g id="ic_export" transform="translate(19.500000, 20.000000) scale(-1, 1) translate(-19.500000, -20.000000) translate(12.000000, 12.000000)">
                            <g id="Group">
                                <g id="Shape">
                                    <path d="M-0.5,14.5024554 C-0.5,15.053384 -0.0553691,15.5 0.5008717,15.5 L14.499128,15.5 C15.051894,15.5 15.5,15.0536886 15.5,14.5024554 L15.5,7.49754465 C15.5,6.94661595 15.056135,6.5 14.5,6.5 C13.947715,6.5 13.5,6.93788135 13.5,7.5029293 L13.5,13.5 L1.5,13.5 L1.5,7.5029293 C1.5,6.94902676 1.0561352,6.5 0.5,6.5 C-0.0522847,6.5 -0.5,6.9463114 -0.5,7.49754465 L-0.5,14.5024554 Z M8.5,10.5 L8.5,4.5 L10.501043,4.5 C11.052752,4.5 11.186127,4.18612671 10.794088,3.79408795 L7.5,0.5 L4.2059121,3.79408795 C3.8160476,4.18395241 3.9426603,4.5 4.4989566,4.5 L6.5,4.5 L6.5,10.5 L8.5,10.5 Z" transform="translate(7.500000, 8.000000) rotate(-90.000000) translate(-7.500000, -8.000000) "></path>
                                </g>
                            </g>
                        </g>
                    </g>
                </g>
            </g>
        </g>
    </g>
</svg>