<?xml version="1.0" encoding="UTF-8"?>
<svg width="18px" height="8px" viewBox="0 0 18 8" version="1.1" xmlns="http://www.w3.org/2000/svg" xmlns:xlink="http://www.w3.org/1999/xlink">
    <!-- Generator: sketchtool 64 (101010) - https://sketch.com -->
    <title>700112E4-1C93-4008-8725-FCC335F4F841</title>
    <desc>Created with sketchtool.</desc>
    <g id="New-updated_-screens" stroke="none" stroke-width="1" fill="none" fill-rule="evenodd">
        <g id="Custom-Dashboard-(Dropdown)" transform="translate(-444.000000, -275.000000)">
            <g id="dropdown" transform="translate(423.000000, 114.000000)">
                <g id="all" transform="translate(10.000000, 10.000000)">
                    <g id="4" transform="translate(0.000000, 135.000000)">
                        <g id="ic_link" transform="translate(10.000000, 10.000000)">
                            <rect id="Rectangle" x="0" y="0" width="20" height="20"></rect>
                            <path d="M2.60300429,10 C2.60300429,8.72081218 3.58798283,7.68527919 4.80472103,7.68527919 L9.13090129,7.68527919 L9.13090129,6 L4.80472103,6 C2.69957082,6 1,7.78680203 1,10 C1,12.213198 2.69957082,14 4.80472103,14 L9.13090129,14 L9.13090129,12.3147208 L4.80472103,12.3147208 C3.58798283,12.3147208 2.60300429,11.2791878 2.60300429,10 Z M15.195279,6 L10.8690987,6 L10.8690987,7.68527919 L15.195279,7.68527919 C16.4120172,7.68527919 17.3969957,8.72081218 17.3969957,10 C17.3969957,11.2791878 16.4120172,12.3147208 15.195279,12.3147208 L10.8690987,12.3147208 L10.8690987,14 L15.195279,14 C17.3004292,14 19,12.213198 19,10 C19,7.78680203 17.3004292,6 15.195279,6 Z M5.42274678,10 C5.42274678,10.4670051 5.78969957,10.8527919 6.23390558,10.8527919 L13.7854077,10.8527919 C14.2296137,10.8527919 14.5965665,10.4670051 14.5965665,10 C14.5965665,9.53299492 14.2296137,9.14720812 13.7854077,9.14720812 L6.23390558,9.14720812 C5.78969957,9.14720812 5.42274678,9.53299492 5.42274678,10 Z" id="Shape" fill-opacity="0.72" fill="#FFFFFF" fill-rule="nonzero"></path>
                        </g>
                    </g>
                </g>
            </g>
        </g>
    </g>
</svg>