<?xml version="1.0" encoding="UTF-8"?>
<svg width="13px" height="13px" viewBox="0 0 13 13" version="1.1" xmlns="http://www.w3.org/2000/svg" xmlns:xlink="http://www.w3.org/1999/xlink">
    <!-- Generator: sketchtool 60.1 (101010) - https://sketch.com -->
    <title>DF6AA8FF-AF0C-4D6A-A397-E6F377B81E00</title>
    <desc>Created with sketchtool.</desc>
    <g id="admin" stroke="none" stroke-width="1" fill="none" fill-rule="evenodd">
        <g id="2.Admin-Interface--Custom-Form-Visual_27Nov" transform="translate(-1103.000000, -252.000000)">
            <g id="form-fields" transform="translate(255.000000, 241.000000)">
                <g id="field2" transform="translate(15.000000, 0.000000)">
                    <g id="settings" transform="translate(832.000000, 9.000000)">
                        <g id="ic_tune" transform="translate(0.000000, 1.000000)">
                            <polygon id="Bounds" points="0 0 15 0 15 15 0 15"></polygon>
                            <path d="M1.875,10.625 L1.875,11.875 L5.625,11.875 L5.625,10.625 L1.875,10.625 L1.875,10.625 Z M1.875,3.125 L1.875,4.375 L8.125,4.375 L8.125,3.125 L1.875,3.125 L1.875,3.125 Z M8.125,13.125 L8.125,11.875 L13.125,11.875 L13.125,10.625 L8.125,10.625 L8.125,9.375 L6.875,9.375 L6.875,13.125 L8.125,13.125 L8.125,13.125 Z M4.375,5.625 L4.375,6.875 L1.875,6.875 L1.875,8.125 L4.375,8.125 L4.375,9.375 L5.625,9.375 L5.625,5.625 L4.375,5.625 L4.375,5.625 Z M13.125,8.125 L13.125,6.875 L6.875,6.875 L6.875,8.125 L13.125,8.125 L13.125,8.125 Z M9.375,5.625 L10.625,5.625 L10.625,4.375 L13.125,4.375 L13.125,3.125 L10.625,3.125 L10.625,1.875 L9.375,1.875 L9.375,5.625 L9.375,5.625 Z" id="Icon" fill="#5D5E72"></path>
                        </g>
                    </g>
                </g>
            </g>
        </g>
    </g>
</svg>