<?xml version="1.0" encoding="UTF-8"?>
<svg width="118px" height="102px" viewBox="0 0 118 102" version="1.1" xmlns="http://www.w3.org/2000/svg" xmlns:xlink="http://www.w3.org/1999/xlink">
    <!-- Generator: sketchtool 64 (101010) - https://sketch.com -->
    <title>83CE90CC-9A1A-4BB1-AE94-2D6A679C1088</title>
    <desc>Created with sketchtool.</desc>
    <defs>
        <filter x="-78.3%" y="-102.4%" width="256.6%" height="304.8%" filterUnits="objectBoundingBox" id="filter-1">
            <feMorphology radius="0.75" operator="dilate" in="SourceAlpha" result="shadowSpreadOuter1"></feMorphology>
            <feOffset dx="0" dy="2" in="shadowSpreadOuter1" result="shadowOffsetOuter1"></feOffset>
            <feGaussianBlur stdDeviation="12.5" in="shadowOffsetOuter1" result="shadowBlurOuter1"></feGaussianBlur>
            <feComposite in="shadowBlurOuter1" in2="SourceAlpha" operator="out" result="shadowBlurOuter1"></feComposite>
            <feColorMatrix values="0 0 0 0 0.0745098039   0 0 0 0 0.568627451   0 0 0 0 1  0 0 0 0.355059003 0" type="matrix" in="shadowBlurOuter1" result="shadowMatrixOuter1"></feColorMatrix>
            <feMerge>
                <feMergeNode in="shadowMatrixOuter1"></feMergeNode>
                <feMergeNode in="SourceGraphic"></feMergeNode>
            </feMerge>
        </filter>
    </defs>
    <g id="New-updated_-screens" stroke="none" stroke-width="1" fill="none" fill-rule="evenodd">
        <g id="1-New-Dashboard" transform="translate(-761.000000, -102.000000)" fill="#1391FF" fill-rule="nonzero">
            <g id="top" transform="translate(0.000000, 40.000000)">
                <g id="icon_dashboard" filter="url(#filter-1)" transform="translate(786.000000, 85.000000)">
                    <path d="M16.7784687,8.73220229 C16.7784687,8.22070781 17.194704,7.80605962 17.7081562,7.80605962 L20.0100625,7.80605962 C20.5235147,7.80605962 20.93975,8.22070781 20.93975,8.73220229 C20.93975,9.24369676 20.5235147,9.65834495 20.0100625,9.65834495 L17.7081563,9.65834495 C17.194704,9.65834495 16.7784687,9.24369676 16.7784687,8.73220229 L16.7784687,8.73220229 Z M68,2.51381581 L68,49.4861842 C67.9985359,50.8739218 66.8696117,51.9985415 65.4765625,52 L2.5234375,52 C1.13018115,51.998541 0.00117126568,50.8735992 0,49.485655 L0,2.51381581 C0.00146405709,1.12607824 1.13038833,0.00145847474 2.5234375,0 L65.4765625,0 C66.8696117,0.00145847474 67.9985359,1.12607824 68,2.51381581 Z M66.140625,49.4861842 L66.140625,9.65834495 L25.234375,9.65834495 C24.7209228,9.65834495 24.3046875,9.24369676 24.3046875,8.73220229 C24.3046875,8.22070781 24.7209228,7.80605962 25.234375,7.80605962 L66.140625,7.80605962 L66.140625,2.51381581 C66.140625,2.14858357 65.8431927,1.85228533 65.4765625,1.85228533 L2.5234375,1.85228533 C2.15680732,1.85228533 1.859375,2.14858357 1.859375,2.51381581 L1.859375,7.80605962 L12.484375,7.80605962 C12.9978272,7.80605962 13.4140625,8.22070781 13.4140625,8.73220229 C13.4140625,9.24369676 12.9978272,9.65834495 12.484375,9.65834495 L1.859375,9.65834495 L1.859375,49.4861842 C1.859375,49.8514164 2.15680732,50.1477147 2.5234375,50.1477147 L65.4765625,50.1477147 C65.8434,50.1477147 66.140625,49.8510939 66.140625,49.485655 L66.140625,49.4861842 Z M62.6875,14.0244461 L62.6875,22.1480403 C62.6875,22.6595348 62.2712647,23.074183 61.7578125,23.074183 L6.2421875,23.074183 C5.72873527,23.074183 5.3125,22.6595348 5.3125,22.1480403 L5.3125,14.0244461 C5.3125,13.5129516 5.72873527,13.0983034 6.2421875,13.0983034 L61.7578125,13.0983034 C62.2712647,13.0983034 62.6875,13.5129516 62.6875,14.0244461 L62.6875,14.0244461 Z M60.828125,14.9505888 L7.171875,14.9505888 L7.171875,21.2218977 L60.828125,21.2218977 L60.828125,14.9505888 Z M62.6875,25.8409681 L62.6875,33.9645623 C62.6875,34.4760568 62.2712647,34.890705 61.7578125,34.890705 L25.66575,34.890705 C25.1522978,34.890705 24.7360625,34.4760568 24.7360625,33.9645623 L24.7360625,25.8409681 C24.7360625,25.3294736 25.1522978,24.9148254 25.66575,24.9148254 L61.7578125,24.9148254 C62.2712647,24.9148254 62.6875,25.3294736 62.6875,25.8409681 L62.6875,25.8409681 Z M60.828125,26.7671107 L26.5954375,26.7671107 L26.5954375,33.0384197 L60.828125,33.0384197 L60.828125,26.7671107 Z M62.6875,37.6574901 L62.6875,45.7810843 C62.6875,46.2925788 62.2712647,46.707227 61.7578125,46.707227 L25.66575,46.707227 C25.1522978,46.707227 24.7360625,46.2925788 24.7360625,45.7810843 L24.7360625,37.6574901 C24.7360625,37.1459956 25.1522978,36.7313474 25.66575,36.7313474 L61.7578125,36.7313474 C62.2712647,36.7313474 62.6875,37.1459956 62.6875,37.6574901 L62.6875,37.6574901 Z M60.828125,38.5836327 L26.5954375,38.5836327 L26.5954375,44.8549416 L60.828125,44.8549416 L60.828125,38.5836327 Z M21.9581562,24.9148254 L6.2421875,24.9148254 C5.72873527,24.9148254 5.3125,25.3294736 5.3125,25.8409681 L5.3125,35.3934681 C5.3125,35.9049626 5.72873527,36.3196108 6.2421875,36.3196108 C6.75563973,36.3196108 7.171875,35.9049626 7.171875,35.3934681 L7.171875,26.7671107 L21.0284687,26.7671107 L21.0284687,44.8549416 L7.171875,44.8549416 L7.171875,42.2088197 C7.171875,41.6973253 6.75563973,41.2826771 6.2421875,41.2826771 C5.72873527,41.2826771 5.3125,41.6973253 5.3125,42.2088197 L5.3125,45.782672 C5.3125,46.2941664 5.72873527,46.7088146 6.2421875,46.7088146 L21.9581562,46.7088146 C22.4716085,46.7088146 22.8878437,46.2941664 22.8878437,45.782672 L22.8878437,25.8409681 C22.8878437,25.3294736 22.4716085,24.9148254 21.9581562,24.9148254 L21.9581562,24.9148254 Z M59.4335938,5.75690282 L61.7578125,5.75690282 C62.2712647,5.75690282 62.6875,5.34225462 62.6875,4.83076015 C62.6875,4.31926568 62.2712647,3.90461748 61.7578125,3.90461748 L59.4335938,3.90461748 C58.9201415,3.90461748 58.5039062,4.31926568 58.5039062,4.83076015 C58.5039062,5.34225462 58.9201415,5.75690282 59.4335937,5.75690282 L59.4335938,5.75690282 Z M52.328125,5.75690282 L54.6523438,5.75690282 C55.165796,5.75690282 55.5820312,5.34225462 55.5820312,4.83076015 C55.5820312,4.31926568 55.165796,3.90461748 54.6523438,3.90461748 L52.328125,3.90461748 C51.8146728,3.90461748 51.3984375,4.31926568 51.3984375,4.83076015 C51.3984375,5.34225462 51.8146728,5.75690282 52.328125,5.75690282 Z M45.2226562,5.75690282 L47.546875,5.75690282 C48.0603272,5.75690282 48.4765625,5.34225462 48.4765625,4.83076015 C48.4765625,4.31926568 48.0603272,3.90461748 47.546875,3.90461748 L45.2226562,3.90461748 C44.709204,3.90461748 44.2929688,4.31926568 44.2929688,4.83076015 C44.2929688,5.34225462 44.709204,5.75690282 45.2226562,5.75690282 Z" id="Shape"></path>
                </g>
            </g>
        </g>
    </g>
</svg>