<?xml version="1.0" encoding="UTF-8"?>
<svg width="94px" height="55px" viewBox="0 0 94 55" version="1.1" xmlns="http://www.w3.org/2000/svg" xmlns:xlink="http://www.w3.org/1999/xlink">
    <!-- Generator: sketchtool 60.1 (101010) - https://sketch.com -->
    <title>ECB46996-05B3-456B-92F1-B4E8DE138CE4</title>
    <desc>Created with sketchtool.</desc>
    <g id="End-User" stroke="none" stroke-width="1" fill="none" fill-rule="evenodd">
        <g id="4.event_form_27Nov" transform="translate(-135.000000, -114.000000)" fill-rule="nonzero">
            <g id="logo_aws-[Converted]" transform="translate(135.000000, 114.000000)">
                <path d="M27.5445975,20.1457447 C27.5445975,21.287234 27.6693256,22.212766 27.8875997,22.8914894 C28.1370558,23.5702128 28.448876,24.3106383 28.8854242,25.112766 C29.0413343,25.3595745 29.1036983,25.606383 29.1036983,25.8223404 C29.1036983,26.1308511 28.9166062,26.4393617 28.51124,26.7478723 L26.546773,28.043617 C26.2661349,28.2287234 25.9854967,28.3212766 25.7360406,28.3212766 C25.4242204,28.3212766 25.1124003,28.1670213 24.8005801,27.8893617 C24.3640319,27.4265957 23.9898477,26.9329787 23.6780276,26.4393617 C23.3662074,25.9148936 23.0543872,25.3287234 22.7113851,24.6191489 C20.2791878,27.4574468 17.2233503,28.8765957 13.5438724,28.8765957 C10.924583,28.8765957 8.83538796,28.1361702 7.30746918,26.6553191 C5.7795504,25.1744681 5,23.2 5,20.7319149 C5,18.1095745 5.93546048,15.9808511 7.83756345,14.3765957 C9.73966642,12.7723404 12.2654097,11.9702128 15.4771574,11.9702128 C16.5373459,11.9702128 17.6287165,12.062766 18.7824511,12.2170213 C19.9361856,12.3712766 21.1211022,12.6180851 22.3683829,12.8957447 L22.3683829,10.643617 C22.3683829,8.29893617 21.8694706,6.66382979 20.9028281,5.70744681 C19.9050036,4.75106383 18.2211748,4.28829787 15.8201595,4.28829787 C14.728789,4.28829787 13.6062364,4.41170213 12.4525018,4.6893617 C11.2987672,4.96702128 10.1762146,5.30638298 9.08484409,5.73829787 C8.58593183,5.95425532 8.21174764,6.07765957 7.99347353,6.1393617 C7.77519942,6.20106383 7.61928934,6.23191489 7.49456128,6.23191489 C7.05801305,6.23191489 6.83973894,5.92340426 6.83973894,5.27553191 L6.83973894,3.76382979 C6.83973894,3.27021277 6.90210297,2.9 7.05801305,2.68404255 C7.21392313,2.46808511 7.49456128,2.25212766 7.9311095,2.03617021 C9.02248006,1.48085106 10.3321247,1.01808511 11.8600435,0.64787234 C13.3879623,0.246808511 15.0094271,0.0617021277 16.724438,0.0617021277 C20.4350979,0.0617021277 23.1479333,0.894680851 24.8941262,2.5606383 C26.6091371,4.22659574 27.4822335,6.75638298 27.4822335,10.15 L27.4822335,20.1457447 L27.5445975,20.1457447 L27.5445975,20.1457447 Z M14.8846991,24.8351064 C15.9137056,24.8351064 16.9738941,24.65 18.0964467,24.2797872 C19.2189993,23.9095745 20.2168238,23.2308511 21.0587382,22.3053191 C21.5576505,21.7191489 21.9318347,21.0712766 22.1189268,20.3308511 C22.3060189,19.5904255 22.4307469,18.6957447 22.4307469,17.6468085 L22.4307469,16.3510638 C21.5264685,16.1351064 20.559826,15.95 19.5620015,15.8265957 C18.5641769,15.7031915 17.5975344,15.6414894 16.630892,15.6414894 C14.5416969,15.6414894 13.0137781,16.0425532 11.9847716,16.8755319 C10.955765,17.7085106 10.4568528,18.8808511 10.4568528,20.4234043 C10.4568528,21.8734043 10.831037,22.9531915 11.6105874,23.693617 C12.3589558,24.4648936 13.4503263,24.8351064 14.8846991,24.8351064 Z M39.9238579,28.1670213 C39.3625816,28.1670213 38.9883974,28.0744681 38.7389413,27.8585106 C38.4894851,27.6734043 38.271211,27.2414894 38.0841189,26.6553191 L30.7563452,2.80744681 C30.5692531,2.19042553 30.475707,1.7893617 30.475707,1.57340426 C30.475707,1.07978723 30.7251632,0.80212766 31.2240754,0.80212766 L34.279913,0.80212766 C34.8723713,0.80212766 35.2777375,0.894680851 35.4960116,1.1106383 C35.7454677,1.29574468 35.9325598,1.72765957 36.1196519,2.31382979 L41.3582306,22.737234 L46.2226251,2.31382979 C46.3785352,1.69680851 46.5656273,1.29574468 46.8150834,1.1106383 C47.0645395,0.925531915 47.5010877,0.80212766 48.062364,0.80212766 L50.5569253,0.80212766 C51.1493836,0.80212766 51.5547498,0.894680851 51.8042059,1.1106383 C52.0536621,1.29574468 52.2719362,1.72765957 52.3966642,2.31382979 L57.3234228,22.9840426 L62.7179115,2.31382979 C62.9050036,1.69680851 63.1232777,1.29574468 63.3415518,1.1106383 C63.591008,0.925531915 63.9963742,0.80212766 64.5576505,0.80212766 L67.457578,0.80212766 C67.9564902,0.80212766 68.2371284,1.04893617 68.2371284,1.57340426 C68.2371284,1.72765957 68.2059463,1.88191489 68.1747643,2.06702128 C68.1435823,2.25212766 68.0812183,2.49893617 67.9564902,2.83829787 L60.4416244,26.6861702 C60.2545323,27.3031915 60.0362582,27.7042553 59.786802,27.8893617 C59.5373459,28.0744681 59.1319797,28.1978723 58.6018854,28.1978723 L55.9202321,28.1978723 C55.3277737,28.1978723 54.9224075,28.1053191 54.6729514,27.8893617 C54.4234953,27.6734043 54.2052212,27.2723404 54.0804931,26.6553191 L49.2472806,6.75638298 L44.4452502,26.6244681 C44.2893401,27.2414894 44.102248,27.6425532 43.8527919,27.8585106 C43.6033358,28.0744681 43.1667875,28.1670213 42.6055112,28.1670213 L39.9238579,28.1670213 Z M79.9927484,29 C78.3712835,29 76.7498187,28.8148936 75.1907179,28.4446809 C73.6316171,28.0744681 72.4155185,27.6734043 71.6047861,27.2106383 C71.1058738,26.9329787 70.7628716,26.6244681 70.6381436,26.3468085 C70.5134155,26.0691489 70.4510515,25.7606383 70.4510515,25.4829787 L70.4510515,23.9095745 C70.4510515,23.2617021 70.7005076,22.9531915 71.1682379,22.9531915 C71.3553299,22.9531915 71.542422,22.9840426 71.7295141,23.0457447 C71.9166062,23.1074468 72.1972444,23.2308511 72.5090645,23.3542553 C73.5692531,23.8170213 74.7229877,24.187234 75.9390863,24.4340426 C77.1863669,24.6808511 78.4024656,24.8042553 79.6497462,24.8042553 C81.6142132,24.8042553 83.142132,24.4648936 84.2023205,23.7861702 C85.2625091,23.1074468 85.8237854,22.1202128 85.8237854,20.8553191 C85.8237854,19.9914894 85.5431472,19.2819149 84.9818709,18.6957447 C84.4205946,18.1095745 83.3604061,17.5851064 81.8324873,17.0914894 L77.311095,15.7031915 C75.0348078,14.993617 73.350979,13.9446809 72.3219724,12.556383 C71.2929659,11.1989362 70.7628716,9.68723404 70.7628716,8.08297872 C70.7628716,6.78723404 71.0435098,5.64574468 71.6047861,4.65851064 C72.1660624,3.6712766 72.9144307,2.80744681 73.8498912,2.1287234 C74.7853517,1.41914894 75.8455402,0.894680851 77.0928209,0.524468085 C78.3401015,0.154255319 79.6497462,0 81.0217549,0 C81.7077592,0 82.4249456,0.0308510638 83.11095,0.123404255 C83.8281363,0.215957447 84.4829587,0.339361702 85.137781,0.462765957 C85.7614213,0.617021277 86.3538796,0.771276596 86.9151559,0.956382979 C87.4764322,1.14148936 87.9129804,1.32659574 88.2248006,1.51170213 C88.6613488,1.75851064 88.973169,2.00531915 89.1602611,2.28297872 C89.3473532,2.52978723 89.4408992,2.86914894 89.4408992,3.30106383 L89.4408992,4.75106383 C89.4408992,5.39893617 89.1914431,5.73829787 88.7237128,5.73829787 C88.4742567,5.73829787 88.0688905,5.61489362 87.5387962,5.36808511 C85.7614213,4.56595745 83.7657723,4.16489362 81.5518492,4.16489362 C79.7744743,4.16489362 78.3712835,4.44255319 77.404641,5.0287234 C76.4379985,5.61489362 75.9390863,6.50957447 75.9390863,7.77446809 C75.9390863,8.63829787 76.2509065,9.3787234 76.8745468,9.96489362 C77.4981871,10.5510638 78.6519217,11.137234 80.3045685,11.6617021 L84.7324148,13.05 C86.9775199,13.7595745 88.5989848,14.7468085 89.5656273,16.0117021 C90.5322698,17.2765957 91,18.7265957 91,20.3308511 C91,21.6574468 90.7193619,22.8606383 90.1892676,23.9095745 C89.6279913,24.9585106 88.8796229,25.8840426 87.9129804,26.6244681 C86.9463379,27.3957447 85.7926033,27.9510638 84.4517766,28.3521277 C83.0485859,28.7840426 81.5830312,29 79.9927484,29 Z" id="Shape" fill="#FFFFFF"></path>
                <path d="M84.9839634,43.4621781 C74.6983009,50.9989811 59.7543899,55 46.9051276,55 C28.8974023,55 12.6716915,48.3936665 0.416433979,37.4141264 C-0.552731793,36.5456882 0.322643743,35.3670935 1.47938999,36.0494378 C14.7350767,43.6792877 31.0858411,48.3006196 47.999347,48.3006196 C59.4104924,48.3006196 71.9471206,45.9434302 83.4833196,41.1049887 C85.2028073,40.3295975 86.6721877,42.2215521 84.9839634,43.4621781 Z M89.2670509,38.6237367 C87.9539876,36.9488916 80.5758223,37.8173298 77.2306372,38.2205333 C76.2302081,38.3445959 76.073891,37.4761577 76.9805299,36.824829 C82.8580514,32.7307632 92.5184457,33.9093579 93.6439285,35.2740465 C94.7694114,36.6697508 93.3312944,46.2535867 87.8289339,50.8439029 C86.9848218,51.5572628 86.1719731,51.185075 86.547134,50.2546055 C87.7976705,47.1840562 90.5801142,40.2675662 89.2670509,38.6237367 Z" id="Shape" fill="#FF9900"></path>
            </g>
        </g>
    </g>
</svg>