<?xml version="1.0" encoding="UTF-8"?>
<svg width="47px" height="10px" viewBox="0 0 47 10" version="1.1" xmlns="http://www.w3.org/2000/svg" xmlns:xlink="http://www.w3.org/1999/xlink">
    <!-- Generator: sketchtool 63.1 (101010) - https://sketch.com -->
    <title>8847563B-54AC-4FB0-8010-AD996DF48B61</title>
    <desc>Created with sketchtool.</desc>
    <g id="Page-2" stroke="none" stroke-width="1" fill="none" fill-rule="evenodd">
        <g id="7_End-User_dropdown" transform="translate(-815.000000, -243.000000)" fill-rule="nonzero">
            <g id="Group-2" transform="translate(804.000000, 218.000000)">
                <g id="no2" transform="translate(11.000000, 17.000000)">
                    <g id="microsoft" transform="translate(0.000000, 8.000000)">
                        <path d="M46.8165247,4.52148175 L46.8165247,3.69814256 L45.7940534,3.69814256 L45.7940534,2.4181626 L45.7596343,2.42876004 L44.7992984,2.72258978 L44.7803679,2.72834138 L44.7803679,3.69818784 L43.2646177,3.69818784 L43.2646177,3.15789981 C43.2646177,2.90632394 43.3208656,2.71380387 43.4317311,2.58541187 C43.5418267,2.45855966 43.6992937,2.39406929 43.9001468,2.39406929 C44.0445255,2.39406929 44.1940218,2.42808071 44.3444691,2.49515252 L44.3821942,2.51199972 L44.3821942,1.64491214 L44.3644412,1.63839064 C44.2240932,1.58793961 44.0332035,1.56253294 43.7965727,1.56253294 C43.49835,1.56253294 43.2273908,1.6274309 42.991077,1.75604935 C42.7546274,1.88484894 42.5686289,2.06871897 42.4383348,2.30249658 C42.3084935,2.53600246 42.2425992,2.8056936 42.2425992,3.10414273 L42.2425992,3.69814256 L41.530669,3.69814256 L41.530669,4.52148175 L42.2425992,4.52148175 L42.2425992,7.9900585 L43.2646177,7.9900585 L43.2646177,4.52148175 L44.7803679,4.52148175 L44.7803679,6.72570297 C44.7803679,7.63350462 45.2085677,8.093542 46.0530565,8.093542 C46.1918195,8.093542 46.3378739,8.07728354 46.4870079,8.04544595 C46.6388139,8.01274788 46.7422068,7.9800951 46.8030741,7.94522319 L46.8165247,7.93725247 L46.8165247,7.10630487 L46.7749501,7.1337948 C46.7194721,7.17074995 46.6504076,7.20095717 46.5694324,7.22342011 C46.4880948,7.24629065 46.4201625,7.25774856 46.3675376,7.25774856 C46.1697188,7.25774856 46.0233474,7.20444436 45.9325446,7.09923991 C45.8407002,6.99308441 45.7940986,6.80744814 45.7940986,6.54776569 L45.7940986,4.52148175 L46.8165247,4.52148175 Z M39.2483256,7.25788442 C38.8773701,7.25788442 38.584899,7.13488171 38.3787925,6.89258993 C38.1714179,6.64907536 38.0663493,6.30189614 38.0663493,5.86078922 C38.0663493,5.40568826 38.1714179,5.04949669 38.3788831,4.80167974 C38.5851255,4.55549317 38.8747887,4.43054307 39.2399926,4.43054307 C39.5943726,4.43054307 39.8764727,4.54987744 40.0785486,4.78542129 C40.2816208,5.02218791 40.3846968,5.37552633 40.3846968,5.83592601 C40.3846968,6.30198671 40.28778,6.65998981 40.0966639,6.89947373 C39.9068611,7.13714612 39.621455,7.25788442 39.2483256,7.25788442 L39.2483256,7.25788442 Z M39.2937497,3.59474963 C38.5860312,3.59474963 38.0239143,3.80212423 37.6231138,4.21112182 C37.2225851,4.6201647 37.0195129,5.18622172 37.0195129,5.89371373 C37.0195129,6.56569981 37.2177393,7.10621429 37.6087575,7.49999505 C37.9997757,7.89391168 38.5319118,8.09345142 39.1902662,8.09345142 C39.8762916,8.09345142 40.4272224,7.88317838 40.8278416,7.46851977 C41.2284156,7.05431403 41.431352,6.49360102 41.431352,5.80263919 C41.431352,5.12014626 41.2409152,4.57560113 40.8651591,4.18444708 C40.4892219,3.79311188 39.960437,3.59474963 39.2937497,3.59474963 L39.2937497,3.59474963 Z M35.3717023,3.59474963 C34.8902889,3.59474963 34.4920699,3.7178882 34.1878692,3.96067816 C33.8818116,4.20491734 33.7265638,4.52524067 33.7265638,4.91286224 C33.7265638,5.11434937 33.760077,5.29332827 33.8260166,5.44513427 C33.8923638,5.59743843 33.9950321,5.73153674 34.1314401,5.84407788 C34.2668065,5.95571326 34.4757662,6.07264735 34.7526581,6.19161941 C34.9854394,6.28740392 35.159029,6.36842448 35.2693058,6.43228082 C35.3770916,6.49486909 35.4535834,6.55777438 35.4967883,6.61904929 C35.5387705,6.67901085 35.5600559,6.76107304 35.5600559,6.86233742 C35.5600559,7.15068729 35.3441218,7.29099008 34.8997995,7.29099008 C34.7349958,7.29099008 34.5470045,7.25657106 34.3410791,7.18872936 C34.1366166,7.12191337 33.9436396,7.02406543 33.7689082,6.89861325 L33.7264732,6.86817959 L33.7264732,7.85215598 L33.7420523,7.85940209 C33.8866575,7.92615687 34.0689877,7.98245008 34.2838802,8.02674193 C34.498365,8.07107906 34.69324,8.09363257 34.8625273,8.09363257 C35.3849265,8.09363257 35.8056084,7.96990526 36.1125717,7.72566608 C36.4214825,7.47975124 36.5780437,7.15186478 36.5780437,6.75083791 C36.5780437,6.46153699 36.4937624,6.21344831 36.3276453,6.01336512 C36.1626605,5.81491229 35.8763033,5.63271793 35.4769068,5.47167314 C35.158712,5.34396046 34.9548699,5.23794082 34.8707697,5.15655796 C34.7897039,5.07793767 34.7485369,4.96675518 34.7485369,4.82595421 C34.7485369,4.70113997 34.7993503,4.60114366 34.903649,4.52016839 C35.0087628,4.43878552 35.155089,4.39739212 35.3385967,4.39739212 C35.5088802,4.39739212 35.6831039,4.4242933 35.8563765,4.47700875 C36.0295132,4.5297242 36.1815909,4.60032848 36.3085337,4.68669304 L36.3502894,4.7152246 L36.3502894,3.78183512 L36.3342574,3.77495132 C36.2171422,3.72472672 36.0627095,3.68174823 35.8751258,3.64687633 C35.6884026,3.61223087 35.5190248,3.59474963 35.3717023,3.59474963 L35.3717023,3.59474963 Z M31.0622146,7.25788442 C30.6913496,7.25788442 30.398788,7.13488171 30.1927267,6.89258993 C29.9853068,6.64907536 29.8804194,6.30198671 29.8804194,5.86078922 C29.8804194,5.40568826 29.9854427,5.04949669 30.1929532,4.80167974 C30.3990144,4.55549317 30.6886323,4.43054307 31.0540174,4.43054307 C31.4082616,4.43054307 31.6903617,4.54987744 31.8924829,4.78542129 C32.0956004,5.02218791 32.198631,5.37552633 32.198631,5.83592601 C32.198631,6.30198671 32.101669,6.65998981 31.9105529,6.89947373 C31.7207501,7.13714612 31.4354798,7.25788442 31.0622146,7.25788442 L31.0622146,7.25788442 Z M31.1077745,3.59474963 C30.3998749,3.59474963 29.8377127,3.80212423 29.4371387,4.21112182 C29.03661,4.6201647 28.8334019,5.18622172 28.8334019,5.89371373 C28.8334019,6.56597154 29.0317641,7.10621429 29.4227823,7.49999505 C29.8138005,7.89391168 30.3458914,8.09345142 31.0042457,8.09345142 C31.6901805,8.09345142 32.2412472,7.88317838 32.6418665,7.46851977 C33.0423499,7.05431403 33.2453768,6.49360102 33.2453768,5.80263919 C33.2453768,5.12014626 33.0548947,4.57560113 32.6790481,4.18444708 C32.3030203,3.79311188 31.774326,3.59474963 31.1077745,3.59474963 L31.1077745,3.59474963 Z M27.2820098,4.44141224 L27.2820098,3.69814256 L26.2724456,3.69814256 L26.2724456,7.98996792 L27.2820098,7.98996792 L27.2820098,5.79453261 C27.2820098,5.42122211 27.3666535,5.11453052 27.5336763,4.88288146 C27.6985706,4.65399497 27.9183088,4.53801193 28.186596,4.53801193 C28.2775347,4.53801193 28.3796143,4.55300232 28.4901627,4.58266608 C28.599579,4.61214869 28.6788333,4.64416744 28.7255707,4.67786185 L28.7680057,4.70861253 L28.7680057,3.69080587 L28.7516567,3.6837862 C28.6576384,3.64384202 28.524627,3.62368878 28.3563361,3.62368878 C28.1026317,3.62368878 27.8756021,3.70520751 27.6811346,3.86570884 C27.5104434,4.00678153 27.3870784,4.20020737 27.2927431,4.44141224 L27.2820098,4.44141224 Z M24.464496,3.59474963 C24.0013338,3.59474963 23.5882149,3.69406662 23.2368239,3.88984744 C22.8847083,4.08608114 22.6123904,4.36623385 22.4271165,4.72247071 C22.2426577,5.07784709 22.1490017,5.49295859 22.1490017,5.95589441 C22.1490017,6.36140481 22.2398045,6.73353782 22.4192816,7.06151485 C22.5988493,7.39003534 22.8530066,7.64704579 23.1747338,7.82530008 C23.4960082,8.00332794 23.867326,8.09358729 24.2784522,8.09358729 C24.7582352,8.09358729 25.1678668,7.99766691 25.4962967,7.80849817 L25.5095662,7.80088975 L25.5095662,6.87596916 L25.4671311,6.90694628 C25.3183595,7.01532091 25.1521065,7.10182134 24.9732182,7.16413788 C24.7947828,7.22640913 24.6321076,7.25788442 24.4894498,7.25788442 C24.0933141,7.25788442 23.7753004,7.13393066 23.5444666,6.88955562 C23.3131345,6.64486356 23.1958381,6.3012621 23.1958381,5.86889581 C23.1958381,5.43381222 23.3181615,5.08137957 23.5592305,4.82133482 C23.7995749,4.56205996 24.1181773,4.43054307 24.5061159,4.43054307 C24.8379424,4.43054307 25.1613,4.54290306 25.4672217,4.76481516 L25.5095662,4.79556584 L25.5095662,3.8210094 L25.4958891,3.81331041 C25.3807666,3.74886532 25.2237524,3.69565171 25.0288321,3.65529993 C24.8347269,3.61503874 24.6448789,3.59474963 24.464496,3.59474963 L24.464496,3.59474963 Z M21.4536922,3.69818784 L20.444128,3.69818784 L20.444128,7.98996792 L21.4536922,7.98996792 L21.4536922,3.69818784 Z M20.9592358,1.86985855 C20.7930735,1.86985855 20.6481513,1.9264235 20.5290887,2.03851175 C20.4095279,2.15091703 20.348887,2.2924426 20.348887,2.45946543 C20.348887,2.62386154 20.4088033,2.76280569 20.5272319,2.87222194 C20.6448906,2.98132117 20.7902656,3.03661805 20.9592811,3.03661805 C21.1282513,3.03661805 21.2741699,2.98132117 21.3932325,2.87240309 C21.5130651,2.76280569 21.5738418,2.62390682 21.5738418,2.45946543 C21.5738418,2.29828478 21.5146954,2.15820842 21.3981689,2.04304057 C21.281733,1.92809916 21.1340029,1.86985855 20.9592358,1.86985855 L20.9592358,1.86985855 Z M18.440307,3.38153286 L18.440307,7.98996792 L19.4706132,7.98996792 L19.4706132,2.00123958 L18.0446242,2.00123958 L16.2321005,6.44949033 L14.4731527,2.00123958 L12.9891041,2.00123958 L12.9891041,7.98996792 L13.9573202,7.98996792 L13.9573202,3.38107998 L13.9905618,3.38107998 L15.8479661,7.98996792 L16.5786456,7.98996792 L18.4070655,3.38153286 L18.440307,3.38153286 L18.440307,3.38153286 Z" id="Shape" fill="#706D6E"></path>
                        <polygon id="Path" fill="#F1511B" points="4.74928131 4.74928131 0 4.74928131 0 0 4.74928131 0"></polygon>
                        <polygon id="Path" fill="#80CC28" points="9.99301903 4.74928131 5.24382829 4.74928131 5.24382829 0 9.99301903 0"></polygon>
                        <polygon id="Path" fill="#00ADEF" points="4.74914545 9.99487584 0 9.99487584 0 5.24563981 4.74914545 5.24563981"></polygon>
                        <polygon id="Path" fill="#FBBC09" points="9.99301903 9.99487584 5.24382829 9.99487584 5.24382829 5.24563981 9.99301903 5.24563981"></polygon>
                    </g>
                </g>
            </g>
        </g>
    </g>
</svg>