<?xml version="1.0" encoding="UTF-8"?>
<svg width="223px" height="186px" viewBox="0 0 223 186" version="1.1" xmlns="http://www.w3.org/2000/svg" xmlns:xlink="http://www.w3.org/1999/xlink">
    <!-- Generator: sketchtool 63.1 (101010) - https://sketch.com -->
    <title>A468BF2E-8960-4C92-A76F-49723E1DF832</title>
    <desc>Created with sketchtool.</desc>
    <defs>
        <filter x="-44.3%" y="-58.3%" width="188.6%" height="216.7%" filterUnits="objectBoundingBox" id="filter-1">
            <feMorphology radius="1" operator="dilate" in="SourceAlpha" result="shadowSpreadOuter1"></feMorphology>
            <feOffset dx="0" dy="3" in="shadowSpreadOuter1" result="shadowOffsetOuter1"></feOffset>
            <feGaussianBlur stdDeviation="16.5" in="shadowOffsetOuter1" result="shadowBlurOuter1"></feGaussianBlur>
            <feComposite in="shadowBlurOuter1" in2="SourceAlpha" operator="out" result="shadowBlurOuter1"></feComposite>
            <feColorMatrix values="0 0 0 0 0.0745098039   0 0 0 0 0.568627451   0 0 0 0 1  0 0 0 0.355059003 0" type="matrix" in="shadowBlurOuter1" result="shadowMatrixOuter1"></feColorMatrix>
            <feMerge>
                <feMergeNode in="shadowMatrixOuter1"></feMergeNode>
                <feMergeNode in="SourceGraphic"></feMergeNode>
            </feMerge>
        </filter>
    </defs>
    <g id="Page-2" stroke="none" stroke-width="1" fill="none" fill-rule="evenodd" opacity="0.5">
        <g id="2_Select-template" transform="translate(-609.000000, -400.000000)" fill="#1391FF" fill-rule="nonzero">
            <g id="icon" filter="url(#filter-1)" transform="translate(642.000000, 430.000000)">
                <path d="M38.8207708,20.151236 C38.8207708,18.9708642 39.783825,18.0139837 40.9718125,18.0139837 L46.2977917,18.0139837 C47.4857792,18.0139837 48.4488333,18.9708642 48.4488333,20.151236 C48.4488333,21.3316079 47.4857792,22.2884884 46.2977917,22.2884884 L40.9718125,22.2884884 C39.783825,22.2884884 38.8207708,21.3316079 38.8207708,20.151236 L38.8207708,20.151236 Z M157.333333,5.80111341 L157.333333,114.198887 C157.329946,117.401358 154.717925,119.996634 151.494792,120 L5.83854167,120 C2.61492894,119.996633 0.00270998727,117.400614 0,114.197665 L0,5.80111341 C0.0033874262,2.5986421 2.6154083,0.00336571094 5.83854167,0 L151.494792,0 C154.717925,0.00336571094 157.329946,2.5986421 157.333333,5.80111341 Z M153.03125,114.198887 L153.03125,22.2884884 L58.3854167,22.2884884 C57.1974292,22.2884884 56.234375,21.3316079 56.234375,20.151236 C56.234375,18.9708642 57.1974292,18.0139837 58.3854167,18.0139837 L153.03125,18.0139837 L153.03125,5.80111341 C153.03125,4.95826977 152.343073,4.27450462 151.494792,4.27450462 L5.83854167,4.27450462 C4.99026008,4.27450462 4.30208333,4.95826977 4.30208333,5.80111341 L4.30208333,18.0139837 L28.8854167,18.0139837 C30.0734042,18.0139837 31.0364583,18.9708642 31.0364583,20.151236 C31.0364583,21.3316079 30.0734042,22.2884884 28.8854167,22.2884884 L4.30208333,22.2884884 L4.30208333,114.198887 C4.30208333,115.04173 4.99026008,115.725495 5.83854167,115.725495 L151.494792,115.725495 C152.343553,115.725495 153.03125,115.040986 153.03125,114.197665 L153.03125,114.198887 Z M145.041667,32.3641064 L145.041667,51.1108623 C145.041667,52.2912342 144.078613,53.2481146 142.890625,53.2481146 L14.4427083,53.2481146 C13.2547208,53.2481146 12.2916667,52.2912342 12.2916667,51.1108623 L12.2916667,32.3641064 C12.2916667,31.1837345 13.2547208,30.2268541 14.4427083,30.2268541 L142.890625,30.2268541 C144.078613,30.2268541 145.041667,31.1837345 145.041667,32.3641064 L145.041667,32.3641064 Z M140.739583,34.5013587 L16.59375,34.5013587 L16.59375,48.97361 L140.739583,48.97361 L140.739583,34.5013587 Z M145.041667,59.6330032 L145.041667,78.3797592 C145.041667,79.5601311 144.078613,80.5170115 142.890625,80.5170115 L59.3835,80.5170115 C58.1955125,80.5170115 57.2324583,79.5601311 57.2324583,78.3797592 L57.2324583,59.6330032 C57.2324583,58.4526314 58.1955125,57.4957509 59.3835,57.4957509 L142.890625,57.4957509 C144.078613,57.4957509 145.041667,58.4526314 145.041667,59.6330032 L145.041667,59.6330032 Z M140.739583,61.7702556 L61.5345417,61.7702556 L61.5345417,76.2425069 L140.739583,76.2425069 L140.739583,61.7702556 Z M145.041667,86.9019001 L145.041667,105.648656 C145.041667,106.829028 144.078613,107.785908 142.890625,107.785908 L59.3835,107.785908 C58.1955125,107.785908 57.2324583,106.829028 57.2324583,105.648656 L57.2324583,86.9019001 C57.2324583,85.7215283 58.1955125,84.7646478 59.3835,84.7646478 L142.890625,84.7646478 C144.078613,84.7646478 145.041667,85.7215283 145.041667,86.9019001 L145.041667,86.9019001 Z M140.739583,89.0391524 L61.5345417,89.0391524 L61.5345417,103.511404 L140.739583,103.511404 L140.739583,89.0391524 Z M50.8051458,57.4957509 L14.4427083,57.4957509 C13.2547208,57.4957509 12.2916667,58.4526314 12.2916667,59.6330032 L12.2916667,81.6772342 C12.2916667,82.857606 13.2547208,83.8144865 14.4427083,83.8144865 C15.6306958,83.8144865 16.59375,82.857606 16.59375,81.6772342 L16.59375,61.7702556 L48.6541042,61.7702556 L48.6541042,103.511404 L16.59375,103.511404 L16.59375,97.4049686 C16.59375,96.2245967 15.6306958,95.2677163 14.4427083,95.2677163 C13.2547208,95.2677163 12.2916667,96.2245967 12.2916667,97.4049686 L12.2916667,105.65232 C12.2916667,106.832692 13.2547208,107.789572 14.4427083,107.789572 L50.8051458,107.789572 C51.9931333,107.789572 52.9561875,106.832692 52.9561875,105.65232 L52.9561875,59.6330032 C52.9561875,58.4526314 51.9931333,57.4957509 50.8051458,57.4957509 L50.8051458,57.4957509 Z M137.513021,13.2851603 L142.890625,13.2851603 C144.078613,13.2851603 145.041667,12.3282799 145.041667,11.147908 C145.041667,9.96753618 144.078613,9.01065573 142.890625,9.01065573 L137.513021,9.01065573 C136.325033,9.01065573 135.361979,9.96753618 135.361979,11.147908 C135.361979,12.3282799 136.325033,13.2851603 137.513021,13.2851603 L137.513021,13.2851603 Z M121.072917,13.2851603 L126.450521,13.2851603 C127.638508,13.2851603 128.601562,12.3282799 128.601562,11.147908 C128.601562,9.96753618 127.638508,9.01065573 126.450521,9.01065573 L121.072917,9.01065573 C119.884929,9.01065573 118.921875,9.96753618 118.921875,11.147908 C118.921875,12.3282799 119.884929,13.2851603 121.072917,13.2851603 Z M104.632812,13.2851603 L110.010417,13.2851603 C111.198404,13.2851603 112.161458,12.3282799 112.161458,11.147908 C112.161458,9.96753618 111.198404,9.01065573 110.010417,9.01065573 L104.632812,9.01065573 C103.444825,9.01065573 102.481771,9.96753618 102.481771,11.147908 C102.481771,12.3282799 103.444825,13.2851603 104.632812,13.2851603 Z" id="Shape"></path>
            </g>
        </g>
    </g>
</svg>