<?xml version="1.0" encoding="UTF-8"?>
<svg width="74px" height="25px" viewBox="0 0 74 25" version="1.1" xmlns="http://www.w3.org/2000/svg" xmlns:xlink="http://www.w3.org/1999/xlink">
    <!-- Generator: sketchtool 60.1 (101010) - https://sketch.com -->
    <title>FC1468AC-34CB-416D-BCDF-703F87C9389C</title>
    <desc>Created with sketchtool.</desc>
    <g id="End-User" stroke="none" stroke-width="1" fill="none" fill-rule="evenodd">
        <g id="5.data_source_27Nov" transform="translate(-110.000000, -366.000000)" fill="#FFFFFF" fill-rule="nonzero">
            <g id="datasource" transform="translate(100.000000, 226.000000)">
                <g id="datasource9" transform="translate(0.000000, 130.000000)">
                    <path d="M66.7629711,31.1746988 C68.2280175,31.1746988 68.7635172,32.1987952 68.7534134,33.0823293 C68.7534134,33.9658635 68.2280175,35 66.7629711,35 C66.1365374,35 65.6414528,34.8092369 65.2878209,34.4578313 C64.9543965,34.1164659 64.7725287,33.624498 64.7725287,33.0823293 C64.7725287,32.5401606 64.9543965,32.0481928 65.2878209,31.7168675 C65.6414528,31.3554217 66.1365374,31.1746988 66.7629711,31.1746988 Z M79.3118514,31.1746988 C80.2413981,31.1746988 80.8072092,31.6064257 80.8476242,32.3393574 L80.8476242,32.3393574 L80.8476242,32.4096386 L80.2211906,32.4096386 L80.2110868,32.3594378 C80.1706718,32.0983936 80.029219,31.7570281 79.2411251,31.7570281 C78.9885309,31.7570281 78.7561442,31.8373494 78.6247952,31.9678715 C78.543965,32.0481928 78.50355,32.1485944 78.50355,32.2690763 C78.50355,32.4096386 78.5540688,32.5903614 79.0188422,32.6706827 C79.0188422,32.6706827 79.8675587,32.8212851 79.8776625,32.8212851 C80.1403605,32.8714859 80.9587657,33.0220884 80.9587657,33.7851406 C80.9587657,34.1164659 80.857728,34.37751 80.6556526,34.5883534 C80.3020208,34.9497992 79.726106,35 79.4128891,35 C78.9986346,35 78.4328236,34.9196787 78.0791917,34.5682731 C77.8670126,34.3473896 77.7558711,34.0562249 77.7558711,33.6947791 L77.7558711,33.6947791 L77.7558711,33.624498 L78.3924085,33.624498 L78.3924085,33.6947791 C78.4025123,34.3273092 79.0592572,34.4176707 79.4432004,34.4176707 C79.7867286,34.4176707 80.0494265,34.3373494 80.2009831,34.186747 C80.2818132,34.1064257 80.3222283,34.0060241 80.3222283,33.8855422 C80.3222283,33.6345382 80.1504642,33.5040161 79.726106,33.4236948 L79.726106,33.4236948 L78.9481158,33.2931727 C78.675314,33.253012 77.8670126,33.1124498 77.8670126,32.3092369 C77.8670126,31.6064257 78.4227198,31.1746988 79.3118514,31.1746988 Z M54.3353359,31.2550201 L54.3353359,31.7971888 L51.9609503,31.7971888 L51.9609503,32.811245 L54.1534681,32.811245 L54.1534681,33.373494 L51.9609503,33.373494 L51.9609503,34.3875502 L54.3050246,34.3875502 L54.3050246,34.9598394 L51.3749317,34.9598394 L51.3850355,31.2550201 L54.3353359,31.2550201 Z M58.1141453,31.2550201 L58.1141453,31.7971888 L58.1141453,31.7971888 L56.729929,31.7971888 L56.729929,31.7971888 L56.729929,34.9598394 L56.164118,34.9598394 C56.164118,34.9598394 56.172541,32.4237403 56.1740058,31.8909739 L56.1742217,31.7971888 L54.7799017,31.7971888 L54.7799017,31.2550201 L58.1141453,31.2550201 Z M74.2094484,31.2650602 L74.2094484,32.9518072 C74.3913162,32.7911647 76.058438,31.2650602 76.058438,31.2650602 L76.058438,31.2650602 L76.9677772,31.2650602 C76.9677772,31.2650602 75.3410705,32.7108434 75.2501365,32.7911647 C75.3144332,32.8733114 76.7314659,34.5900959 76.9885768,34.9015597 L77.0283998,34.9497992 L76.1594757,34.9497992 C76.1594757,34.9497992 74.8459858,33.313253 74.7651557,33.2228916 C74.6944293,33.2931727 74.2397597,33.6947791 74.2094484,33.7248996 L74.2094484,33.7248996 L74.2094484,34.9497992 L73.6537411,34.9497992 L73.6537411,31.2650602 L74.2094484,31.2650602 Z M71.653195,31.2650602 C72.4008738,31.2650602 72.6635718,31.8072289 72.6635718,32.2590361 C72.6635718,32.6706827 72.4716002,32.9718876 72.1583834,33.1325301 C72.4109776,33.2329317 72.5625341,33.4939759 72.5827417,33.8855422 C72.613053,34.5180723 72.6332605,34.6787149 72.7342982,34.8092369 L72.7342982,34.8092369 L72.8252321,34.9297189 L72.1179683,34.9297189 L72.0977608,34.8895582 C72.0068269,34.7791165 72.0068269,34.6485944 71.9866193,34.2971888 L71.9866193,34.2971888 L71.9765156,34.1767068 C71.9462043,33.5441767 71.7340251,33.3835341 71.3702895,33.3835341 L71.3702895,33.3835341 L70.0567996,33.3835341 L70.0567996,33.3835341 L70.0567996,34.9497992 L69.470781,34.9497992 L69.470781,31.2650602 Z M47.69716,31.2550201 C47.69716,31.2550201 49.7987439,33.7248996 49.9806117,33.9558233 L49.9806117,33.9558233 L49.9806117,31.2550201 L50.536319,31.2550201 L50.536319,34.939759 L49.7886401,34.939759 C49.7886401,34.939759 47.7678864,32.4698795 47.5860186,32.2389558 L47.5860186,32.2389558 L47.5860186,34.939759 L47.0101038,34.939759 L47.0101038,31.2550201 Z M59.3164937,31.2550201 C59.3164937,31.2550201 60.0641726,33.6947791 60.1652103,33.9959839 C60.2561442,33.6947791 61.0442381,31.2650602 61.0442381,31.2650602 L61.0442381,31.2650602 L61.7413981,31.2650602 C61.7413981,31.2650602 62.5496996,33.6947791 62.6507373,33.9959839 C62.7416712,33.6947791 63.4994539,31.2650602 63.4994539,31.2650602 L63.4994539,31.2650602 L64.1561988,31.2650602 L62.9437466,34.9297189 L62.2971054,34.9297189 C62.2971054,34.9297189 61.4685964,32.3995984 61.3776625,32.1084337 C61.2766248,32.3995984 60.4582196,34.939759 60.4582196,34.939759 L60.4582196,34.939759 L59.8014746,34.939759 L58.6294375,31.2550201 Z M66.7629711,31.746988 L66.6105857,31.7530866 C66.262203,31.781501 65.9660363,31.9088855 65.762698,32.1285141 C65.5303113,32.3594378 65.4696887,32.6807229 65.4696887,33.0823293 L65.4696887,33.0823293 L65.4595849,33.0823293 C65.4595849,33.4839357 65.5303113,33.815261 65.762698,34.0461847 C65.9950847,34.2871486 66.3386128,34.3674699 66.7629711,34.3674699 C67.5914801,34.3674699 68.1067723,33.9056225 68.1067723,33.0823293 C68.1067723,32.2590361 67.5914801,31.7570281 66.7629711,31.746988 L66.7629711,31.746988 Z M82.9188968,31.2650602 C83.5150191,31.2650602 84,31.7570281 84,32.3694779 C84,32.9718876 83.5150191,33.4738956 82.9188968,33.4738956 C82.3227744,33.4738956 81.8377936,32.9718876 81.8377936,32.3694779 C81.8377936,31.7570281 82.3227744,31.2650602 82.9188968,31.2650602 Z M82.9188968,31.4257028 C82.4137084,31.4257028 82.0095576,31.8473896 82.0095576,32.3694779 C82.0095576,32.8815261 82.4137084,33.3032129 82.9188968,33.3032129 C83.4240852,33.3032129 83.8282359,32.8815261 83.8282359,32.3694779 C83.8282359,31.8473896 83.4240852,31.4257028 82.9188968,31.4257028 Z M82.9694156,31.7369478 C83.171491,31.7369478 83.3432551,31.9176707 83.3432551,32.1184739 C83.3432551,32.2991968 83.2422174,32.4096386 83.0906608,32.4497992 L83.3735664,32.9718876 L83.1815948,32.9718876 L82.908793,32.5200803 L82.7471327,32.5200803 L82.7471327,32.9919679 L82.5652649,32.9919679 L82.5652649,31.7369478 L82.9694156,31.7369478 Z M71.4814309,31.8072289 L70.0466958,31.8072289 L70.0466958,32.8313253 C70.1578372,32.8313253 71.4612234,32.8413655 71.4612234,32.8413655 C71.956308,32.8413655 72.0270344,32.5301205 72.0270344,32.3393574 C72.0270344,32.0180723 71.8350628,31.8072289 71.4814309,31.8072289 L71.4814309,31.8072289 Z M82.9492081,31.937751 L82.9492081,31.9477912 L82.7269252,31.9477912 L82.7269252,32.3293173 L82.9492081,32.3293173 C83.0805571,32.3293173 83.171491,32.248996 83.171491,32.1184739 C83.171491,31.997992 83.0805571,31.937751 82.9492081,31.937751 Z M15.0821955,14.939759 C16.2037138,14.939759 17.2039869,15.3313253 17.8203168,15.9538153 C18.9418351,17.1084337 19.0630803,19.0361446 19.0630803,20.7730924 C19.0630803,22.5 18.9418351,24.4678715 17.8203168,25.6124498 C17.2039869,26.2449799 16.2239214,26.626506 15.1024031,26.626506 C13.9101584,26.626506 13.1826871,26.3052209 12.3642818,25.3212851 L12.3642818,25.3212851 L12.3642818,31.0040161 L10,31.0040161 L10,15.62249 C10.2525942,15.2811245 10.5557073,15.060241 11.0103768,15.060241 C11.4549427,15.060241 11.8995085,15.2811245 12.1521027,15.62249 L12.1521027,15.62249 L12.1521027,16.2951807 C12.9907155,15.2610442 13.8596395,14.939759 15.0821955,14.939759 Z M42.0087384,15.0803213 C43.5344074,15.0803213 44.6357182,15.6626506 45.3631895,16.4257028 C46.4240852,17.5502008 46.6968869,18.9959839 46.6968869,20.9036145 C46.6968869,22.8413655 46.4240852,24.2871486 45.3631895,25.4116466 C44.6357182,26.1746988 43.5344074,26.7570281 42.0087384,26.7570281 C40.4830694,26.7570281 39.4019661,26.1746988 38.6744948,25.4116466 C37.6135991,24.2871486 37.3407974,22.8413655 37.3407974,20.9036145 C37.3407974,18.9959839 37.6135991,17.5502008 38.6744948,16.4257028 C39.4019661,15.6626506 40.4830694,15.0803213 42.0087384,15.0803213 Z M75.6744948,15.0702811 C77.2001638,15.0702811 78.3014746,15.6626506 79.0289459,16.4257028 C80.0898416,17.5502008 80.3121245,18.9859438 80.3121245,20.9036145 C80.3121245,22.8413655 80.0898416,24.2771084 79.0289459,25.4016064 C78.3014746,26.1646586 77.2001638,26.7570281 75.6744948,26.7570281 C74.1488258,26.7570281 73.0576188,26.1646586 72.3301475,25.4016064 C71.2692518,24.2771084 70.9459312,22.8413655 70.9459312,20.9036145 C70.9459312,18.9859438 71.2692518,17.5502008 72.3301475,16.4257028 C73.0576188,15.6626506 74.1488258,15.0702811 75.6744948,15.0702811 Z M25.2667941,14.8995984 C28.3383397,14.8995984 29.8842163,16.2449799 29.8842163,18.8353414 L29.8842163,26.4658635 L27.7018023,26.4658635 L27.7018023,25.4317269 C26.8833971,26.2650602 26.0851993,26.5963855 24.6908793,26.5963855 C23.2965593,26.5963855 22.3670126,26.2650602 21.6799563,25.562249 C21.1040415,24.9598394 20.8009285,24.0763052 20.8009285,23.1124498 C20.8009285,21.1947791 22.1043146,19.7791165 24.6706718,19.7791165 L27.5502458,19.7791165 L27.5502458,19.0160643 C27.5502458,17.5803213 26.9238121,16.87751 25.1758602,16.87751 C23.9330967,16.87751 23.3369743,17.1686747 22.7206445,17.9819277 L21.2454943,16.5662651 C22.30639,15.3012048 23.4077007,14.8995984 25.2667941,14.8995984 Z M52.6682141,14.8594378 C55.7397597,14.8594378 57.29574,16.1947791 57.29574,18.7751004 L57.29574,26.435743 L54.9819771,26.435743 L54.9819771,25.3714859 C54.1635718,26.2048193 53.4866193,26.5863454 52.0922993,26.5863454 C50.6979792,26.5863454 49.7785363,26.2048193 49.0914801,25.502008 C48.5155653,24.8995984 48.2023484,23.9759036 48.2023484,23.0120482 C48.2023484,21.0943775 49.5057346,19.7791165 52.0720918,19.7791165 L54.7900055,19.7791165 L54.7900055,18.9558233 C54.7900055,17.5200803 54.3252321,16.8172691 52.5772802,16.8172691 C51.3446204,16.8172691 50.7484981,17.1084337 50.1321682,17.9216867 L48.6469143,16.5060241 C49.7078099,15.2409639 50.8091207,14.8594378 52.6682141,14.8594378 Z M32.9254506,10 C33.3902239,10 33.7943747,10.2208835 34.0570726,10.5722892 L34.0570726,10.5722892 L34.0570726,23.3032129 C34.0570726,24.186747 34.3702895,24.5080321 35.2796286,24.5080321 L35.2796286,24.5080321 L36.2495904,24.5080321 L36.2495904,26.4759036 L34.8754779,26.4759036 C32.733479,26.4759036 31.7028946,25.1305221 31.7028946,23.4437751 L31.7028946,23.4437751 L31.7028946,10.5722892 C31.9655926,10.2208835 32.470781,10 32.9254506,10 Z M60.2561442,10.0401606 C60.7209175,10.0401606 61.2463135,10.2610442 61.4989077,10.6124498 L61.4989077,10.6124498 L61.5090115,23.3433735 C61.5090115,24.2168675 61.7009831,24.5080321 62.6002185,24.5080321 L62.6002185,24.5080321 L63.4994539,24.5080321 L63.4994539,26.4658635 L62.2061715,26.4658635 C60.0641726,26.4658635 59.1346259,25.1706827 59.1346259,23.4839357 L59.1346259,23.4839357 L59.1346259,10.6124498 C59.3973239,10.2610442 59.7913708,10.0401606 60.2561442,10.0401606 Z M66.591207,11.2851406 C67.0559803,11.2851406 67.6015838,11.5160643 67.8642818,11.8574297 L67.8642818,11.8574297 L67.8642818,15.2108434 L70.0466958,15.2108434 L70.0466958,17.1686747 L67.8642818,17.1686747 L67.8642818,23.2329317 C67.8642818,24.0662651 68.1269798,24.5080321 68.9655926,24.5080321 L68.9655926,24.5080321 L69.8547242,24.5080321 L69.8547242,26.4558233 L68.5412343,26.4558233 C66.4396505,26.4558233 65.4898962,24.9899598 65.4898962,23.3433735 L65.4898962,23.3433735 L65.4898962,17.1686747 L64.10568,17.1686747 L64.10568,15.2108434 L65.4898962,15.2108434 L65.4898962,11.8574297 C65.7525942,11.5060241 66.1264336,11.2851406 66.591207,11.2851406 Z M42.0087384,17.1285141 C41.3418897,17.1285141 40.7962862,17.3493976 40.3719279,17.7811245 C39.6848717,18.4738956 39.6848717,19.6686747 39.6848717,20.9036145 C39.6848717,22.1485944 39.6848717,23.3433735 40.3719279,24.0361446 C40.7962862,24.4578313 41.3418897,24.7088353 42.0087384,24.7088353 C42.6755871,24.7088353 43.2413981,24.4578313 43.6657564,24.0361446 C44.2669306,23.4299699 44.326606,22.4394453 44.3321315,21.3672463 L44.3321315,20.4432966 C44.326606,19.3778238 44.2669306,18.3872992 43.6657564,17.7811245 C43.2413981,17.3493976 42.6755871,17.1285141 42.0087384,17.1285141 Z M75.6744948,17.1184739 C75.0076461,17.1184739 74.4519388,17.3493976 74.0376843,17.7710843 C73.3935691,18.4299699 73.3089106,19.5212491 73.3008443,20.6726442 L73.3001092,20.9036145 C73.3001092,22.1385542 73.3506281,23.3333333 74.0376843,24.0361446 C74.4519388,24.4578313 75.0076461,24.7088353 75.6744948,24.7088353 C76.3312398,24.7088353 76.9071546,24.4578313 77.3315128,24.0361446 C78.0084653,23.3333333 78.1701256,22.1385542 78.1701256,20.8935743 C78.1701256,19.6586345 78.0084653,18.4738956 77.3315128,17.7710843 C76.9071546,17.3493976 76.3312398,17.1184739 75.6744948,17.1184739 Z M27.540142,21.5261044 L24.9939924,21.5261044 C23.6703987,21.5261044 22.9833424,22.0281124 22.9833424,23.062249 C22.9833424,24.1064257 23.6299836,24.688755 25.0445112,24.688755 C25.9033315,24.688755 26.5499727,24.6184739 27.146095,24.0361446 C27.4694156,23.6947791 27.540142,23.1526104 27.540142,22.3493976 L27.540142,21.5261044 Z M54.7697979,21.5160643 L52.4055161,21.5160643 C51.0819224,21.5160643 50.3948662,21.9678715 50.3948662,23.0120482 C50.3948662,24.0461847 51.0314036,24.6285141 52.4459312,24.6285141 C53.3148553,24.6285141 53.9513927,24.5582329 54.547515,23.9759036 C54.8809394,23.6345382 54.7697979,23.1024096 54.7697979,22.2891566 L54.7697979,21.5160643 Z M14.5062807,16.9879518 C12.4653195,16.9879518 12.3642818,18.7449799 12.3642818,20.7730924 L12.3646339,20.962446 C12.3724911,22.9105386 12.5290995,24.5783133 14.5062807,24.5783133 C16.5371382,24.5783133 16.8200437,22.8012048 16.8200437,20.7730924 C16.8200437,18.7449799 16.5371382,16.9879518 14.5062807,16.9879518 Z" id="logo"></path>
                </g>
            </g>
        </g>
    </g>
</svg>