<?xml version="1.0" encoding="UTF-8"?>
<svg width="17px" height="18px" viewBox="0 0 17 18" version="1.1" xmlns="http://www.w3.org/2000/svg" xmlns:xlink="http://www.w3.org/1999/xlink">
    <!-- Generator: sketchtool 60.1 (101010) - https://sketch.com -->
    <title>271F2466-0DB4-45A6-A2AC-283380A5CBBE</title>
    <desc>Created with sketchtool.</desc>
    <g id="admin" stroke="none" stroke-width="1" fill="none" fill-rule="evenodd" opacity="0.5">
        <g id="3.add-text-fields_27Nov" transform="translate(-337.000000, -434.000000)">
            <g id="sidebar" transform="translate(320.000000, 244.000000)">
                <g id="fields" transform="translate(0.000000, 60.000000)">
                    <g id="radib-buttons" transform="translate(15.000000, 128.706468)">
                        <g id="radio_button_checked-24px">
                            <polygon id="Path" points="0 0 20 0 20 19.800995 0 19.800995"></polygon>
                            <path d="M10.3333333,1.9800995 C5.73333333,1.9800995 2,5.67628524 2,10.2305141 C2,14.784743 5.73333333,18.4809287 10.3333333,18.4809287 C14.9333333,18.4809287 18.6666667,14.784743 18.6666667,10.2305141 C18.6666667,5.67628524 14.9333333,1.9800995 10.3333333,1.9800995 Z M10.3333333,16.8308458 C6.65,16.8308458 3.66666667,13.8771973 3.66666667,10.2305141 C3.66666667,6.58383085 6.65,3.63018242 10.3333333,3.63018242 C14.0166667,3.63018242 17,6.58383085 17,10.2305141 C17,13.8771973 14.0166667,16.8308458 10.3333333,16.8308458 Z" id="Shape" fill="#FFFFFF" fill-rule="nonzero"></path>
                            <ellipse id="Oval" fill="#FFFFFF" fill-rule="nonzero" cx="10.1666667" cy="10.0655058" rx="4.16666667" ry="4.1252073"></ellipse>
                        </g>
                    </g>
                </g>
            </g>
        </g>
    </g>
</svg>