<?xml version="1.0" encoding="UTF-8"?>
<svg width="109px" height="14px" viewBox="0 0 109 14" version="1.1" xmlns="http://www.w3.org/2000/svg" xmlns:xlink="http://www.w3.org/1999/xlink">
    <!-- Generator: Sketch 52.6 (67491) - http://www.bohemiancoding.com/sketch -->
    <title>Group 2</title>
    <desc>Created with Sketch.</desc>
    <g id="Page-1" stroke="none" stroke-width="1" fill="none" fill-rule="evenodd">
        <g id="Group-2" transform="translate(-3.000000, -2.000000)">
            <g id="Remove-Channel-Copy" transform="translate(22.000000, 1.000000)" fill="#FFFFFF" font-family="NunitoSans-Regular, Nunito Sans" font-size="12" font-weight="normal">
                <text id="Remove-Channel">
                    <tspan x="0" y="12">Remove Channel</tspan>
                </text>
            </g>
            <g id="delete-copy-2">
                <g id="Group">
                    <polygon id="Path" points="0 0 18 0 18 18 0 18"></polygon>
                    <path d="M12,6.75 L12,14.25 L6,14.25 L6,6.75 L12,6.75 Z M10.875,2.25 L7.125,2.25 L6.375,3 L3.75,3 L3.75,4.5 L14.25,4.5 L14.25,3 L11.625,3 L10.875,2.25 Z M13.5,5.25 L4.5,5.25 L4.5,14.25 C4.5,15.075 5.175,15.75 6,15.75 L12,15.75 C12.825,15.75 13.5,15.075 13.5,14.25 L13.5,5.25 Z" id="Shape" fill="#FFFFFF" fill-rule="nonzero"></path>
                </g>
            </g>
        </g>
    </g>
</svg>