<?xml version="1.0" encoding="UTF-8"?>
<svg width="18px" height="18px" viewBox="0 0 18 18" version="1.1" xmlns="http://www.w3.org/2000/svg" xmlns:xlink="http://www.w3.org/1999/xlink">
    <!-- Generator: sketchtool 64 (101010) - https://sketch.com -->
    <title>C4BF5CA4-9DAB-4EB4-B519-C09A84BB1278</title>
    <desc>Created with sketchtool.</desc>
    <g id="New-updated_-screens" stroke="none" stroke-width="1" fill="none" fill-rule="evenodd">
        <g id="Pops-New-Role" transform="translate(-1096.000000, -426.000000)">
            <g id="CARD" transform="translate(301.000000, 199.000000)">
                <g id="Group-22" transform="translate(20.000000, 18.000000)">
                    <g id="Group-21" transform="translate(0.000000, 88.000000)">
                        <g id="Group-13" transform="translate(0.000000, 70.000000)">
                            <g id="all" transform="translate(177.000000, 0.000000)">
                                <g id="all-link" transform="translate(0.000000, 50.000000)">
                                    <g id="Group-14">
                                        <g id="remove" transform="translate(597.000000, 0.000000)">
                                            <g id="minus">
                                                <polygon id="Path" points="0 0 20 0 20 20 0 20"></polygon>
                                                <path d="M5.83333333,9.16666667 L5.83333333,10.8333333 L14.1666667,10.8333333 L14.1666667,9.16666667 L5.83333333,9.16666667 Z M10,1.66666667 C5.4,1.66666667 1.66666667,5.4 1.66666667,10 C1.66666667,14.6 5.4,18.3333333 10,18.3333333 C14.6,18.3333333 18.3333333,14.6 18.3333333,10 C18.3333333,5.4 14.6,1.66666667 10,1.66666667 Z M10,16.6666667 C6.325,16.6666667 3.33333333,13.675 3.33333333,10 C3.33333333,6.325 6.325,3.33333333 10,3.33333333 C13.675,3.33333333 16.6666667,6.325 16.6666667,10 C16.6666667,13.675 13.675,16.6666667 10,16.6666667 Z" id="Shape" fill="#FFFFFF" fill-rule="nonzero" opacity="0.492908296"></path>
                                            </g>
                                        </g>
                                    </g>
                                </g>
                            </g>
                        </g>
                    </g>
                </g>
            </g>
        </g>
    </g>
</svg>