<?xml version="1.0" encoding="UTF-8"?>
<svg width="9px" height="11px" viewBox="0 0 9 11" version="1.1" xmlns="http://www.w3.org/2000/svg" xmlns:xlink="http://www.w3.org/1999/xlink">
    <!-- Generator: Sketch 63.1 (92452) - https://sketch.com -->
    <title>ic delete@3x</title>
    <desc>Created with Sketch.</desc>
    <g id="Page-3" stroke="none" stroke-width="1" fill="none" fill-rule="evenodd" opacity="0.800000012">
        <g id="Artboard" transform="translate(-67.000000, -45.000000)">
            <g id="ic-delete" transform="translate(65.000000, 44.000000)">
                <g id="delete-24px">
                    <polygon id="Path" points="0 0 13 0 13 13 0 13"></polygon>
                    <path d="M8.66666667,4.875 L8.66666667,10.2916667 L4.33333333,10.2916667 L4.33333333,4.875 L8.66666667,4.875 M7.85416667,1.625 L5.14583333,1.625 L4.60416667,2.16666667 L2.70833333,2.16666667 L2.70833333,3.25 L10.2916667,3.25 L10.2916667,2.16666667 L8.39583333,2.16666667 L7.85416667,1.625 Z M9.75,3.79166667 L3.25,3.79166667 L3.25,10.2916667 C3.25,10.8875 3.7375,11.375 4.33333333,11.375 L8.66666667,11.375 C9.2625,11.375 9.75,10.8875 9.75,10.2916667 L9.75,3.79166667 Z" id="Shape" fill="#FFFFFF" fill-rule="nonzero"></path>
                </g>
            </g>
        </g>
    </g>
</svg>