<?xml version="1.0" encoding="UTF-8"?>
<svg width="16px" height="14px" viewBox="0 0 16 14" version="1.1" xmlns="http://www.w3.org/2000/svg" xmlns:xlink="http://www.w3.org/1999/xlink">
    <!-- Generator: sketchtool 64 (101010) - https://sketch.com -->
    <title>A1283549-53FE-492B-ACC6-B7913EEA8C3B</title>
    <desc>Created with sketchtool.</desc>
    <g id="New-updated_-screens" stroke="none" stroke-width="1" fill="none" fill-rule="evenodd">
        <g id="My-Organisation" transform="translate(-1203.000000, -78.000000)">
            <g id="top">
                <g id="heading-copy" transform="translate(30.000000, 70.000000)">
                    <g id="all" transform="translate(914.000000, 0.000000)">
                        <g id="btns" transform="translate(98.000000, 0.000000)">
                            <g id="stop" transform="translate(126.000000, 0.000000)">
                                <g id="btn-Stop">
                                    <g id="txt" transform="translate(34.000000, 6.000000)">
                                        <g id="business_center-24px">
                                            <polygon id="Path" points="0 0 18 0 18 18 0 18"></polygon>
                                            <path d="M15,5.25 L12,5.25 L12,3.75 L10.5,2.25 L7.5,2.25 L6,3.75 L6,5.25 L3,5.25 C2.175,5.25 1.5,5.925 1.5,6.75 L1.5,10.5 C1.5,11.0625 1.8,11.535 2.25,11.7975 L2.25,14.25 C2.25,15.0825 2.9175,15.75 3.75,15.75 L14.25,15.75 C15.0825,15.75 15.75,15.0825 15.75,14.25 L15.75,11.79 C16.1925,11.5275 16.5,11.0475 16.5,10.5 L16.5,6.75 C16.5,5.925 15.825,5.25 15,5.25 Z M7.5,3.75 L10.5,3.75 L10.5,5.25 L7.5,5.25 L7.5,3.75 Z M3,6.75 L15,6.75 L15,10.5 L11.25,10.5 L11.25,8.25 L6.75,8.25 L6.75,10.5 L3,10.5 L3,6.75 Z M9.75,11.25 L8.25,11.25 L8.25,9.75 L9.75,9.75 L9.75,11.25 Z M14.25,14.25 L3.75,14.25 L3.75,12 L6.75,12 L6.75,12.75 L11.25,12.75 L11.25,12 L14.25,12 L14.25,14.25 Z" id="Shape" fill="#1391FF" fill-rule="nonzero"></path>
                                        </g>
                                    </g>
                                </g>
                            </g>
                        </g>
                    </g>
                </g>
            </g>
        </g>
    </g>
</svg>