<?xml version="1.0" encoding="UTF-8"?>
<svg width="82px" height="24px" viewBox="0 0 82 24" version="1.1" xmlns="http://www.w3.org/2000/svg" xmlns:xlink="http://www.w3.org/1999/xlink">
    <!-- Generator: sketchtool 60.1 (101010) - https://sketch.com -->
    <title>E91691A0-F0CD-4D6A-9B2E-6FA7963D54A0</title>
    <desc>Created with sketchtool.</desc>
    <g id="End-User" stroke="none" stroke-width="1" fill="none" fill-rule="evenodd">
        <g id="5.data_source_27Nov" transform="translate(-110.000000, -626.000000)" fill-rule="nonzero">
            <g id="datasource" transform="translate(100.000000, 226.000000)">
                <g id="datasource1" transform="translate(0.000000, 390.000000)">
                    <g id="splunk-vector-logo" transform="translate(10.000000, 10.000000)">
                        <path d="M17.5935713,5.40674157 C18.3963715,5.40674157 19.1311378,5.55505618 19.7978702,5.85168539 C20.4646026,6.14831461 21.0360876,6.56629213 21.5259318,7.10561798 C22.015776,7.64494382 22.3831591,8.27865169 22.641688,9.03370787 C22.9138237,9.80224719 23.0498915,10.6247191 23.0498915,11.541573 C23.0498915,12.4988764 22.9002169,13.388764 22.6008677,14.1842697 C22.3015184,14.9932584 21.8933149,15.694382 21.3626504,16.2876404 C20.8319858,16.894382 20.2060738,17.352809 19.4849142,17.6898876 C18.7637547,18.0269663 17.9745612,18.188764 17.1445474,18.188764 C16.7635575,18.188764 16.4097811,18.1617978 16.0832183,18.094382 C15.7566555,18.0269663 15.4436995,17.9191011 15.1443502,17.7707865 C14.845001,17.6224719 14.5592585,17.4202247 14.2735161,17.1775281 C13.9877736,16.9348315 13.6884244,16.6382022 13.3754683,16.2741573 L13.3754683,24 L10.2050878,24 L10.2050878,5.70337079 L13.3618616,5.70337079 L13.3754683,7.48314607 C13.9469533,6.76853933 14.5728653,6.24269663 15.2532045,5.90561798 C15.9335437,5.56853933 16.7091303,5.40674157 17.5935713,5.40674157 Z M41.5551173,5.68988764 L41.5551173,17.905618 L38.3167028,17.905618 L38.303096,16.2741573 C37.677184,16.9617978 37.0376652,17.447191 36.3845395,17.7573034 C35.7314139,18.0539326 34.9558273,18.2022472 34.0849931,18.2022472 C33.1189115,18.2022472 32.3025044,18.0134831 31.635772,17.6359551 C30.9690396,17.258427 30.4928022,16.6921348 30.193453,15.9370787 C30.1118123,15.7617978 30.0437783,15.5730337 30.002958,15.3707865 C29.9621376,15.1685393 29.9213173,14.952809 29.8941037,14.6966292 C29.8668902,14.4404494 29.8396766,14.1573034 29.8396766,13.8337079 C29.8315125,13.6395506 29.8282469,13.4162697 29.8269406,13.1667775 L29.8260698,5.70337079 L33.0780911,5.70337079 L33.0780911,12.6741573 C33.0780911,13.294382 33.1053047,13.7662921 33.1597318,14.0898876 C33.2141589,14.4134831 33.3230132,14.7101124 33.4726878,14.9662921 C33.8536778,15.6539326 34.5204102,15.9910112 35.472885,15.9910112 C36.6974956,15.9910112 37.5411162,15.4921348 37.99014,14.4808989 C38.0989943,14.2247191 38.1942418,13.9280899 38.2350621,13.6179775 C38.2894893,13.3078652 38.303096,12.8494382 38.303096,12.2561798 L38.303096,5.68988764 L41.5551173,5.68988764 Z M4.88483534,5.42022472 C5.52435417,5.42022472 6.13665944,5.5011236 6.73535792,5.67640449 C7.3340564,5.85168539 7.89193453,6.09438202 8.39538553,6.41797753 L7.42930388,7.95505618 C6.77617827,7.49662921 6.0822323,7.26741573 5.36107277,7.26741573 C4.91204891,7.26741573 4.55827253,7.3752809 4.27253007,7.60449438 C3.98678762,7.83370787 3.837113,8.11685393 3.837113,8.45393258 C3.837113,8.77752809 3.95957405,9.0741573 4.21810294,9.33033708 C4.47663183,9.58651685 4.91204891,9.96404494 5.52435417,10.4224719 C6.15026622,10.8808989 6.667324,11.2719101 7.07552751,11.6224719 C7.48373102,11.9595506 7.81029383,12.2831461 8.05521593,12.5932584 C8.30013804,12.8898876 8.46341944,13.2 8.54506015,13.5101124 C8.68112798,13.8202247 8.72194833,14.1573034 8.72194833,14.5348315 C8.72194833,15.0741573 8.61309406,15.5730337 8.38177874,16.0179775 C8.15046342,16.4764045 7.83750739,16.8539326 7.4156971,17.1775281 C7.00749359,17.5011236 6.51764938,17.7438202 5.94616446,17.9191011 C5.37467955,18.094382 4.76237429,18.188764 4.0820351,18.188764 C3.27923486,18.188764 2.55807533,18.0808989 1.9185565,17.8651685 C1.27903767,17.6494382 0.639518833,17.2853933 2.57571742e-14,16.7865169 L1.06132913,15.0876404 C1.56478012,15.505618 2.02741077,15.8157303 2.43561428,16.0179775 C2.84381779,16.2067416 3.26562808,16.3146067 3.68743838,16.3146067 C4.21810294,16.3146067 4.63991323,16.1797753 4.95286926,15.9101124 C5.26582528,15.6404494 5.42910669,15.2764045 5.42910669,14.8179775 C5.42910669,14.6292135 5.40189312,14.4404494 5.34746598,14.2651685 C5.29303885,14.0898876 5.18418458,13.9146067 5.02090317,13.7393258 C4.87122855,13.5640449 4.65352002,13.3617978 4.38138434,13.1595506 C4.10924867,12.9438202 3.76907908,12.6876404 3.333662,12.3775281 C3.00709919,12.1483146 2.68053638,11.9191011 2.38118714,11.6764045 C2.06823112,11.4337079 1.78248866,11.1775281 1.53756655,10.894382 C1.27903767,10.611236 1.07493591,10.3146067 0.92526129,9.96404494 C0.775586669,9.62696629 0.693945967,9.23595506 0.693945967,8.79101124 C0.693945967,8.29213483 0.802800237,7.82022472 1.00690199,7.41573034 C1.22461053,6.99775281 1.51035299,6.64719101 1.87773615,6.3505618 C2.24511931,6.05393258 2.68053638,5.8247191 3.19759416,5.66292135 C3.71465194,5.5011236 4.27253007,5.42022472 4.88483534,5.42022472 Z M61.0808519,-1.59872116e-14 L61.0808519,10.5168539 L61.4210215,10.5168539 L65.7751923,5.51460674 L68.2380201,6.56629213 L64.0471307,11.0022472 L69,17.0966292 L65.9656872,18.1483146 L61.0808519,11.4067416 L61.0808519,17.8921348 L57.801617,17.8921348 L57.801617,-1.59872116e-14 L61.0808519,-1.59872116e-14 Z M27.7034116,1.77635684e-15 L27.7034116,17.8921348 L24.4513903,17.8921348 L24.4513903,1.77635684e-15 L27.7034116,1.77635684e-15 Z M51.2975744,5.37977528 C52.2636561,5.37977528 53.0800631,5.58202247 53.7467955,5.97303371 C54.4135279,6.37752809 54.8897653,6.93033708 55.1891146,7.67191011 C55.2571485,7.84719101 55.3115756,8.03595506 55.3660028,8.2247191 C55.4204299,8.41348315 55.4612502,8.62921348 55.4884638,8.87191011 C55.5156774,9.11460674 55.5428909,9.39775281 55.5564977,9.73483146 C55.5701045,10.0719101 55.5701045,10.4764045 55.5701045,10.9483146 L55.5701045,17.8651685 L52.3180832,17.8651685 L52.3180832,10.9213483 C52.3180832,10.3011236 52.2908697,9.82921348 52.2364425,9.50561798 C52.1820154,9.18202247 52.0731611,8.88539326 51.9234865,8.62921348 C51.5424965,7.94157303 50.8757641,7.60449438 49.9232893,7.60449438 C49.310984,7.60449438 48.7939262,7.7258427 48.3585092,7.98202247 C47.9230921,8.23820225 47.5965293,8.60224719 47.3788207,9.08764045 C47.2563597,9.37078652 47.1883258,9.65393258 47.1475054,9.97752809 C47.1066851,10.2876404 47.0794715,10.7325843 47.0794715,11.2988764 L47.0794715,17.8786517 L43.8002366,17.8786517 L43.8002366,5.68988764 L47.0794715,5.68988764 L47.0794715,7.32134831 C47.7053836,6.63370787 48.3449024,6.14831461 48.998028,5.83820225 C49.6511536,5.54157303 50.4267403,5.37977528 51.2975744,5.37977528 Z M16.5594557,7.34831461 C15.5661605,7.34831461 14.7905739,7.75280899 14.2054822,8.5752809 C13.6203905,9.39775281 13.334648,10.5033708 13.334648,11.905618 C13.334648,13.2674157 13.6203905,14.3460674 14.1918754,15.1280899 C14.7633603,15.9101124 15.538947,16.3011236 16.5322422,16.3011236 C17.1309406,16.3011236 17.6207849,16.152809 18.0017748,15.8561798 C18.3963715,15.5595506 18.7093275,15.1685393 18.9406429,14.7101124 C19.185565,14.2516854 19.3488464,13.7393258 19.4440939,13.2 C19.5529481,12.647191 19.6073753,12.1348315 19.6073753,11.6629213 C19.6073753,10.3280899 19.3352396,9.27640449 18.7909683,8.50786517 C18.2466969,7.73932584 17.4983238,7.34831461 16.5594557,7.34831461 Z" id="Combined-Shape" fill="#FFFFFF"></path>
                        <polygon id="Path" fill="#96989A" points="72 18 72 15.8094145 79.7486188 11.9931114 72 8.2456946 72 6 82 11.0011481 82 13.0401837"></polygon>
                        <path d="M73.0001271,3 C73.5500572,3 74,3.44171779 74,3.99386503 C74,4.55828221 73.5625556,5 73.0001271,5 C72.450197,5 72.0002542,4.55828221 72.0002542,3.99386503 C71.9877558,3.44171779 72.4376986,3 73.0001271,3 L73.0001271,3 Z M72.9876287,3.1595092 C72.5376859,3.1595092 72.175232,3.5398773 72.175232,4.00613497 C72.175232,4.48466258 72.5376859,4.85276074 72.9876287,4.85276074 C73.4375715,4.85276074 73.8000254,4.48466258 73.8000254,4.00613497 C73.8125238,3.52760736 73.4500699,3.1595092 72.9876287,3.1595092 L72.9876287,3.1595092 Z M72.8001525,4.57055215 L72.6251748,4.57055215 L72.6251748,3.45398773 C72.7251621,3.44171779 72.8126509,3.42944785 72.9501335,3.42944785 C73.1251112,3.42944785 73.2375969,3.46625767 73.300089,3.51533742 C73.362581,3.56441718 73.4000763,3.63803681 73.4000763,3.74846626 C73.4000763,3.89570552 73.300089,3.98159509 73.1751049,4.01840491 L73.1751049,4.03067485 C73.2750922,4.04294479 73.3375842,4.14110429 73.362581,4.3006135 C73.3875779,4.47239264 73.4125747,4.54601227 73.4375715,4.57055215 L73.2500953,4.57055215 C73.2250985,4.53374233 73.2001017,4.43558282 73.1751049,4.28834356 C73.150108,4.14110429 73.0751176,4.09202454 72.9376351,4.09202454 L72.8126509,4.09202454 L72.8126509,4.57055215 L72.8001525,4.57055215 Z M72.8001525,3.95705521 L72.9251366,3.95705521 C73.0751176,3.95705521 73.2001017,3.90797546 73.2001017,3.7607362 C73.2001017,3.66257669 73.1251112,3.56441718 72.9251366,3.56441718 C72.8626446,3.56441718 72.8251494,3.56441718 72.8001525,3.57668712 L72.8001525,3.95705521 Z" id="Shape" fill="#96989A"></path>
                    </g>
                </g>
            </g>
        </g>
    </g>
</svg>