<?xml version="1.0" encoding="UTF-8"?>
<svg width="19px" height="11px" viewBox="0 0 19 11" version="1.1" xmlns="http://www.w3.org/2000/svg" xmlns:xlink="http://www.w3.org/1999/xlink">
    <!-- Generator: sketchtool 63.1 (101010) - https://sketch.com -->
    <title>225BB2C3-C6CF-41ED-B806-AED853840661</title>
    <desc>Created with sketchtool.</desc>
    <g id="Page-1" stroke="none" stroke-width="1" fill="none" fill-rule="evenodd" opacity="0.5">
        <g id="5.Popup" transform="translate(-336.000000, -367.000000)" fill="#659CC8" fill-rule="nonzero">
            <g id="Group-4" transform="translate(300.000000, 188.000000)">
                <g id="sidebar" transform="translate(0.000000, 80.000000)">
                    <g id="fields" transform="translate(0.000000, 45.000000)">
                        <g id="toggle" transform="translate(35.000000, 49.502488)">
                            <g id="toggle_off-24px">
                                <path d="M14.3333333,4.95024876 L6,4.95024876 C3.24166667,4.95024876 1,7.16961028 1,9.90049751 C1,12.6313847 3.24166667,14.8507463 6,14.8507463 L14.3333333,14.8507463 C17.0916667,14.8507463 19.3333333,12.6313847 19.3333333,9.90049751 C19.3333333,7.16961028 17.0916667,4.95024876 14.3333333,4.95024876 Z M14.3333333,13.2006633 L6,13.2006633 C4.15833333,13.2006633 2.66666667,11.7238391 2.66666667,9.90049751 C2.66666667,8.07715589 4.15833333,6.60033167 6,6.60033167 L14.3333333,6.60033167 C16.175,6.60033167 17.6666667,8.07715589 17.6666667,9.90049751 C17.6666667,11.7238391 16.175,13.2006633 14.3333333,13.2006633 Z M6,7.42537313 C4.61666667,7.42537313 3.5,8.53092869 3.5,9.90049751 C3.5,11.2700663 4.61666667,12.3756219 6,12.3756219 C7.38333333,12.3756219 8.5,11.2700663 8.5,9.90049751 C8.5,8.53092869 7.38333333,7.42537313 6,7.42537313 Z" id="Shape"></path>
                            </g>
                        </g>
                    </g>
                </g>
            </g>
        </g>
    </g>
</svg>