<?xml version="1.0" encoding="UTF-8"?>
<svg width="19px" height="11px" viewBox="0 0 19 11" version="1.1" xmlns="http://www.w3.org/2000/svg" xmlns:xlink="http://www.w3.org/1999/xlink">
    <!-- Generator: sketchtool 60.1 (101010) - https://sketch.com -->
    <title>892DEBF0-08A2-4A08-958A-9FCD9FD03C72</title>
    <desc>Created with sketchtool.</desc>
    <g id="admin" stroke="none" stroke-width="1" fill="none" fill-rule="evenodd">
        <g id="3.add-text-fields_27Nov" transform="translate(-338.000000, -358.000000)" fill="#27293D" fill-rule="nonzero">
            <g id="sidebar" transform="translate(320.000000, 244.000000)">
                <g id="fields" transform="translate(0.000000, 60.000000)">
                    <g id="toggle" transform="translate(15.000000, 49.502488)">
                        <g id="toggle_off-24px">
                            <path d="M16.3333333,4.95024876 L8,4.95024876 C5.24166667,4.95024876 3,7.16961028 3,9.90049751 C3,12.6313847 5.24166667,14.8507463 8,14.8507463 L16.3333333,14.8507463 C19.0916667,14.8507463 21.3333333,12.6313847 21.3333333,9.90049751 C21.3333333,7.16961028 19.0916667,4.95024876 16.3333333,4.95024876 Z M16.3333333,13.2006633 L8,13.2006633 C6.15833333,13.2006633 4.66666667,11.7238391 4.66666667,9.90049751 C4.66666667,8.07715589 6.15833333,6.60033167 8,6.60033167 L16.3333333,6.60033167 C18.175,6.60033167 19.6666667,8.07715589 19.6666667,9.90049751 C19.6666667,11.7238391 18.175,13.2006633 16.3333333,13.2006633 Z M8,7.42537313 C6.61666667,7.42537313 5.5,8.53092869 5.5,9.90049751 C5.5,11.2700663 6.61666667,12.3756219 8,12.3756219 C9.38333333,12.3756219 10.5,11.2700663 10.5,9.90049751 C10.5,8.53092869 9.38333333,7.42537313 8,7.42537313 Z" id="Shape"></path>
                        </g>
                    </g>
                </g>
            </g>
        </g>
    </g>
</svg>