<?xml version="1.0" encoding="UTF-8"?>
<svg width="18px" height="12px" viewBox="0 0 18 12" version="1.1" xmlns="http://www.w3.org/2000/svg" xmlns:xlink="http://www.w3.org/1999/xlink">
    <!-- Generator: sketchtool 64 (101010) - https://sketch.com -->
    <title>753A4A56-617E-4357-B80F-21F98931E73B</title>
    <desc>Created with sketchtool.</desc>
    <g id="New-updated_-screens" stroke="none" stroke-width="1" fill="none" fill-rule="evenodd">
        <g id="My-Organisation" transform="translate(-1327.000000, -79.000000)">
            <g id="top">
                <g id="heading-copy" transform="translate(30.000000, 70.000000)">
                    <g id="all" transform="translate(914.000000, 0.000000)">
                        <g id="btns" transform="translate(98.000000, 0.000000)">
                            <g id="shedule" transform="translate(252.000000, 0.000000)">
                                <g id="btn-schedule">
                                    <g id="txt" transform="translate(33.000000, 6.000000)">
                                        <g id="person_add-24px">
                                            <polygon id="Path" points="0 0 18 0 18 18 0 18"></polygon>
                                            <path d="M11.25,9 C12.9075,9 14.25,7.6575 14.25,6 C14.25,4.3425 12.9075,3 11.25,3 C9.5925,3 8.25,4.3425 8.25,6 C8.25,7.6575 9.5925,9 11.25,9 Z M11.25,4.5 C12.075,4.5 12.75,5.175 12.75,6 C12.75,6.825 12.075,7.5 11.25,7.5 C10.425,7.5 9.75,6.825 9.75,6 C9.75,5.175 10.425,4.5 11.25,4.5 Z M11.25,10.5 C9.2475,10.5 5.25,11.505 5.25,13.5 L5.25,15 L17.25,15 L17.25,13.5 C17.25,11.505 13.2525,10.5 11.25,10.5 Z M6.75,13.5 C6.915,12.96 9.2325,12 11.25,12 C13.275,12 15.6,12.9675 15.75,13.5 L6.75,13.5 Z M4.5,11.25 L4.5,9 L6.75,9 L6.75,7.5 L4.5,7.5 L4.5,5.25 L3,5.25 L3,7.5 L0.75,7.5 L0.75,9 L3,9 L3,11.25 L4.5,11.25 Z" id="Shape" fill="#1391FF" fill-rule="nonzero"></path>
                                        </g>
                                    </g>
                                </g>
                            </g>
                        </g>
                    </g>
                </g>
            </g>
        </g>
    </g>
</svg>