<?xml version="1.0" encoding="UTF-8"?>
<svg width="10px" height="15px" viewBox="0 0 10 15" version="1.1" xmlns="http://www.w3.org/2000/svg" xmlns:xlink="http://www.w3.org/1999/xlink">
    <!-- Generator: sketchtool 63.1 (101010) - https://sketch.com -->
    <title>D1555802-32DC-4EA4-BE72-5467B873FE3D</title>
    <desc>Created with sketchtool.</desc>
    <g id="Page-1" stroke="none" stroke-width="1" fill="none" fill-rule="evenodd" opacity="0.5">
        <g id="Landing-Revised" transform="translate(-245.000000, -984.000000)" fill="#FFFFFF">
            <g id="footer-address" transform="translate(0.000000, 960.000000)">
                <g id="logo-&amp;-address" transform="translate(100.000000, 18.000000)">
                    <g id="address" transform="translate(140.666667, 0.000000)">
                        <path d="M9.33333333,6.38888889 C6.64583333,6.38888889 4.47222222,8.5625 4.47222222,11.25 C4.47222222,14.8958333 9.33333333,20.2777778 9.33333333,20.2777778 C9.33333333,20.2777778 14.1944444,14.8958333 14.1944444,11.25 C14.1944444,8.5625 12.0208333,6.38888889 9.33333333,6.38888889 L9.33333333,6.38888889 Z M9.33333333,12.9861111 C8.375,12.9861111 7.59722222,12.2083333 7.59722222,11.25 C7.59722222,10.2916667 8.375,9.51388889 9.33333333,9.51388889 C10.2916667,9.51388889 11.0694444,10.2916667 11.0694444,11.25 C11.0694444,12.2083333 10.2916667,12.9861111 9.33333333,12.9861111 L9.33333333,12.9861111 Z" id="Icon"></path>
                    </g>
                </g>
            </g>
        </g>
    </g>
</svg>