<?xml version="1.0" encoding="UTF-8"?>
<svg width="33px" height="32px" viewBox="0 0 33 32" version="1.1" xmlns="http://www.w3.org/2000/svg" xmlns:xlink="http://www.w3.org/1999/xlink">
    <!-- Generator: sketchtool 64 (101010) - https://sketch.com -->
    <title>2D74C777-6129-490F-85E6-36C5B111EF9E</title>
    <desc>Created with sketchtool.</desc>
    <g id="New-updated_-screens" stroke="none" stroke-width="1" fill="none" fill-rule="evenodd">
        <g id="8-New-Dashboard" transform="translate(-80.000000, -316.000000)" fill="#4F67B1" fill-rule="nonzero">
            <g id="side-bar" transform="translate(0.000000, 40.000000)">
                <g id="New-Dashboard">
                    <g transform="translate(35.000000, 276.000000)">
                        <path d="M57.7082519,13.3332519 C58.9951172,13.3332519 60.0417481,14.3798828 60.0417481,15.6667481 L60.0417481,29.6667481 C60.0417481,30.9533691 58.9951172,32 57.7082519,32 L47.7082519,32 C46.4216309,32 45.375,30.9533691 45.375,29.6667481 L45.375,15.6667481 C45.375,14.3798828 46.4216309,13.3332519 47.7082519,13.3332519 L57.7082519,13.3332519 Z M75.0417481,21.3332519 C76.3283691,21.3332519 77.375,22.3798828 77.375,23.6667481 L77.375,29.6667481 C77.375,30.9533691 76.3283691,32 75.0417481,32 L65.0417481,32 C63.7548828,32 62.7082519,30.9533691 62.7082519,29.6667481 L62.7082519,23.6667481 C62.7082519,22.3798828 63.7548828,21.3332519 65.0417481,21.3332519 L75.0417481,21.3332519 Z M75.0417481,5.86197757e-14 C76.3283691,5.86197757e-14 77.375,1.04663088 77.375,2.33325194 L77.375,16.3332519 C77.375,17.6201172 76.3283691,18.6667481 75.0417481,18.6667481 L65.0417481,18.6667481 C63.7548828,18.6667481 62.7082519,17.6201172 62.7082519,16.3332519 L62.7082519,2.33325194 C62.7082519,1.04663088 63.7548828,5.86197757e-14 65.0417481,5.86197757e-14 L75.0417481,5.86197757e-14 Z M57.7082519,5.95079541e-14 C58.9951172,5.95079541e-14 60.0417481,1.04663088 60.0417481,2.33325194 L60.0417481,8.33325194 C60.0417481,9.62011719 58.9951172,10.6667481 57.7082519,10.6667481 L47.7082519,10.6667481 C46.4216309,10.6667481 45.375,9.62011719 45.375,8.33325194 L45.375,2.33325194 C45.375,1.04663088 46.4216309,5.95079541e-14 47.7082519,5.95079541e-14 L57.7082519,5.95079541e-14 Z" id="Combined-Shape"></path>
                    </g>
                </g>
            </g>
        </g>
    </g>
</svg>