<?xml version="1.0" encoding="UTF-8"?>
<svg width="13px" height="17px" viewBox="0 0 13 17" version="1.1" xmlns="http://www.w3.org/2000/svg" xmlns:xlink="http://www.w3.org/1999/xlink">
    <!-- Generator: sketchtool 64 (101010) - https://sketch.com -->
    <title>29E12379-E220-4DBE-8B36-EC21689C3868</title>
    <desc>Created with sketchtool.</desc>
    <g id="New-updated_-screens" stroke="none" stroke-width="1" fill="none" fill-rule="evenodd">
        <g id="Settings-(Profile)" transform="translate(-280.000000, -487.000000)" fill="#1391FF" fill-rule="nonzero">
            <g id="card" transform="translate(40.000000, 170.000000)">
                <g id="in" transform="translate(30.000000, 30.000000)">
                    <g id="1" transform="translate(0.000000, 71.000000)">
                        <g id="button" transform="translate(177.000000, 210.000000)">
                            <g id="txt" transform="translate(33.000000, 6.000000)">
                                <g id="Group-19">
                                    <path d="M11.286091,6.07744289 L10.4901945,6.07744289 L10.4901945,4.05228131 C10.4901945,1.81781532 8.70023072,0 6.5,0 C4.29976928,0 2.50980554,1.81781532 2.50980554,4.05228131 L2.50980554,6.07744289 L1.71390903,6.07744289 C0.768902439,6.07744289 0,6.85830934 0,7.81802009 L0,15.2594228 C0,16.2191336 0.768902439,17 1.71390903,17 L11.286091,17 C12.2310976,17 13,16.2191336 13,15.2594228 L13,7.81802009 C13,6.85830934 12.2310976,6.07744289 11.286091,6.07744289 Z M3.79523731,4.05249888 C3.79523731,2.53776157 5.00847067,1.30565048 6.5,1.30565048 C7.99152933,1.30565048 9.20476269,2.53776157 9.20476269,4.05249888 L9.20476269,6.07766046 L3.79523731,6.07766046 L3.79523731,4.05249888 Z M11.7145682,15.2594228 C11.7145682,15.4994049 11.5223962,15.6945671 11.286091,15.6945671 L1.71390903,15.6945671 C1.47760382,15.6945671 1.28543177,15.4994049 1.28543177,15.2594228 L1.28543177,7.81802009 C1.28543177,7.57803801 1.47760382,7.38287579 1.71390903,7.38287579 L11.286091,7.38287579 C11.5223962,7.38287579 11.7145682,7.57803801 11.7145682,7.81802009 L11.7145682,15.2594228 Z M6.5,9.32013822 C5.72702703,9.32013822 5.09802241,9.95893006 5.09802241,10.7439304 C5.09802241,11.2935176 5.40695452,11.7706534 5.85728411,12.0080246 L5.85728411,13.3234658 L7.14271589,13.3234658 L7.14271589,12.0080246 C7.59304548,11.7706534 7.90197759,11.2937352 7.90197759,10.7439304 C7.90197759,9.95871248 7.27297297,9.32013822 6.5,9.32013822 Z" id="Shape"></path>
                                </g>
                            </g>
                        </g>
                    </g>
                </g>
            </g>
        </g>
    </g>
</svg>