<?xml version="1.0" encoding="UTF-8"?>
<svg width="15px" height="17px" viewBox="0 0 15 17" version="1.1" xmlns="http://www.w3.org/2000/svg" xmlns:xlink="http://www.w3.org/1999/xlink">
    <!-- Generator: sketchtool 64 (101010) - https://sketch.com -->
    <title>03757F5D-ADC2-4E18-8DDB-096B8A219A57</title>
    <desc>Created with sketchtool.</desc>
    <g id="New-updated_-screens" stroke="none" stroke-width="1" fill="none" fill-rule="evenodd">
        <g id="Settings-(Profile)" transform="translate(-481.000000, -487.000000)" fill="#1391FF" fill-rule="nonzero">
            <g id="card" transform="translate(40.000000, 170.000000)">
                <g id="in" transform="translate(30.000000, 30.000000)">
                    <g id="1" transform="translate(0.000000, 71.000000)">
                        <g id="Group-8-Copy" transform="translate(382.000000, 210.000000)">
                            <g id="txt" transform="translate(29.000000, 6.000000)">
                                <g id="Group-20">
                                    <path d="M7.08661417,1.04805054e-13 C9.4488189,1.04805054e-13 11.3385827,1.9020979 11.3385827,4.27972028 C11.3385827,5.58741259 10.8070866,6.77622378 9.86220472,7.54895105 C11.3976378,7.90559441 12.7559055,8.91608392 13.523622,10.4020979 C13.7007874,10.6993007 13.5826772,11.0559441 13.2874016,11.2342657 C12.992126,11.4125874 12.6377953,11.2937063 12.4606299,10.9965035 C11.6929134,9.51048951 10.2165354,8.61888112 8.56299213,8.61888112 L8.56299213,8.61888112 L5.66929134,8.61888112 C3.2480315,8.61888112 1.24015748,10.6398601 1.24015748,13.0769231 L1.24015748,13.0769231 L1.24015748,14.027972 C1.24015748,15.0384615 2.06692913,15.8706294 3.07086614,15.8706294 L3.07086614,15.8706294 L8.56299213,15.8706294 C8.91732283,15.8706294 9.09448819,16.048951 9.09448819,16.4055944 C9.09448819,16.7622378 8.85826772,17 8.50393701,17 L8.50393701,17 L3.01181102,17 C1.35826772,17 7.54951657e-14,15.6328671 7.54951657e-14,13.9685315 L7.54951657e-14,13.9685315 L7.54951657e-14,13.0174825 C7.54951657e-14,10.4020979 1.83070866,8.14335664 4.31102362,7.54895105 C3.42519685,6.77622378 2.83464567,5.58741259 2.83464567,4.27972028 C2.83464567,1.9020979 4.72440945,1.04805054e-13 7.08661417,1.04805054e-13 Z M11.1614173,13.0174825 C11.3976378,12.7797203 11.7519685,12.7797203 11.988189,13.0174825 L11.988189,13.0174825 L12.992126,14.027972 L13.996063,13.0769231 C14.2322835,12.8391608 14.5866142,12.8391608 14.8228346,13.0769231 C15.0590551,13.3146853 15.0590551,13.6713287 14.8228346,13.9090909 L14.8228346,13.9090909 L13.8188976,14.9195804 L14.8228346,15.8706294 C15.0590551,16.1083916 15.0590551,16.465035 14.8228346,16.7027972 C14.7047244,16.8216783 14.5275591,16.8811189 14.4094488,16.8811189 C14.2913386,16.8811189 14.1141732,16.8216783 13.996063,16.7027972 L13.996063,16.7027972 L12.992126,15.6923077 L11.988189,16.7027972 C11.8700787,16.8216783 11.6929134,16.8811189 11.5748031,16.8811189 C11.4566929,16.8811189 11.2795276,16.8216783 11.1614173,16.7027972 C10.9251969,16.465035 10.9251969,16.1083916 11.1614173,15.8706294 L11.1614173,15.8706294 L12.1653543,14.8601399 L11.1614173,13.8496503 C10.9251969,13.6118881 10.9251969,13.2552448 11.1614173,13.0174825 Z M7.08661417,1.24825175 C5.37401575,1.24825175 4.01574803,2.61538462 4.01574803,4.33916084 C4.01574803,6.06293706 5.37401575,7.43006993 7.08661417,7.43006993 C8.7992126,7.43006993 10.1574803,6.06293706 10.1574803,4.33916084 C10.1574803,2.61538462 8.7992126,1.24825175 7.08661417,1.24825175 Z" id="Combined-Shape"></path>
                                </g>
                            </g>
                        </g>
                    </g>
                </g>
            </g>
        </g>
    </g>
</svg>