<?xml version="1.0" encoding="UTF-8"?>
<svg width="14px" height="14px" viewBox="0 0 14 14" version="1.1" xmlns="http://www.w3.org/2000/svg" xmlns:xlink="http://www.w3.org/1999/xlink">
    <!-- Generator: sketchtool 63.1 (101010) - https://sketch.com -->
    <title>A2C0F207-446B-4AA8-A654-AB25816B9FA0@3x</title>
    <desc>Created with sketchtool.</desc>
    <g id="9-dec" stroke="none" stroke-width="1" fill="none" fill-rule="evenodd">
        <g id="1_create-widget---select-dashboard-2" transform="translate(-178.000000, -387.000000)">
            <g id="Group-14" transform="translate(75.000000, 374.000000)">
                <g id="Group-9" transform="translate(-0.000000, 0.000000)">
                    <g id="Group-7" transform="translate(10.000000, 10.000000)">
                        <g id="launch-24px" transform="translate(91.000000, 1.000000)">
                            <polygon id="Path" points="0 0 18 0 18 18 0 18"></polygon>
                            <path d="M14.25,14.25 L3.75,14.25 L3.75,3.75 L9,3.75 L9,2.25 L3.75,2.25 C2.9175,2.25 2.25,2.925 2.25,3.75 L2.25,14.25 C2.25,15.075 2.9175,15.75 3.75,15.75 L14.25,15.75 C15.075,15.75 15.75,15.075 15.75,14.25 L15.75,9 L14.25,9 L14.25,14.25 Z M10.5,2.25 L10.5,3.75 L13.1925,3.75 L5.82,11.1225 L6.8775,12.18 L14.25,4.8075 L14.25,7.5 L15.75,7.5 L15.75,2.25 L10.5,2.25 Z" id="Shape" fill="#FFFFFF" fill-rule="nonzero"></path>
                        </g>
                    </g>
                </g>
            </g>
        </g>
    </g>
</svg>