<?xml version="1.0" encoding="UTF-8"?>
<svg width="81px" height="20px" viewBox="0 0 81 20" version="1.1" xmlns="http://www.w3.org/2000/svg" xmlns:xlink="http://www.w3.org/1999/xlink">
    <!-- Generator: sketchtool 60.1 (101010) - https://sketch.com -->
    <title>D458C334-A730-486F-98D1-7DBE6AAF63A1</title>
    <desc>Created with sketchtool.</desc>
    <g id="End-User" stroke="none" stroke-width="1" fill="none" fill-rule="evenodd">
        <g id="5.data_source_27Nov" transform="translate(-465.000000, -366.000000)" fill="#FFFFFF" fill-rule="nonzero">
            <g id="datasource" transform="translate(100.000000, 226.000000)">
                <g id="datasource7" transform="translate(355.000000, 130.000000)">
                    <g id="FireEye,_Inc._logotype" transform="translate(10.000000, 10.000000)">
                        <path d="M56.3751429,4.52228571 L60.03,12.928 L63.6237143,4.52228571 L65.898,4.52228571 L60.334,16.9891429 C59.3185714,19.2428571 58.5271429,19.6285714 56.6391429,19.6285714 C56.1311429,19.6285714 55.6237143,19.588 55.0957143,19.5474286 L55.0957143,17.8422857 C55.4614286,17.8622857 55.786,17.9234286 56.274,17.9234286 C57.5322857,17.9234286 57.8368571,17.6588571 58.4871429,16.2988571 L58.954,15.324 L54.0397143,4.52228571 L56.3751429,4.52228571 Z M32.9044,4.15657143 C35.7066857,4.15657143 38.6706857,5.78114286 38.6706857,10.1874286 L38.6706857,10.4514286 L28.8838286,10.4514286 C29.0466857,12.644 30.9958286,13.8217143 32.8026857,13.8217143 C33.9604,13.8217143 35.5444,13.436 36.2346857,11.9331429 L38.3866857,11.9331429 C37.3718286,14.492 34.9958286,15.5274286 32.9044,15.5274286 C28.7621143,15.5274286 26.7318286,12.908 26.7318286,9.84228571 C26.7318286,6.776 28.7621143,4.15657143 32.9044,4.15657143 Z M72.4749714,4.15657143 C75.2772571,4.15657143 78.2412571,5.78114286 78.2412571,10.1874286 L78.2412571,10.4514286 L68.4544,10.4514286 C68.6172571,12.644 70.5664,13.8217143 72.3738286,13.8217143 C73.5304,13.8217143 75.1144,13.436 75.8052571,11.9331429 L77.9572571,11.9331429 C76.9418286,14.492 74.5664,15.5274286 72.4749714,15.5274286 C68.3332571,15.5274286 66.3018286,12.908 66.3018286,9.84228571 C66.3018286,6.776 68.3332571,4.15657143 72.4749714,4.15657143 Z M24.9259429,4.15657143 C25.4339429,4.15657143 25.6979429,4.17714286 26.0836571,4.27828571 L26.0836571,6.47142857 C25.5756571,6.34971429 25.1899429,6.26857143 24.6419429,6.26857143 C22.6316571,6.26857143 21.2305143,7.44628571 21.2305143,9.76114286 L21.2305143,15.1622857 L19.2002286,15.1622857 L19.2002286,4.52228571 L21.2305143,4.52228571 L21.2305143,6.47142857 L21.2710857,6.47142857 C22.2253714,4.78571429 23.5859429,4.15657143 24.9259429,4.15657143 Z M11.504,0.664228571 L11.504,2.53222857 L2.42742857,2.53222857 L2.42742857,6.81622857 L11.0777143,6.81622857 L11.0777143,8.6848 L2.42742857,8.6848 L2.42742857,15.1619429 L0.275428571,15.1619429 L0.275428571,0.664228571 L11.504,0.664228571 Z M15.7472,4.52217143 L15.7472,15.1621714 L13.7169143,15.1621714 L13.7169143,4.52217143 L15.7472,4.52217143 Z M52.8234857,0.664228571 L52.8234857,2.53222857 L43.3206286,2.53222857 L43.3206286,6.73565714 L52.5389143,6.73565714 L52.5389143,8.60365714 L43.3206286,8.60365714 L43.3206286,13.2939429 L53.0263429,13.2939429 L53.0263429,15.1619429 L41.1680571,15.1619429 L41.1680571,0.664228571 L52.8234857,0.664228571 Z M32.8026857,5.86228571 C30.9352571,5.86228571 29.2495429,6.95885714 28.9449714,8.86742857 L36.5186857,8.86742857 C36.2141143,6.93828571 34.7118286,5.86228571 32.8026857,5.86228571 Z M72.3738286,5.86228571 C70.5052571,5.86228571 68.8201143,6.95885714 68.5155429,8.86742857 L76.0892571,8.86742857 C75.7846857,6.93828571 74.2818286,5.86228571 72.3738286,5.86228571 Z M78.5436571,3.02091429 L78.5436571,3.18891429 L78.0442286,3.18891429 L78.0442286,4.52034286 L77.8448,4.52034286 L77.8448,3.18891429 L77.3453714,3.18891429 L77.3453714,3.02091429 L78.5436571,3.02091429 Z M78.9873143,3.02091429 L79.4598857,4.28091429 L79.9341714,3.02091429 L80.2073143,3.02091429 L80.2073143,4.52034286 L80.0187429,4.52034286 L80.0187429,3.27291429 L80.0136,3.27291429 L79.5456,4.52034286 L79.3758857,4.52034286 L78.9078857,3.27291429 L78.9033143,3.27291429 L78.9033143,4.52034286 L78.7141714,4.52034286 L78.7141714,3.02091429 L78.9873143,3.02091429 Z M15.7472,0.542171429 L15.7472,2.77588571 L13.7169143,2.77588571 L13.7169143,0.542171429 L15.7472,0.542171429 Z" id="logo"></path>
                    </g>
                </g>
            </g>
        </g>
    </g>
</svg>