<?xml version="1.0" encoding="UTF-8"?>
<svg width="14px" height="17px" viewBox="0 0 14 17" version="1.1" xmlns="http://www.w3.org/2000/svg" xmlns:xlink="http://www.w3.org/1999/xlink">
    <!-- Generator: sketchtool 60.1 (101010) - https://sketch.com -->
    <title>C635DB44-1C1D-4EAF-89D2-3AFA5B7522E3</title>
    <desc>Created with sketchtool.</desc>
    <g id="End-User" stroke="none" stroke-width="1" fill="none" fill-rule="evenodd">
        <g id="5.data_source_27Nov" transform="translate(-110.000000, -236.000000)" fill="#28A505" fill-rule="nonzero">
            <g id="datasource" transform="translate(100.000000, 226.000000)">
                <g id="datasource10">
                    <g id="Forcepoint_Logo" transform="translate(10.000000, 10.000000)">
                        <g id="logo" transform="translate(0.177096, 0.236128)">
                            <path d="M13.4887839,8.8817842e-15 C13.5478158,8.8817842e-15 13.6068477,0.0590318772 13.6068477,0.118063754 L13.6068477,2.95159386 C13.6068477,3.01062574 13.5478158,3.06965762 13.4887839,3.06965762 L3.18772137,3.06965762 C3.12868949,3.06965762 3.06965762,3.12868949 3.06965762,3.18772137 L3.06965762,15.6729634 C3.06965762,15.7319953 3.01062574,15.7910272 2.95159386,15.7910272 L0.118063754,15.7910272 C0.0590318772,15.7910272 -3.11750625e-13,15.7319953 -3.11750625e-13,15.6729634 L-3.11750625e-13,0.118063754 C-3.11750625e-13,0.0590318772 0.0590318772,8.8817842e-15 0.118063754,8.8817842e-15 C0.118063754,8.8817842e-15 13.4887839,8.8817842e-15 13.4887839,8.8817842e-15 Z M6.729634,6.37544274 C6.64108619,6.28689492 6.55253837,6.37544274 6.55253837,6.46399055 L6.55253837,15.2007084 C6.55253837,15.3482881 6.64108619,15.377804 6.729634,15.2597403 L11.2160567,11.0979929 C11.2750885,11.038961 11.2750885,10.9504132 11.2160567,10.8913813 L6.729634,6.37544274 Z" id="Shape-1"></path>
                        </g>
                    </g>
                </g>
            </g>
        </g>
    </g>
</svg>