<?xml version="1.0" encoding="UTF-8"?>
<svg width="14px" height="9px" viewBox="0 0 14 9" version="1.1" xmlns="http://www.w3.org/2000/svg" xmlns:xlink="http://www.w3.org/1999/xlink">
    <!-- Generator: sketchtool 60.1 (101010) - https://sketch.com -->
    <title>1386B6CB-A060-4240-8F39-753646952633</title>
    <desc>Created with sketchtool.</desc>
    <g id="Asset-Artboard-Page" stroke="none" stroke-width="1" fill="none" fill-rule="evenodd">
        <g id="swagger" transform="translate(-207.000000, -42.000000)" fill="#FF594A">
            <g id="collection-select1">
                <g id="Group-2" transform="translate(70.000000, 39.000000)">
                    <g id="shedule" transform="translate(136.000000, 0.000000)">
                        <g id="fail-to-parse">
                            <g id="ic_code">
                                <path d="M3,7.5 L5.875,4.625 L5,3.75 L1.25,7.5 L5,11.25 L5.875,10.375 L3,7.5 Z M13.3093378,7.94111572 L10,11.25 L9.125,10.375 L11.4257245,8.07434617 C11.6627351,8.134627 11.910982,8.16666667 12.1666667,8.16666667 C12.5711886,8.16666667 12.9570933,8.08646879 13.3093378,7.94111572 Z M12.0833333,3 C13.2333333,3 14.1666667,3.93333333 14.1666667,5.08333333 C14.1666667,6.23333333 13.2333333,7.16666667 12.0833333,7.16666667 C10.9333333,7.16666667 10,6.23333333 10,5.08333333 C10,3.93333333 10.9333333,3 12.0833333,3 Z M12.2916667,5.70833333 L11.875,5.70833333 L11.875,6.125 L12.2916667,6.125 L12.2916667,5.70833333 Z M12.2916667,4.04166667 L11.875,4.04166667 L11.875,5.29166667 L12.2916667,5.29166667 L12.2916667,4.04166667 Z" id="Icon"></path>
                            </g>
                        </g>
                    </g>
                </g>
            </g>
        </g>
    </g>
</svg>