<?xml version="1.0" encoding="UTF-8"?>
<svg width="20px" height="20px" viewBox="0 0 20 20" version="1.1" xmlns="http://www.w3.org/2000/svg" xmlns:xlink="http://www.w3.org/1999/xlink">
    <!-- Generator: sketchtool 60.1 (101010) - https://sketch.com -->
    <title>BA0BF568-C26F-447D-86DE-E60BB1A99704</title>
    <desc>Created with sketchtool.</desc>
    <g id="End-User" stroke="none" stroke-width="1" fill="none" fill-rule="evenodd">
        <g id="4.event_form_27Nov" transform="translate(-1369.000000, -9.000000)">
            <g id="header">
                <g id="logo-header">
                    <g id="account" transform="translate(1367.000000, 7.000000)">
                        <g id="ic_account_circle">
                            <polygon id="Bounds" points="0 0 24 0 24 24 0 24"></polygon>
                            <path d="M12,2 C6.48,2 2,6.48 2,12 C2,17.52 6.48,22 12,22 C17.52,22 22,17.52 22,12 C22,6.48 17.52,2 12,2 L12,2 Z M12,5 C13.66,5 15,6.34 15,8 C15,9.66 13.66,11 12,11 C10.34,11 9,9.66 9,8 C9,6.34 10.34,5 12,5 L12,5 Z M12,19.2 C9.5,19.2 7.29,17.92 6,15.98 C6.03,13.99 10,12.9 12,12.9 C13.99,12.9 17.97,13.99 18,15.98 C16.71,17.92 14.5,19.2 12,19.2 L12,19.2 Z" id="Icon" fill="#1391FF"></path>
                        </g>
                    </g>
                </g>
            </g>
        </g>
    </g>
</svg>