<?xml version="1.0" encoding="UTF-8"?>
<svg width="15px" height="17px" viewBox="0 0 15 17" version="1.1" xmlns="http://www.w3.org/2000/svg" xmlns:xlink="http://www.w3.org/1999/xlink">
    <!-- Generator: sketchtool 64 (101010) - https://sketch.com -->
    <title>F2FF435F-F810-43E5-B15A-0E15ABCC803E</title>
    <desc>Created with sketchtool.</desc>
    <g id="New-updated_-screens" stroke="none" stroke-width="1" fill="none" fill-rule="evenodd">
        <g id="8-New-Dashboard" transform="translate(-1312.000000, -237.000000)">
            <g id="top" transform="translate(230.000000, 90.000000)">
                <g id="icon" transform="translate(761.000000, 145.000000)">
                    <g id="Group-24" transform="translate(4.000000, 0.000000)">
                        <g id="Group-32">
                            <g id="icon" transform="translate(314.000000, 0.000000)">
                                <g id="Group-22">
                                    <g id="ic_calndr">
                                        <polygon id="Bounds" transform="translate(10.000000, 10.000000) rotate(-270.000000) translate(-10.000000, -10.000000) " points="0 0 20 0 20 20 0 20"></polygon>
                                        <path d="M14.6666667,11.1666667 L10.5,11.1666667 L10.5,15.3333333 L14.6666667,15.3333333 L14.6666667,11.1666667 Z M13.8333333,2 L13.8333333,3.66666667 L7.16666667,3.66666667 L7.16666667,2 L5.5,2 L5.5,3.66666667 L4.66666667,3.66666667 C3.74166667,3.66666667 3.00833333,4.41666667 3.00833333,5.33333333 L3,17 C3,17.9166667 3.74166667,18.6666667 4.66666667,18.6666667 L16.3333333,18.6666667 C17.25,18.6666667 18,17.9166667 18,17 L18,5.33333333 C18,4.41666667 17.25,3.66666667 16.3333333,3.66666667 L15.5,3.66666667 L15.5,2 L13.8333333,2 Z M16.3333333,17 L4.66666667,17 L4.66666667,7.83333333 L16.3333333,7.83333333 L16.3333333,17 Z" id="Shape" fill="#1391FF" fill-rule="nonzero"></path>
                                    </g>
                                </g>
                            </g>
                        </g>
                    </g>
                </g>
            </g>
        </g>
    </g>
</svg>