<?xml version="1.0" encoding="UTF-8"?>
<svg width="77px" height="78px" viewBox="0 0 77 78" version="1.1" xmlns="http://www.w3.org/2000/svg" xmlns:xlink="http://www.w3.org/1999/xlink">
    <!-- Generator: sketchtool 64 (101010) - https://sketch.com -->
    <title>86D7466A-7D4F-48AA-A737-CCA24CAE4B3A</title>
    <desc>Created with sketchtool.</desc>
    <defs>
        <path d="M32.3636364,18.5007583 L32.3636364,19.3174235 C32.3636364,19.5939847 32.1601294,19.8181818 31.9090909,19.8181818 C31.6580524,19.8181818 31.4545455,19.5939847 31.4545455,19.3174235 L31.4545455,18.5007583 C31.4545455,18.2241971 31.6580524,18 31.9090909,18 C32.1601294,18 32.3636364,18.2241971 32.3636364,18.5007583 Z M32.3628692,14.3620217 L32.3628692,17.0506301 C32.3628692,17.2953133 32.1625127,17.4936682 31.9153604,17.4936682 C31.6682082,17.4936682 31.4678517,17.2953133 31.4678517,17.0506301 L31.4678517,15.1293637 L25.9962259,18.2556938 L25.9962259,24.5111386 L31.4686188,21.3845554 L31.4686188,20.594935 C31.4686188,20.3502518 31.6689753,20.1518968 31.9161276,20.1518968 C32.1632799,20.1518968 32.3636364,20.3502518 32.3636364,20.594935 L32.3636364,21.6405049 C32.3636364,21.7988004 32.2783005,21.9450644 32.139882,22.0243025 L25.7724716,25.6622782 C25.6339696,25.741263 25.4634648,25.741263 25.3249628,25.6622782 L19.6298384,22.4078469 L19.6298384,28.918988 C19.62988,29.0773115 19.5445797,29.2236239 19.406084,29.3027856 L13.0386736,32.9407614 C12.9001716,33.0197462 12.7296668,33.0197462 12.5911648,32.9407614 L6.22375438,29.3027856 C6.08533582,29.2235475 6,29.0772836 6,28.918988 L6,21.6405049 C6,21.4822094 6.08533582,21.3359454 6.22375438,21.2567073 L11.9199017,18 L6.22554442,14.7458193 C6.08712585,14.6665812 6.00185381,14.5203172 6.00179004,14.3620217 L6.00179004,7.08353854 C6.00185381,6.92524303 6.08712585,6.77897906 6.22554442,6.69974096 L12.5929548,3.05923355 C12.73155,2.98025548 12.9021242,2.98025548 13.0407193,3.05923355 L14.0249829,3.6222717 C14.2390168,3.7446832 14.31229,4.01569269 14.1886432,4.22758833 C14.0649965,4.43948397 13.7912523,4.5120252 13.5772184,4.38961369 L12.8149192,3.95467686 L7.34252629,7.08328538 L12.8149192,10.2098686 L18.2873121,7.08328538 L15.2442525,5.34404436 C15.1057969,5.264858 15.0205303,5.11855951 15.0205719,4.96025811 C15.0206135,4.80195671 15.1059569,4.65570215 15.2444541,4.57658711 C15.3829513,4.49747207 15.5535613,4.497516 15.692017,4.57670236 L19.4050611,6.69974096 C19.5435569,6.77890269 19.6288571,6.92521507 19.6288155,7.08353854 L19.6288155,13.5949329 L25.3249628,10.3377167 C25.4635579,10.2587387 25.6341322,10.2587387 25.7727273,10.3377167 L32.1401377,13.9782241 C32.2781627,14.0577188 32.3630169,14.2039346 32.3628692,14.3620217 L32.3628692,14.3620217 Z M12.8181818,18.9090909 L7.36363636,21.864593 L12.8181818,24.8181818 L18.2727273,21.864593 L12.8181818,18.9090909 Z M18.7262532,7.54545455 L13.2727273,10.7263283 L13.2727273,17.0909091 L18.7272727,13.9097778 L18.7262532,7.54545455 Z M18.7272727,21.1818182 L18.7272727,15.2727273 L14.1818182,18.2261007 L18.7272727,21.1818182 Z M6.90909091,13.9097778 L12.3636364,17.0909091 L12.3636364,10.7263283 L6.90909091,7.54545455 L6.90909091,13.9097778 Z M6.90909091,28.4552323 L12.3636364,31.6363636 L12.3636364,25.2717828 L6.90909091,22.0909091 L6.90909091,28.4552323 Z M18.7272727,28.4552323 L18.7272727,22.0909091 L13.2727273,25.2717828 L13.2727273,31.6363636 L18.7272727,28.4552323 Z M19.6363636,21.6370505 L25.0909091,24.8181818 L25.0909091,18.453601 L19.6363636,15.2727273 L19.6363636,21.6370505 Z M31,14.1373203 L25.5463468,11.1818182 L20.0909091,14.1373203 L25.5463468,17.0909091 L31,14.1373203 Z" id="path-1"></path>
        <filter x="-148.9%" y="-124.2%" width="397.8%" height="361.7%" filterUnits="objectBoundingBox" id="filter-2">
            <feMorphology radius="0.75" operator="dilate" in="SourceAlpha" result="shadowSpreadOuter1"></feMorphology>
            <feOffset dx="0" dy="2" in="shadowSpreadOuter1" result="shadowOffsetOuter1"></feOffset>
            <feMorphology radius="1" operator="erode" in="SourceAlpha" result="shadowInner"></feMorphology>
            <feOffset dx="0" dy="2" in="shadowInner" result="shadowInner"></feOffset>
            <feComposite in="shadowOffsetOuter1" in2="shadowInner" operator="out" result="shadowOffsetOuter1"></feComposite>
            <feGaussianBlur stdDeviation="12.5" in="shadowOffsetOuter1" result="shadowBlurOuter1"></feGaussianBlur>
            <feColorMatrix values="0 0 0 0 0.0745098039   0 0 0 0 0.568627451   0 0 0 0 1  0 0 0 1 0" type="matrix" in="shadowBlurOuter1"></feColorMatrix>
        </filter>
    </defs>
    <g id="New-updated_-screens" stroke="none" stroke-width="1" fill="none" fill-rule="evenodd">
        <g id="6-New-Dashboard" transform="translate(-211.000000, -60.000000)">
            <g id="heading" transform="translate(230.000000, 77.000000)">
                <g id="shape" transform="translate(0.000000, 2.000000)">
                    <rect id="Rectangle" x="0" y="0" width="36" height="36"></rect>
                    <g id="Shape" fill-rule="nonzero">
                        <use fill="black" fill-opacity="1" filter="url(#filter-2)" xlink:href="#path-1"></use>
                        <use stroke="#1391FF" stroke-width="1.5" xlink:href="#path-1"></use>
                    </g>
                </g>
            </g>
        </g>
    </g>
</svg>