<?xml version="1.0" encoding="UTF-8"?>
<svg width="13px" height="13px" viewBox="0 0 13 13" version="1.1" xmlns="http://www.w3.org/2000/svg" xmlns:xlink="http://www.w3.org/1999/xlink">
    <!-- Generator: sketchtool 60.1 (101010) - https://sketch.com -->
    <title>2E65CF7F-1E52-4D0D-A0D4-0D778581E556</title>
    <desc>Created with sketchtool.</desc>
    <g id="End-User" stroke="none" stroke-width="1" fill="none" fill-rule="evenodd" opacity="0.5">
        <g id="4.event_form_27Nov" transform="translate(-347.000000, -180.000000)">
            <g id="header" transform="translate(300.000000, 72.000000)">
                <g id="tabs" transform="translate(0.000000, 106.000000)">
                    <g id="selected" transform="translate(0.000000, 0.000000)">
                        <g id="ic_check_circle" transform="translate(46.000000, 1.000000)">
                            <polygon id="Bounds" points="0 0 15 0 15 15 0 15"></polygon>
                            <path d="M7.5,1.25 C4.05,1.25 1.25,4.05 1.25,7.5 C1.25,10.95 4.05,13.75 7.5,13.75 C10.95,13.75 13.75,10.95 13.75,7.5 C13.75,4.05 10.95,1.25 7.5,1.25 L7.5,1.25 Z M6.25,10.625 L3.125,7.5 L4.00625,6.61875 L6.25,8.85625 L10.99375,4.1125 L11.875,5 L6.25,10.625 L6.25,10.625 Z" id="Icon" fill="#FFFFFF"></path>
                        </g>
                    </g>
                </g>
            </g>
        </g>
    </g>
</svg>