<?xml version="1.0" encoding="UTF-8"?>
<svg width="109px" height="114px" viewBox="0 0 109 114" version="1.1" xmlns="http://www.w3.org/2000/svg" xmlns:xlink="http://www.w3.org/1999/xlink">
    <!-- Generator: sketchtool 64 (101010) - https://sketch.com -->
    <title>D35990A8-5F2D-4CED-9939-5312C15003E3</title>
    <desc>Created with sketchtool.</desc>
    <defs>
        <path d="M58,34.1016682 L58,35.8983318 C58,36.5067663 57.5522847,37 57,37 C56.4477153,37 56,36.5067663 56,35.8983318 L56,34.1016682 C56,33.4932337 56.4477153,33 57,33 C57.5522847,33 58,33.4932337 58,34.1016682 Z M57.9983123,24.9964478 L57.9983123,30.9113862 C57.9983123,31.4496892 57.557528,31.8860701 57.013793,31.8860701 C56.470058,31.8860701 56.0292737,31.4496892 56.0292737,30.9113862 L56.0292737,26.6846002 L43.9916971,33.5625263 L43.9916971,47.324505 L56.0309614,40.446022 L56.0309614,38.7088569 C56.0309614,38.1705539 56.4717457,37.7341731 57.0154807,37.7341731 C57.5592157,37.7341731 58,38.1705539 58,38.7088569 L58,41.0091107 C58,41.3573609 57.8122612,41.6791416 57.5077404,41.8534654 L43.4994374,49.8570121 C43.1947331,50.0307787 42.8196225,50.0307787 42.5149181,49.8570121 L29.9856444,42.6972631 L29.9856444,57.0217737 C29.985736,57.3700853 29.7980754,57.6919726 29.4933848,57.8661284 L15.4850819,65.8696751 C15.1803775,66.0434416 14.8052669,66.0434416 14.5005626,65.8696751 L0.492259641,57.8661284 C0.187738794,57.6918046 0,57.3700238 0,57.0217737 L0,41.0091107 C0,40.6608606 0.187738794,40.3390799 0.492259641,40.1647561 L13.0237837,33 L0.496197719,25.8408024 C0.191676871,25.6664786 0.00407838094,25.3446979 0.00393807713,24.9964478 L0.00393807713,8.9837848 C0.00407838094,8.63553466 0.191676871,8.31375394 0.496197719,8.13943012 L14.5045007,0.130313819 C14.8094099,-0.0434379396 15.1846733,-0.0434379396 15.4895825,0.130313819 L17.6549624,1.36899773 C18.1258369,1.63830304 18.287038,2.23452391 18.0150151,2.70069433 C17.7429923,3.16686474 17.140755,3.32645544 16.6698805,3.05715013 L14.9928222,2.10028909 L2.95355785,8.98322783 L14.9928222,15.8617109 L27.0320866,8.98322783 L20.3373555,5.15689759 C20.0327531,4.9826876 19.8451666,4.66083091 19.8452581,4.31256783 C19.8453496,3.96430476 20.0331052,3.64254473 20.3377991,3.46849164 C20.642493,3.29443854 21.0178349,3.2945352 21.3224373,3.46874519 L29.4911345,8.13943012 C29.7958251,8.31358593 29.9834857,8.63547316 29.9833941,8.9837848 L29.9833941,23.3088523 L42.5149181,16.1429768 C42.8198274,15.969225 43.1950908,15.969225 43.5,16.1429768 L57.5083029,24.1520931 C57.8119579,24.3269814 57.9986372,24.6486561 57.9983123,24.9964478 L57.9983123,24.9964478 Z M15,35 L3,41.5021046 L15,48 L27,41.5021046 L15,35 Z M27.997757,10 L16,16.9979222 L16,31 L28,24.0015111 L27.997757,10 Z M28,40 L28,27 L18,33.4974214 L28,40 Z M2,24.0015111 L14,31 L14,16.9979222 L2,10 L2,24.0015111 Z M2,56.0015111 L14,63 L14,48.9979222 L2,42 L2,56.0015111 Z M28,56.0015111 L28,42 L16,48.9979222 L16,63 L28,56.0015111 Z M30,41.0015111 L42,48 L42,33.9979222 L30,27 L30,41.0015111 Z M55,24.5021046 L43.0019629,18 L31,24.5021046 L43.0019629,31 L55,24.5021046 Z" id="path-1"></path>
        <filter x="-67.7%" y="-56.4%" width="235.3%" height="218.9%" filterUnits="objectBoundingBox" id="filter-2">
            <feMorphology radius="0.75" operator="dilate" in="SourceAlpha" result="shadowSpreadOuter1"></feMorphology>
            <feOffset dx="0" dy="2" in="shadowSpreadOuter1" result="shadowOffsetOuter1"></feOffset>
            <feMorphology radius="1" operator="erode" in="SourceAlpha" result="shadowInner"></feMorphology>
            <feOffset dx="0" dy="2" in="shadowInner" result="shadowInner"></feOffset>
            <feComposite in="shadowOffsetOuter1" in2="shadowInner" operator="out" result="shadowOffsetOuter1"></feComposite>
            <feGaussianBlur stdDeviation="12.5" in="shadowOffsetOuter1" result="shadowBlurOuter1"></feGaussianBlur>
            <feColorMatrix values="0 0 0 0 0.0745098039   0 0 0 0 0.568627451   0 0 0 0 1  0 0 0 1 0" type="matrix" in="shadowBlurOuter1"></feColorMatrix>
        </filter>
    </defs>
    <g id="New-updated_-screens" stroke="none" stroke-width="1" fill="none" fill-rule="evenodd">
        <g id="2-New-Dashboard" transform="translate(-748.000000, -98.000000)" fill-rule="nonzero">
            <g id="top" transform="translate(0.000000, 40.000000)">
                <g id="ic_cubes" transform="translate(774.000000, 80.000000)">
                    <g id="Shape">
                        <use fill="black" fill-opacity="1" filter="url(#filter-2)" xlink:href="#path-1"></use>
                        <use stroke="#1391FF" stroke-width="1.5" xlink:href="#path-1"></use>
                    </g>
                </g>
            </g>
        </g>
    </g>
</svg>