<?xml version="1.0" encoding="UTF-8"?>
<svg width="15px" height="16px" viewBox="0 0 15 16" version="1.1" xmlns="http://www.w3.org/2000/svg" xmlns:xlink="http://www.w3.org/1999/xlink">
    <!-- Generator: sketchtool 64 (101010) - https://sketch.com -->
    <title>4178FCC7-0F1E-4CB0-812E-B0BEF1E36960</title>
    <desc>Created with sketchtool.</desc>
    <g id="New-updated_-screens" stroke="none" stroke-width="1" fill="none" fill-rule="evenodd" opacity="0.72">
        <g id="Custom-Dashboard-(Dropdown)" transform="translate(-445.000000, -406.000000)" fill="#FFFFFF" fill-rule="nonzero">
            <g id="dropdown" transform="translate(423.000000, 114.000000)">
                <g id="all" transform="translate(10.000000, 10.000000)">
                    <g id="7" transform="translate(0.000000, 270.000000)">
                        <g id="ic_import" transform="translate(19.500000, 20.000000) scale(-1, 1) translate(-19.500000, -20.000000) translate(12.000000, 12.000000)">
                            <g id="Group">
                                <g id="Shape">
                                    <path d="M-0.5,14.5024554 C-0.5,15.053384 -0.0553691,15.5 0.5008717,15.5 L14.499128,15.5 C15.051894,15.5 15.5,15.0536886 15.5,14.5024554 L15.5,7.49754465 C15.5,6.94661595 15.056135,6.5 14.5,6.5 C13.947715,6.5 13.5,6.93788135 13.5,7.5029293 L13.5,13.5 L1.5,13.5 L1.5,7.5029293 C1.5,6.94902676 1.0561352,6.5 0.5,6.5 C-0.0522847,6.5 -0.5,6.9463114 -0.5,7.49754465 L-0.5,14.5024554 Z M6.49967318,0.5 L6.49967318,6.5 L4.49863018,6.5 C3.94692118,6.5 3.81354618,6.81387329 4.20558518,7.20591205 L7.49967318,10.5 L10.7937611,7.20591205 C11.1836256,6.81604759 11.0570129,6.5 10.5007166,6.5 L8.49967318,6.5 L8.49967318,0.5 L6.49967318,0.5 Z" transform="translate(7.500000, 8.000000) rotate(-90.000000) translate(-7.500000, -8.000000) "></path>
                                </g>
                            </g>
                        </g>
                    </g>
                </g>
            </g>
        </g>
    </g>
</svg>