<?xml version="1.0" encoding="UTF-8"?>
<svg width="28px" height="14px" viewBox="0 0 28 14" version="1.1" xmlns="http://www.w3.org/2000/svg" xmlns:xlink="http://www.w3.org/1999/xlink">
    <!-- Generator: sketchtool 64 (101010) - https://sketch.com -->
    <title>C6C77193-2AE6-4E9D-A24F-FCFA4ED81AD6</title>
    <desc>Created with sketchtool.</desc>
    <g id="New-updated_-screens" stroke="none" stroke-width="1" fill="none" fill-rule="evenodd">
        <g id="8-New-Dashboard" transform="translate(-995.000000, -238.000000)">
            <g id="top" transform="translate(230.000000, 90.000000)">
                <g id="icon" transform="translate(761.000000, 145.000000)">
                    <g id="Group-24" transform="translate(4.000000, 0.000000)">
                        <g id="Group-32">
                            <g id="Group-31">
                                <g id="ic_toggle-off">
                                    <rect id="Rectangle" x="0" y="0" width="28" height="20"></rect>
                                    <path d="M20.9447321,3 C24.8348423,3 27.9996882,6.1401927 28,10 C28,13.8601167 24.8351541,17 20.9450439,17 L20.9450439,17 L7.05495607,17 C3.16484593,17 2.86526358e-12,13.8601167 2.86526358e-12,10.0003094 C2.86526358e-12,6.1401927 3.16484593,3 7.05495607,3 L7.05495607,3 Z M20.9447321,4.23380182 L7.05464426,4.23380182 C3.84988697,4.23380182 1.24317643,6.82051622 1.24317643,10 C1.24317643,13.1794838 3.85019878,15.7665076 7.05495607,15.7665076 L7.05495607,15.7665076 L20.9447321,15.7665076 C24.1494894,15.7665076 26.7565118,13.1794838 26.7565118,10.0003094 C26.7565118,6.82051622 24.1491776,4.23380182 20.9447321,4.23380182 L20.9447321,4.23380182 Z M7.66944826,5.625 C9.96859822,5.625 11.8388965,7.48072923 11.8391543,9.76222518 C11.8391543,12.0432097 9.96859822,13.8991946 7.66944826,13.8991946 C5.37029831,13.8991946 3.5,12.0432097 3.5,9.76222518 C3.5,7.48072923 5.37029831,5.625 7.66944826,5.625 Z" id="Combined-Shape" fill="#1391FF" fill-rule="nonzero"></path>
                                </g>
                            </g>
                        </g>
                    </g>
                </g>
            </g>
        </g>
    </g>
</svg>