<?xml version="1.0" encoding="UTF-8"?>
<svg width="4px" height="16px" viewBox="0 0 4 16" version="1.1" xmlns="http://www.w3.org/2000/svg" xmlns:xlink="http://www.w3.org/1999/xlink">
    <!-- Generator: sketchtool 60.1 (101010) - https://sketch.com -->
    <title>40A56A61-21C9-4826-92A8-0DEAB835FB61</title>
    <desc>Created with sketchtool.</desc>
    <g id="admin" stroke="none" stroke-width="1" fill="none" fill-rule="evenodd">
        <g id="2.Admin-Interface--Custom-Form-Visual_27Nov" transform="translate(-1256.000000, -251.000000)">
            <g id="form-fields" transform="translate(255.000000, 241.000000)">
                <g id="field2" transform="translate(15.000000, 0.000000)">
                    <g id="ic_more_horiz" transform="translate(987.500000, 18.000000) rotate(-270.000000) translate(-987.500000, -18.000000) translate(979.500000, 10.500000)">
                        <polygon id="Bounds" points="1 0 16 0 16 15 1 15"></polygon>
                        <path d="M2,5 C0.9,5 1.0658141e-14,5.9 1.0658141e-14,7 C1.0658141e-14,8.1 0.9,9 2,9 C3.1,9 4,8.1 4,7 C4,5.9 3.1,5 2,5 L2,5 Z M14,5 C12.9,5 12,5.9 12,7 C12,8.1 12.9,9 14,9 C15.1,9 16,8.1 16,7 C16,5.9 15.1,5 14,5 L14,5 Z M8,5 C6.9,5 6,5.9 6,7 C6,8.1 6.9,9 8,9 C9.1,9 10,8.1 10,7 C10,5.9 9.1,5 8,5 L8,5 Z" id="Icon" fill="#3C92FF"></path>
                    </g>
                </g>
            </g>
        </g>
    </g>
</svg>