<?xml version="1.0" encoding="UTF-8"?>
<svg width="11px" height="3px" viewBox="0 0 11 3" version="1.1" xmlns="http://www.w3.org/2000/svg" xmlns:xlink="http://www.w3.org/1999/xlink">
    <!-- Generator: sketchtool 60.1 (101010) - https://sketch.com -->
    <title>C5E9C077-4740-487D-8185-1211DDD6BDA9</title>
    <desc>Created with sketchtool.</desc>
    <g id="End-User" stroke="none" stroke-width="1" fill="none" fill-rule="evenodd">
        <g id="2.End-User_all-data-source_27Nov" transform="translate(-1397.000000, -146.000000)" fill="#1391FF">
            <g id="aws" transform="translate(350.000000, 100.000000)">
                <g id="row">
                    <g transform="translate(0.000000, 21.000000)">
                        <g id="action" transform="translate(955.000000, 19.000000)">
                            <g id="ic-more" transform="translate(90.000000, 0.000000)">
                                <g id="ic_more_horiz">
                                    <path d="M3.75,6.25 C3.0625,6.25 2.5,6.8125 2.5,7.5 C2.5,8.1875 3.0625,8.75 3.75,8.75 C4.4375,8.75 5,8.1875 5,7.5 C5,6.8125 4.4375,6.25 3.75,6.25 L3.75,6.25 Z M11.25,6.25 C10.5625,6.25 10,6.8125 10,7.5 C10,8.1875 10.5625,8.75 11.25,8.75 C11.9375,8.75 12.5,8.1875 12.5,7.5 C12.5,6.8125 11.9375,6.25 11.25,6.25 L11.25,6.25 Z M7.5,6.25 C6.8125,6.25 6.25,6.8125 6.25,7.5 C6.25,8.1875 6.8125,8.75 7.5,8.75 C8.1875,8.75 8.75,8.1875 8.75,7.5 C8.75,6.8125 8.1875,6.25 7.5,6.25 L7.5,6.25 Z" id="Icon"></path>
                                </g>
                            </g>
                        </g>
                    </g>
                </g>
            </g>
        </g>
    </g>
</svg>