<?xml version="1.0" encoding="UTF-8"?>
<svg width="13px" height="13px" viewBox="0 0 13 13" version="1.1" xmlns="http://www.w3.org/2000/svg" xmlns:xlink="http://www.w3.org/1999/xlink">
    <!-- Generator: sketchtool 60.1 (101010) - https://sketch.com -->
    <title>6DFC98B1-8D85-459F-A65E-1398AF4C4719</title>
    <desc>Created with sketchtool.</desc>
    <g id="End-User" stroke="none" stroke-width="1" fill="none" fill-rule="evenodd">
        <g id="2.End-User_all-data-source_27Nov" transform="translate(-1351.000000, -141.000000)" fill="#3C92FF">
            <g id="aws" transform="translate(350.000000, 100.000000)">
                <g id="row">
                    <g transform="translate(0.000000, 21.000000)">
                        <g id="action" transform="translate(955.000000, 19.000000)">
                            <g id="print" transform="translate(45.000000, 0.000000)">
                                <g id="ic_print">
                                    <path d="M11.875,5 L3.125,5 C2.0875,5 1.25,5.8375 1.25,6.875 L1.25,10.625 L3.75,10.625 L3.75,13.125 L11.25,13.125 L11.25,10.625 L13.75,10.625 L13.75,6.875 C13.75,5.8375 12.9125,5 11.875,5 L11.875,5 Z M10,11.875 L5,11.875 L5,8.75 L10,8.75 L10,11.875 L10,11.875 Z M11.875,7.5 C11.53125,7.5 11.25,7.21875 11.25,6.875 C11.25,6.53125 11.53125,6.25 11.875,6.25 C12.21875,6.25 12.5,6.53125 12.5,6.875 C12.5,7.21875 12.21875,7.5 11.875,7.5 L11.875,7.5 Z M11.25,1.875 L3.75,1.875 L3.75,4.375 L11.25,4.375 L11.25,1.875 L11.25,1.875 Z" id="Icon"></path>
                                </g>
                            </g>
                        </g>
                    </g>
                </g>
            </g>
        </g>
    </g>
</svg>