<?xml version="1.0" encoding="UTF-8"?>
<svg width="51px" height="69px" viewBox="0 0 51 69" version="1.1" xmlns="http://www.w3.org/2000/svg" xmlns:xlink="http://www.w3.org/1999/xlink">
    <!-- Generator: sketchtool 60.1 (101010) - https://sketch.com -->
    <title>DBD6CA67-CC11-4CF1-8FAE-FEFF2DA2DD9B</title>
    <desc>Created with sketchtool.</desc>
    <defs>
        <linearGradient x1="64.7340765%" y1="17.8618744%" x2="41.8507473%" y2="85.4108647%" id="linearGradient-1">
            <stop stop-color="#455B99" offset="0%"></stop>
            <stop stop-color="#5C90A7" offset="51.237859%"></stop>
            <stop stop-color="#72C2B3" offset="100%"></stop>
        </linearGradient>
    </defs>
    <g id="End-User" stroke="none" stroke-width="1" fill="none" fill-rule="evenodd">
        <g id="6.welcome_27Nov" transform="translate(-253.000000, -236.000000)" fill="url(#linearGradient-1)">
            <g id="Group" transform="translate(253.000000, 80.000000)">
                <g id="welcome" transform="translate(0.000000, 131.500000)">
                    <g id="logo" transform="translate(0.000000, 25.000000)">
                        <g id="Logo">
                            <path d="M48.3498844,0.92559322 L39.9579738,0.92559322 C39.8189266,0.491355932 39.4146379,0.174576271 38.9402414,0.174576271 L38.9402414,0.174576271 C38.3501669,0.174576271 37.8734335,0.66220339 37.8734335,1.26016949 L37.8734335,1.26016949 C37.8734335,1.85932203 38.3501669,2.34576271 38.9402414,2.34576271 L38.9402414,2.34576271 C39.0383924,2.34576271 39.133038,2.33271186 39.2230098,2.30898305 L39.2230098,2.30898305 L43.3909219,8.79644068 C43.3044556,8.90440678 43.2390216,9.03016949 43.1981253,9.16779661 L43.1981253,9.16779661 L34.8471109,9.37423729 C34.8260786,9.26033898 34.7851823,9.15237288 34.731433,9.05508475 L34.731433,9.05508475 C37.577812,6.51966102 38.6644838,3.59627119 38.6679892,3.58559322 L38.6679892,3.58559322 C34.6800205,1.35033898 29.8752953,0.174576271 24.7901387,0.174576271 L24.7901387,0.174576271 C11.5526066,0.174576271 0.214997432,8.1320339 0.214997432,22.0667797 L0.214997432,22.0667797 L0.214997432,46.6355932 C0.214997432,60.5715254 11.5526066,68.5289831 24.7901387,68.5289831 L24.7901387,68.5289831 C33.5384309,68.5289831 41.455945,65.0550847 45.8201592,58.6767797 L45.8201592,58.6767797 C45.8365177,58.6767797 45.8493708,58.6767797 45.8657293,58.6767797 L45.8657293,58.6767797 C46.4558038,58.6767797 46.9325372,58.1915254 46.9325372,57.5935593 L46.9325372,57.5935593 C46.9325372,57.3977966 46.8822933,57.2150847 46.79349,57.0561017 L46.79349,57.0561017 C47.5120955,56.1081356 48.10217,55.0450847 48.4421931,53.8977966 L48.4421931,53.8977966 C48.8663457,53.7554237 49.1748202,53.349661 49.1748202,52.8691525 L49.1748202,52.8691525 C49.1748202,52.6567797 49.116397,52.4598305 49.0124037,52.2937288 L49.0124037,52.2937288 C49.5171803,50.5401695 49.7590524,48.6976271 49.7765794,46.8622034 L49.7765794,46.8622034 C50.0114407,46.6628814 50.1610041,46.3627119 50.1610041,46.0281356 L50.1610041,46.0281356 C50.1610041,45.4301695 49.6831022,44.9437288 49.0941962,44.9437288 L49.0941962,44.9437288 L47.1603878,41.6240678 C47.3251412,41.4318644 47.4267976,41.1815254 47.4267976,40.9086441 L47.4267976,40.9086441 C47.4267976,40.639322 47.3309836,40.3937288 47.1720724,40.2038983 L47.1720724,40.2038983 L49.1152286,36.9945763 C49.1946841,37.0147458 49.2788136,37.0254237 49.3664484,37.0254237 L49.3664484,37.0254237 C49.9565229,37.0254237 50.4344248,36.5401695 50.4344248,35.9410169 L50.4344248,35.9410169 C50.4344248,35.459322 50.1247817,35.05 49.6959553,34.9088136 L49.6959553,34.9088136 L49.6959553,24.9972881 C50.1247817,24.8549153 50.4344248,24.4467797 50.4344248,23.9650847 L50.4344248,23.9650847 C50.4344248,23.4822034 50.1247817,23.0740678 49.6959553,22.9328814 L49.6959553,22.9328814 L49.6959553,16.1950847 C50.1247817,16.0538983 50.4344248,15.6445763 50.4344248,15.1628814 L50.4344248,15.1628814 C50.4344248,14.6811864 50.1247817,14.2718644 49.6959553,14.130678 L49.6959553,14.130678 L49.6959553,2.29237288 C50.1247817,2.15118644 50.4344248,1.74305085 50.4344248,1.26016949 L50.4344248,1.26016949 C50.4344248,0.66220339 49.9565229,0.174576271 49.3664484,0.174576271 L49.3664484,0.174576271 C48.8908834,0.174576271 48.4889317,0.491355932 48.3498844,0.92559322 L48.3498844,0.92559322 Z M39.7710195,1.94118644 C39.852812,1.83915254 39.9170776,1.72050847 39.9579738,1.59355932 L39.9579738,1.59355932 L48.3498844,1.59474576 C48.3919492,1.72644068 48.4573832,1.84745763 48.542681,1.95186441 L48.542681,1.95186441 L44.4904468,8.42627119 C44.4051489,8.40491525 44.3140087,8.39305085 44.2228685,8.39305085 L44.2228685,8.39305085 C44.1247175,8.39305085 44.0312404,8.40610169 43.9436055,8.42983051 L43.9436055,8.42983051 L39.7710195,1.94118644 Z M45.1529661,10.0113559 C45.2394325,9.85355932 45.2896764,9.67084746 45.2896764,9.47745763 L45.2896764,9.47745763 C45.2896764,9.21525424 45.1985362,8.97322034 45.0466359,8.78694915 L45.0466359,8.78694915 L49.035773,2.41101695 L49.035773,14.130678 C48.9972137,14.1437288 48.9574859,14.1591525 48.9189266,14.1769492 L48.9189266,14.1769492 L45.1529661,10.0113559 Z M34.6858629,10.1845763 C34.713906,10.140678 34.7407807,10.0944068 34.7629815,10.0457627 L34.7629815,10.0457627 L43.2156523,9.83694915 C43.3605419,10.259322 43.7566513,10.5618644 44.2228685,10.5618644 L44.2228685,10.5618644 C44.3829481,10.5618644 44.5325116,10.5262712 44.6692219,10.4622034 L44.6692219,10.4622034 L48.4351823,14.6289831 C48.3522214,14.7784746 48.3019774,14.9505085 48.298472,15.1332203 L48.298472,15.1332203 L41.1836929,17.2688136 C40.9897278,16.9840678 40.6684001,16.7966102 40.3026708,16.7966102 L40.3026708,16.7966102 C40.149602,16.7966102 40.0047124,16.8298305 39.8738444,16.8879661 L39.8738444,16.8879661 L34.6858629,10.1845763 Z M26.2250128,12.6511864 C29.0375064,12.4174576 31.2809579,11.5086441 33.0441705,10.3494915 L33.0441705,10.3494915 C33.0850668,10.3922034 33.1294684,10.4277966 33.1750385,10.4622034 L33.1750385,10.4622034 L30.6651772,18.4184746 C30.523793,18.419661 30.3870827,18.4481356 30.2632255,18.500339 L30.2632255,18.500339 L25.7728172,13.1364407 C25.827735,13.0047458 25.858115,12.86 25.858115,12.709322 L25.858115,12.709322 C25.858115,12.690339 25.8569466,12.6713559 25.8569466,12.6523729 L25.8569466,12.6523729 C25.9060221,12.6559322 25.9527607,12.660678 26.0030046,12.6642373 L26.0030046,12.6642373 C26.0777863,12.660678 26.1513996,12.6559322 26.2250128,12.6511864 L26.2250128,12.6511864 Z M31.6221495,19.9928814 C31.6957627,19.8457627 31.736659,19.679661 31.736659,19.5040678 L31.736659,19.5040678 C31.736659,19.1410169 31.5625578,18.820678 31.2926425,18.6225424 L31.2926425,18.6225424 L33.8025039,10.6650847 C33.9310349,10.6650847 34.0525552,10.6413559 34.1658963,10.5986441 L34.1658963,10.5986441 L39.379584,17.3328814 C39.2861068,17.4942373 39.2335259,17.6816949 39.2335259,17.8822034 L39.2335259,17.8822034 C39.2335259,18.1989831 39.3690678,18.4849153 39.5828968,18.6842373 L39.5828968,18.6842373 L36.2282357,23.6886441 C36.1102209,23.6423729 35.9805213,23.6174576 35.8461479,23.6174576 L35.8461479,23.6174576 C35.665036,23.6174576 35.4932717,23.6625424 35.3437083,23.7432203 L35.3437083,23.7432203 L31.6221495,19.9928814 Z M13.6815485,47.5076271 L13.6815485,21.1959322 C13.6815485,15.4654237 19.4549307,13.0059322 23.7233308,12.6523729 L23.7233308,12.6523729 C23.7221623,12.6713559 23.7209938,12.690339 23.7209938,12.709322 L23.7209938,12.709322 C23.7209938,13.1922034 24.0318053,13.6015254 24.4606317,13.7427119 L24.4606317,13.7427119 L24.4606317,23.669661 C24.0318053,23.8108475 23.7209938,24.2201695 23.7209938,24.7018644 L23.7209938,24.7018644 C23.7209938,25.2998305 24.2000642,25.7862712 24.7901387,25.7862712 L24.7901387,25.7862712 C25.2657036,25.7862712 25.6664869,25.4718644 25.8055342,25.0364407 L25.8055342,25.0364407 L34.8284155,25.0364407 C34.9475989,25.4054237 35.2572419,25.6901695 35.6381613,25.7661017 L35.6381613,25.7661017 L35.6381613,30.2164407 C35.1929764,30.3469492 34.8669748,30.7645763 34.8669748,31.2581356 L34.8669748,31.2581356 C34.8669748,31.8572881 35.3437083,32.3437288 35.9337827,32.3437288 L35.9337827,32.3437288 C36.024923,32.3437288 36.1125578,32.3318644 36.1955187,32.3105085 L36.1955187,32.3105085 L38.1199795,35.4154237 C37.9669106,35.6028814 37.8734335,35.8461017 37.8734335,36.1094915 L37.8734335,36.1094915 C37.8734335,36.3111864 37.9271828,36.4998305 38.0218285,36.6623729 L38.0218285,36.6623729 C37.4025424,37.3694915 36.7797509,38.070678 36.1733179,38.789661 L36.1733179,38.789661 C36.0693246,38.7564407 35.9606574,38.7374576 35.8461479,38.7374576 L35.8461479,38.7374576 C35.2560734,38.7374576 34.7758346,39.2238983 34.7758346,39.8230508 L34.7758346,39.8230508 C34.7758346,40.3237288 35.1123523,40.7472881 35.5680534,40.870678 L35.5680534,40.870678 L35.5680534,45.0623729 C35.1766179,45.2225424 34.8996918,45.6128814 34.8996918,46.0684746 L34.8996918,46.0684746 C34.8996918,46.5323729 35.1871341,46.9298305 35.5925912,47.0840678 L35.5925912,47.0840678 C35.5026194,48.920678 35.0153698,50.7074576 33.9146764,51.8927119 L33.9146764,51.8927119 C33.749923,51.7871186 33.5547894,51.7266102 33.3456343,51.7266102 L33.3456343,51.7266102 C32.7555598,51.7266102 32.2776579,52.2118644 32.2776579,52.8110169 L32.2776579,52.8110169 C32.2776579,53.1515254 32.4318952,53.4552542 32.6749358,53.6557627 L32.6749358,53.6557627 C30.3356703,55.3677966 27.1738059,56.0986441 24.7901387,56.0986441 L24.7901387,56.0986441 C20.4948639,56.0986441 13.6815485,53.7328814 13.6815485,47.5076271 L13.6815485,47.5076271 Z M25.1208141,23.669661 L25.1441834,13.7332203 C25.2119543,13.7094915 25.2750514,13.6810169 25.3334746,13.6442373 L25.3334746,13.6442373 L29.7596174,18.9345763 C29.6591294,19.0994915 29.6007062,19.2952542 29.6007062,19.5040678 L29.6007062,19.5040678 C29.6007062,19.6547458 29.6310863,19.7983051 29.6860041,19.9276271 L29.6860041,19.9276271 L25.3404854,23.7716949 C25.271546,23.7289831 25.1979327,23.6957627 25.1208141,23.669661 L25.1208141,23.669661 Z M41.357794,18.0471186 C41.3648048,18.0020339 41.3683102,17.9569492 41.3694787,17.910678 L41.3694787,17.910678 L48.4854263,15.7750847 C48.6174628,15.9720339 48.8125963,16.1215254 49.0404468,16.1962712 L49.0404468,16.1962712 L49.0381099,22.9316949 C48.8710195,22.9874576 48.7191192,23.0835593 48.5987673,23.209322 L48.5987673,23.209322 L41.357794,18.0471186 Z M41.0563303,18.6498305 L48.3078197,23.8191525 C48.3008089,23.8666102 48.298472,23.9152542 48.298472,23.9650847 L48.298472,23.9650847 C48.298472,24.4467797 48.6092835,24.8572881 49.0381099,24.9972881 L49.0381099,24.9972881 L49.035773,34.2574576 L47.2351695,29.8367797 C47.4174499,29.6433898 47.5296225,29.38 47.5296225,29.089322 L47.5296225,29.089322 C47.5296225,28.4901695 47.0517206,28.0049153 46.4628146,28.0049153 L46.4628146,28.0049153 C46.365832,28.0049153 46.2746918,28.0179661 46.1847201,28.0416949 L46.1847201,28.0416949 L43.9669748,24.5689831 C44.125886,24.3791525 44.2228685,24.1347458 44.2228685,23.8654237 L44.2228685,23.8654237 C44.2228685,23.2674576 43.7437982,22.7810169 43.1548921,22.7810169 L43.1548921,22.7810169 C42.6220724,22.7810169 42.1827298,23.1761017 42.0997689,23.6922034 L42.0997689,23.6922034 L36.825321,24.2711864 C36.8019517,24.2154237 36.7727401,24.1620339 36.7400231,24.1110169 L36.7400231,24.1110169 L40.2208783,18.9630508 C40.2465845,18.9654237 40.2734592,18.9666102 40.3026708,18.9666102 L40.3026708,18.9666102 C40.5959553,18.9666102 40.8623652,18.8455932 41.0563303,18.6498305 L41.0563303,18.6498305 Z M25.7716487,24.2723729 L30.1183359,20.4330508 C30.2807524,20.5315254 30.4688752,20.5884746 30.6698511,20.5884746 L30.6698511,20.5884746 C30.8451207,20.5884746 31.0110426,20.5445763 31.1582691,20.4674576 L31.1582691,20.4674576 L34.8868387,24.2249153 C34.8634694,24.27 34.8436055,24.3174576 34.8284155,24.3672881 L34.8284155,24.3672881 L25.8055342,24.3672881 C25.7961864,24.3352542 25.7845018,24.3032203 25.7716487,24.2723729 L25.7716487,24.2723729 Z M36.2971751,30.2377966 L36.2983436,25.6830508 C36.5939651,25.5430508 36.8148048,25.2677966 36.8872496,24.9355932 L36.8872496,24.9355932 L42.1990883,24.3530508 C42.2621854,24.48 42.3486518,24.5927119 42.4538136,24.6840678 L42.4538136,24.6840678 L41.1591551,28.0084746 C41.1334489,28.0061017 41.1042373,28.0049153 41.0761941,28.0049153 L41.0761941,28.0049153 C40.4872881,28.0049153 40.0093862,28.4901695 40.0093862,29.089322 L40.0093862,29.089322 C40.0093862,29.1201695 40.0105547,29.1510169 40.0117232,29.1818644 L40.0117232,29.1818644 L36.7470339,30.5533898 C36.6266821,30.4133898 36.4724448,30.3030508 36.2971751,30.2377966 L36.2971751,30.2377966 Z M43.406112,24.9201695 L45.6332049,28.4059322 C45.5549178,28.5020339 45.4941577,28.6111864 45.4532614,28.7310169 L45.4532614,28.7310169 C44.3338726,28.7155932 43.2133154,28.7405085 42.0939266,28.7535593 L42.0939266,28.7535593 C42.0308295,28.5601695 41.91632,28.3905085 41.7667565,28.2623729 L41.7667565,28.2623729 L43.0602465,24.9450847 C43.0906266,24.9474576 43.1233436,24.9498305 43.1548921,24.9498305 L43.1548921,24.9498305 C43.24019,24.9498305 43.3243195,24.940339 43.406112,24.9201695 L43.406112,24.9201695 Z M41.8754237,29.8094915 C41.9712378,29.700339 42.0448511,29.5710169 42.0927581,29.4298305 L42.0927581,29.4298305 L45.4462506,29.4250847 C45.5852979,29.8581356 45.9872496,30.1737288 46.4628146,30.1737288 L46.4628146,30.1737288 C46.5259117,30.1737288 46.5901772,30.1677966 46.6509373,30.1559322 L46.6509373,30.1559322 L48.6723806,35.1164407 C48.44453,35.3145763 48.298472,35.6111864 48.298472,35.9410169 L48.298472,35.9410169 C48.298472,36.210339 48.3931176,36.4559322 48.5543657,36.6445763 L48.5543657,36.6445763 L46.6112096,39.8515254 C46.5726502,39.8420339 46.5352594,39.8361017 46.4967001,39.8313559 L46.4967001,39.8313559 L44.4156651,34.479322 C44.6481895,34.2788136 44.7965845,33.9822034 44.7965845,33.6488136 L44.7965845,33.6488136 C44.7965845,33.049661 44.3186826,32.5644068 43.7286081,32.5644068 L43.7286081,32.5644068 C43.6491525,32.5644068 43.5708654,32.5727119 43.4937468,32.5905085 L43.4937468,32.5905085 L41.8754237,29.8094915 Z M36.7540447,31.9533898 C36.908282,31.7647458 37.0029276,31.5227119 37.0029276,31.2581356 L37.0029276,31.2581356 C37.0029276,31.229661 37.0017591,31.2011864 36.9994222,31.1715254 L36.9994222,31.1715254 L40.2687853,29.7976271 C40.4639188,30.0277966 40.7548665,30.1737288 41.0761941,30.1737288 L41.0761941,30.1737288 C41.1568182,30.1737288 41.2327684,30.1654237 41.3063816,30.1488136 L41.3063816,30.1488136 L42.9270416,32.9310169 C42.7622881,33.1232203 42.6606317,33.3723729 42.6606317,33.6488136 L42.6606317,33.6488136 C42.6606317,33.7057627 42.6653056,33.7615254 42.6723164,33.8161017 L42.6723164,33.8161017 L39.6974063,35.3454237 C39.5057781,35.1472881 39.2358629,35.0250847 38.9402414,35.0250847 L38.9402414,35.0250847 C38.8502696,35.0250847 38.7614664,35.0369492 38.6773369,35.0583051 L38.6773369,35.0583051 L36.7540447,31.9533898 Z M40.0093862,36.1094915 C40.0093862,36.0513559 40.0035439,35.9967797 39.9965331,35.9422034 L39.9965331,35.9422034 L42.9702748,34.4128814 C43.0251926,34.4686441 43.0847843,34.5184746 43.1513867,34.5611864 L43.1513867,34.5611864 L42.4409605,37.1701695 C41.9022984,37.1927119 41.4652928,37.6222034 41.4220596,38.1632203 L41.4220596,38.1632203 L36.7645609,39.2737288 C36.7528762,39.25 36.7400231,39.2286441 36.7260015,39.2084746 L36.7260015,39.2084746 C37.3347714,38.5132203 37.9470467,37.8227119 38.5406266,37.1155932 L38.5406266,37.1155932 C38.6644838,37.1666102 38.8000257,37.1938983 38.9402414,37.1938983 L38.9402414,37.1938983 C39.5291474,37.1938983 40.0093862,36.7086441 40.0093862,36.1094915 L40.0093862,36.1094915 Z M43.5545069,38.2545763 C43.5545069,37.8761017 43.3640473,37.5438983 43.0742681,37.3481356 L43.0742681,37.3481356 L43.7881998,34.7320339 C43.7940421,34.7320339 43.798716,34.7308475 43.8033898,34.7308475 L43.8033898,34.7308475 L45.8365177,39.9594915 C45.5105162,40.1457627 45.2896764,40.5005085 45.2896764,40.9086441 L45.2896764,40.9086441 C45.2896764,41.1744068 45.3854905,41.42 45.5444016,41.6086441 L45.5444016,41.6086441 L44.0137134,44.1108475 C43.9225732,44.0847458 43.8279276,44.0716949 43.7286081,44.0716949 L43.7286081,44.0716949 C43.4107858,44.0716949 43.1256805,44.2116949 42.930547,44.4359322 L42.930547,44.4359322 L40.539869,43.2340678 C40.5480483,43.1842373 40.5503852,43.129661 40.5503852,43.0762712 L40.5503852,43.0762712 C40.5503852,42.8116949 40.459245,42.5720339 40.3050077,42.3833898 L40.3050077,42.3833898 L42.2212892,39.3045763 C42.3065871,39.3283051 42.3953903,39.3389831 42.4865306,39.3389831 L42.4865306,39.3389831 C43.076605,39.3389831 43.5545069,38.8525424 43.5545069,38.2545763 L43.5545069,38.2545763 Z M36.8218156,40.2620339 C36.8673857,40.1576271 36.8977658,40.0449153 36.908282,39.9274576 L36.908282,39.9274576 L41.5727915,38.8157627 C41.5996662,38.8608475 41.6312147,38.9059322 41.6662686,38.9474576 L41.6662686,38.9474576 L39.7476502,42.0250847 C39.6635208,42.0037288 39.5747175,41.9918644 39.4835773,41.9918644 L39.4835773,41.9918644 C39.2837699,41.9918644 39.0968156,42.0476271 38.936736,42.1449153 L38.936736,42.1449153 L36.8218156,40.2620339 Z M36.2270673,45.0161017 L36.2270673,40.8338983 C36.2808166,40.8149153 36.3322291,40.79 36.3801361,40.760339 L36.3801361,40.760339 L38.5020673,42.6479661 C38.4448125,42.7784746 38.4144325,42.9244068 38.4144325,43.0762712 L38.4144325,43.0762712 C38.4144325,43.2328814 38.4471495,43.38 38.5067411,43.5140678 L38.5067411,43.5140678 L36.6301875,45.2177966 C36.513341,45.1240678 36.3766307,45.0528814 36.2270673,45.0161017 L36.2270673,45.0161017 Z M44.795416,45.0837288 C44.7790575,44.8547458 44.6949281,44.6459322 44.5628916,44.4786441 L44.5628916,44.4786441 L46.1017591,41.9598305 C46.1847201,41.98 46.270018,41.9918644 46.3588213,41.9918644 L46.3588213,41.9918644 C46.4382768,41.9918644 46.5177324,41.9811864 46.5936826,41.9657627 L46.5936826,41.9657627 L48.4538778,45.159661 C48.2937982,45.2818644 48.167604,45.4467797 48.0951592,45.6401695 L48.0951592,45.6401695 L44.795416,45.0837288 Z M41.0937211,48.3535593 C41.0832049,47.8374576 40.7174756,47.4079661 40.2337314,47.310678 L40.2337314,47.310678 L39.9135722,44.0705085 C40.0397663,44.0135593 40.1519389,43.9328814 40.2465845,43.8355932 L40.2465845,43.8355932 L42.6664741,45.049322 C42.6618002,45.0837288 42.6606317,45.1205085 42.6606317,45.1572881 L42.6606317,45.1572881 C42.6606317,45.7564407 43.1385336,46.239322 43.7286081,46.239322 L43.7286081,46.239322 C44.1095275,46.239322 44.4437083,46.0376271 44.631831,45.7350847 L44.631831,45.7350847 L48.0612738,46.3116949 C48.0939908,46.4291525 48.1418978,46.5371186 48.2073318,46.6344068 L48.2073318,46.6344068 L45.4731253,48.9930508 C45.2896764,48.84 45.0536466,48.7474576 44.7965845,48.7474576 L44.7965845,48.7474576 C44.4320236,48.7474576 44.1118644,48.9325424 43.9167309,49.2172881 L43.9167309,49.2172881 L41.0937211,48.3535593 Z M36.5110041,47.0022034 C36.825321,46.8135593 37.0356446,46.4659322 37.0356446,46.0684746 L37.0356446,46.0684746 C37.0356446,45.9676271 37.0239599,45.8715254 36.9982537,45.7789831 L36.9982537,45.7789831 L38.9460837,44.0135593 C39.0407293,44.0705085 39.1458911,44.1120339 39.2568952,44.1369492 L39.2568952,44.1369492 L39.5805598,47.3877966 C39.2124936,47.5598305 38.9554314,47.9371186 38.9554314,48.3737288 L38.9554314,48.3737288 C38.9554314,48.9728814 39.4345018,49.4605085 40.0245763,49.4605085 L40.0245763,49.4605085 C40.3879687,49.4605085 40.7069594,49.2754237 40.899756,48.9942373 L40.899756,48.9942373 L43.7286081,49.8579661 C43.7344504,50.1177966 43.8302645,50.3562712 43.9880072,50.5401695 L43.9880072,50.5401695 L42.324114,53.3247458 C42.2645223,53.3164407 42.2060991,53.309322 42.145339,53.309322 L42.145339,53.309322 C41.8543914,53.309322 41.5926554,53.4279661 41.3986903,53.6189831 L41.3986903,53.6189831 L38.936736,52.2142373 C38.9484206,52.1454237 38.9554314,52.0730508 38.9554314,52.0018644 L38.9554314,52.0018644 C38.9554314,51.4038983 38.4775295,50.9174576 37.8874551,50.9174576 L37.8874551,50.9174576 L37.8652542,50.9174576 L36.5110041,47.0022034 Z M45.7710837,50.2791525 C45.8318439,50.1427119 45.8657293,49.9920339 45.8657293,49.8318644 L45.8657293,49.8318644 C45.8657293,49.739322 45.8540447,49.6467797 45.8318439,49.5625424 L45.8318439,49.5625424 L48.74132,47.0532203 C48.8523241,47.0923729 48.970339,47.1125424 49.0930277,47.1125424 L49.0930277,47.1125424 L49.1117232,47.1125424 C49.0766692,48.7071186 48.8675141,50.3052542 48.4515408,51.8440678 L48.4515408,51.8440678 C48.3428737,51.8049153 48.2271957,51.7847458 48.1068439,51.7847458 L48.1068439,51.7847458 C47.9082049,51.7847458 47.7212506,51.839322 47.561171,51.9366102 L47.561171,51.9366102 L45.7710837,50.2791525 Z M36.1289163,48.3725424 C36.1441063,48.2681356 36.1604648,48.1589831 36.1733179,48.0450847 L36.1733179,48.0450847 L37.2436312,51.1381356 C37.0344761,51.2994915 36.8860812,51.5355932 36.8370056,51.8084746 L36.8370056,51.8084746 L34.4720339,52.2498305 C35.3974576,51.1642373 35.909245,49.7761017 36.1289163,48.3725424 L36.1289163,48.3725424 Z M45.3223934,50.7750847 L47.1194915,52.4574576 C47.0669106,52.5844068 47.037699,52.7232203 47.037699,52.8691525 L47.037699,52.8691525 C47.037699,52.9237288 47.0423729,52.9771186 47.0493837,53.029322 L47.0493837,53.029322 L43.0742681,53.8598305 C43.028698,53.7779661 42.9726117,53.7008475 42.9095146,53.6355932 L42.9095146,53.6355932 L44.5523754,50.8866102 C44.6294941,50.9067797 44.7124551,50.9150847 44.7965845,50.9150847 L44.7965845,50.9150847 C44.9870442,50.9150847 45.1669877,50.8652542 45.3223934,50.7750847 L45.3223934,50.7750847 Z M38.461171,55.6810169 L38.2870699,53.0079661 C38.4097586,52.9569492 38.5195942,52.8857627 38.6142399,52.7967797 L38.6142399,52.7967797 L41.0925526,54.2110169 C41.0832049,54.270339 41.0761941,54.3320339 41.0761941,54.3949153 L41.0761941,54.3949153 C41.0761941,54.4910169 41.0902157,54.5859322 41.113585,54.6737288 L41.113585,54.6737288 L39.0313816,56.039322 C38.8853236,55.8637288 38.6866846,55.7367797 38.461171,55.6810169 L38.461171,55.6810169 Z M43.1245121,54.8267797 C43.1665768,54.7283051 43.1957884,54.6250847 43.207473,54.5147458 L43.207473,54.5147458 L47.3625321,53.6474576 C47.4723677,53.7554237 47.6055727,53.8408475 47.7527992,53.8930508 L47.7527992,53.8930508 C47.4384823,54.8647458 46.9196841,55.77 46.2992296,56.6016949 L46.2992296,56.6016949 C46.1660247,56.5423729 46.0187982,56.5091525 45.8657293,56.5091525 L45.8657293,56.5091525 C45.6682589,56.5091525 45.482473,56.5637288 45.3235619,56.6586441 L45.3235619,56.6586441 L43.1245121,54.8267797 Z" id="Fill-14"></path>
                        </g>
                    </g>
                </g>
            </g>
        </g>
    </g>
</svg>