<?xml version="1.0" encoding="UTF-8"?>
<svg width="69px" height="14px" viewBox="0 0 69 14" version="1.1" xmlns="http://www.w3.org/2000/svg" xmlns:xlink="http://www.w3.org/1999/xlink">
    <!-- Generator: sketchtool 60.1 (101010) - https://sketch.com -->
    <title>AE4CA06E-10D0-4738-A9F8-C1B977BA2510</title>
    <desc>Created with sketchtool.</desc>
    <g id="End-User" stroke="none" stroke-width="1" fill="none" fill-rule="evenodd">
        <g id="5.data_source_27Nov" transform="translate(-845.000000, -369.000000)" fill="#737373" fill-rule="nonzero">
            <g id="datasource" transform="translate(100.000000, 226.000000)">
                <g id="datasource5" transform="translate(710.000000, 130.000000)">
                    <g id="Microsoft_logo_(2012)" transform="translate(10.000000, 10.000000)">
                        <g id="logo">
                            <path d="M33.0542636,11.5193798 L32.496124,13.1007752 L32.4496124,13.1007752 C32.3565891,12.744186 32.1860465,12.2015504 31.9069767,11.5503876 L28.9147287,4.03100775 L25.9844961,4.03100775 L25.9844961,16.0155039 L27.9224806,16.0155039 L27.9224806,8.62015504 C27.9224806,8.15503876 27.9224806,7.62790698 27.9069767,6.97674419 C27.8914729,6.65116279 27.8604651,6.40310078 27.8449612,6.21705426 L27.8914729,6.21705426 C27.9844961,6.68217054 28.0930233,7.02325581 28.1705426,7.24031008 L31.7674419,15.9844961 L33.1317829,15.9844961 L36.6976744,7.1627907 C36.7751938,6.96124031 36.8527132,6.55813953 36.9302326,6.21705426 L36.9767442,6.21705426 C36.9302326,7.10077519 36.8992248,7.89147287 36.8837209,8.37209302 L36.8837209,15.9689922 L38.9457364,15.9689922 L38.9457364,4 L36.124031,4 L33.0542636,11.5193798 L33.0542636,11.5193798 Z M40.8992248,7.37984496 L42.9147287,7.37984496 L42.9147287,15.9689922 L40.8992248,15.9689922 L40.8992248,7.37984496 Z M41.9224806,3.75193798 C41.5813953,3.75193798 41.3023256,3.87596899 41.0697674,4.09302326 C40.8372093,4.31007752 40.7131783,4.58914729 40.7131783,4.93023256 C40.7131783,5.25581395 40.8372093,5.53488372 41.0697674,5.75193798 C41.3023256,5.96899225 41.5813953,6.07751938 41.9224806,6.07751938 C42.2635659,6.07751938 42.5581395,5.95348837 42.7751938,5.75193798 C43.0077519,5.53488372 43.1317829,5.25581395 43.1317829,4.93023256 C43.1317829,4.60465116 43.0077519,4.3255814 42.7751938,4.09302326 C42.5736434,3.87596899 42.2790698,3.75193798 41.9224806,3.75193798 L41.9224806,3.75193798 Z M50.0620155,7.30232558 C49.6899225,7.2248062 49.3023256,7.17829457 48.9302326,7.17829457 C48.0155039,7.17829457 47.1782946,7.37984496 46.4806202,7.78294574 C45.7829457,8.18604651 45.2248062,8.74418605 44.8682171,9.44186047 C44.496124,10.1550388 44.3100775,10.9767442 44.3100775,11.9224806 C44.3100775,12.744186 44.496124,13.4728682 44.8527132,14.1395349 C45.2093023,14.7906977 45.7054264,15.3178295 46.372093,15.6744186 C47.0077519,16.0310078 47.751938,16.2170543 48.5891473,16.2170543 C49.5503876,16.2170543 50.372093,16.0155039 51.0232558,15.6434109 L51.0387597,15.627907 L51.0387597,13.7674419 L50.9612403,13.8294574 C50.6666667,14.0465116 50.3255814,14.2325581 49.9844961,14.3410853 C49.627907,14.4651163 49.3023256,14.5271318 49.0232558,14.5271318 C48.2170543,14.5271318 47.5813953,14.2945736 47.1317829,13.7829457 C46.6666667,13.2868217 46.4341085,12.6046512 46.4341085,11.751938 C46.4341085,10.8682171 46.6666667,10.1705426 47.1472868,9.65891473 C47.627907,9.14728682 48.2635659,8.88372093 49.0387597,8.88372093 C49.6899225,8.88372093 50.3565891,9.10077519 50.9612403,9.53488372 L51.0387597,9.59689922 L51.0387597,7.62790698 L51.0232558,7.6124031 C50.7596899,7.50387597 50.4651163,7.37984496 50.0620155,7.30232558 L50.0620155,7.30232558 Z M56.7131783,7.24031008 C56.2170543,7.24031008 55.751938,7.39534884 55.3488372,7.72093023 C55.0077519,8 54.7751938,8.40310078 54.5736434,8.88372093 L54.5581395,8.88372093 L54.5581395,7.37984496 L52.5426357,7.37984496 L52.5426357,15.9689922 L54.5581395,15.9689922 L54.5581395,11.5813953 C54.5581395,10.8372093 54.7131783,10.2170543 55.0542636,9.76744186 C55.3953488,9.30232558 55.8294574,9.06976744 56.3565891,9.06976744 C56.5426357,9.06976744 56.7286822,9.11627907 56.9612403,9.14728682 C57.1782946,9.20930233 57.3333333,9.27131783 57.4418605,9.34883721 L57.5193798,9.41085271 L57.5193798,7.39534884 L57.4728682,7.37984496 C57.3333333,7.28682171 57.0542636,7.24031008 56.7131783,7.24031008 L56.7131783,7.24031008 Z M62.2015504,7.19379845 C60.7906977,7.19379845 59.6589147,7.6124031 58.8682171,8.43410853 C58.0620155,9.25581395 57.6744186,10.3875969 57.6744186,11.8139535 C57.6744186,13.1472868 58.0775194,14.2325581 58.8527132,15.0232558 C59.627907,15.7984496 60.6821705,16.2015504 62,16.2015504 C63.379845,16.2015504 64.4806202,15.7829457 65.2713178,14.9457364 C66.0775194,14.1085271 66.4651163,12.9922481 66.4651163,11.6124031 C66.4651163,10.248062 66.0930233,9.1627907 65.3333333,8.37209302 C64.6046512,7.58139535 63.5348837,7.19379845 62.2015504,7.19379845 L62.2015504,7.19379845 Z M63.8139535,13.7984496 C63.4418605,14.2790698 62.8527132,14.5116279 62.124031,14.5116279 C61.3953488,14.5116279 60.8062016,14.2790698 60.3875969,13.7674419 C59.9689922,13.2868217 59.7674419,12.5891473 59.7674419,11.7054264 C59.7674419,10.7906977 59.9844961,10.0930233 60.3875969,9.59689922 C60.8062016,9.10077519 61.379845,8.85271318 62.1085271,8.85271318 C62.8217054,8.85271318 63.379845,9.08527132 63.7829457,9.56589147 C64.1860465,10.0465116 64.4031008,10.744186 64.4031008,11.6589147 C64.372093,12.5891473 64.2015504,13.3178295 63.8139535,13.7984496 L63.8139535,13.7984496 Z M70.9612403,10.9457364 C70.3255814,10.6821705 69.9224806,10.4806202 69.7364341,10.3100775 C69.5813953,10.1550388 69.503876,9.9379845 69.503876,9.65891473 C69.503876,9.42635659 69.5968992,9.19379845 69.8294574,9.03875969 C70.0620155,8.88372093 70.3255814,8.80620155 70.7131783,8.80620155 C71.0542636,8.80620155 71.4108527,8.86821705 71.751938,8.96124031 C72.0930233,9.05426357 72.4031008,9.19379845 72.6511628,9.37984496 L72.7286822,9.44186047 L72.7286822,7.5503876 L72.6821705,7.53488372 C72.4496124,7.44186047 72.1395349,7.34883721 71.7674419,7.27131783 C71.3953488,7.20930233 71.0542636,7.17829457 70.7751938,7.17829457 C69.8139535,7.17829457 69.0232558,7.41085271 68.4031008,7.92248062 C67.7829457,8.40310078 67.4883721,9.05426357 67.4883721,9.81395349 C67.4883721,10.2170543 67.5503876,10.5736434 67.6899225,10.8682171 C67.8294574,11.1627907 68.0310078,11.4418605 68.3100775,11.6744186 C68.5891473,11.8914729 68.9922481,12.1395349 69.5503876,12.372093 C70.0155039,12.5736434 70.372093,12.7286822 70.5891473,12.8527132 C70.8062016,12.9767442 70.9457364,13.1162791 71.0542636,13.2248062 C71.1317829,13.3488372 71.1782946,13.503876 71.1782946,13.7054264 C71.1782946,14.2790698 70.744186,14.5581395 69.8604651,14.5581395 C69.5193798,14.5581395 69.1627907,14.496124 68.744186,14.3565891 C68.3255814,14.2170543 67.9379845,14.0155039 67.6124031,13.7829457 L67.5348837,13.7209302 L67.5348837,15.6899225 L67.5813953,15.7054264 C67.875969,15.8449612 68.2325581,15.9379845 68.6666667,16.0465116 C69.1007752,16.124031 69.4883721,16.1860465 69.8294574,16.1860465 C70.8682171,16.1860465 71.7209302,15.9534884 72.3255814,15.4418605 C72.9457364,14.9457364 73.2713178,14.3100775 73.2713178,13.4883721 C73.2713178,12.9147287 73.1162791,12.4031008 72.7751938,12.0155039 C72.3255814,11.6434109 71.7674419,11.255814 70.9612403,10.9457364 L70.9612403,10.9457364 Z M78.5891473,7.19379845 C77.1782946,7.19379845 76.0465116,7.6124031 75.255814,8.43410853 C74.4651163,9.25581395 74.0620155,10.3875969 74.0620155,11.8139535 C74.0620155,13.1472868 74.4651163,14.2325581 75.2403101,15.0232558 C76.0155039,15.7984496 77.0697674,16.2015504 78.3875969,16.2015504 C79.7674419,16.2015504 80.8682171,15.7829457 81.6589147,14.9457364 C82.4651163,14.1085271 82.8527132,12.9922481 82.8527132,11.6124031 C82.8527132,10.248062 82.4806202,9.1627907 81.7209302,8.37209302 C80.9922481,7.58139535 79.9224806,7.19379845 78.5891473,7.19379845 L78.5891473,7.19379845 Z M80.1860465,13.7984496 C79.8139535,14.2790698 79.2248062,14.5116279 78.496124,14.5116279 C77.751938,14.5116279 77.1782946,14.2790698 76.7596899,13.7674419 C76.3410853,13.2868217 76.1395349,12.5891473 76.1395349,11.7054264 C76.1395349,10.7906977 76.3565891,10.0930233 76.7596899,9.59689922 C77.1782946,9.10077519 77.751938,8.85271318 78.4806202,8.85271318 C79.1782946,8.85271318 79.751938,9.08527132 80.1550388,9.56589147 C80.5581395,10.0465116 80.7751938,10.744186 80.7751938,11.6589147 C80.7751938,12.5891473 80.5736434,13.3178295 80.1860465,13.7984496 L80.1860465,13.7984496 Z M93.627907,9.03875969 L93.627907,7.37984496 L91.5968992,7.37984496 L91.5968992,4.8372093 L91.5348837,4.85271318 L89.6124031,5.42635659 L89.5658915,5.44186047 L89.5658915,7.37984496 L86.5271318,7.37984496 L86.5271318,6.29457364 C86.5271318,5.79844961 86.6511628,5.41085271 86.8682171,5.1627907 C87.0852713,4.91472868 87.4108527,4.79069767 87.8139535,4.79069767 C88.0930233,4.79069767 88.3875969,4.85271318 88.7131783,4.99224806 L88.7906977,5.03875969 L88.7906977,3.28682171 L88.744186,3.27131783 C88.4651163,3.17829457 88.0930233,3.11627907 87.6124031,3.11627907 C87.0077519,3.11627907 86.4806202,3.25581395 86,3.48837209 C85.5193798,3.75193798 85.1627907,4.10852713 84.8992248,4.58914729 C84.6356589,5.05426357 84.496124,5.58139535 84.496124,6.18604651 L84.496124,7.37984496 L83.0852713,7.37984496 L83.0852713,9.02325581 L84.496124,9.02325581 L84.496124,15.9689922 L86.5271318,15.9689922 L86.5271318,9.03875969 L89.5658915,9.03875969 L89.5658915,13.4573643 C89.5658915,15.2713178 90.4186047,16.1860465 92.124031,16.1860465 C92.4031008,16.1860465 92.6976744,16.1395349 92.9767442,16.0930233 C93.2713178,16.0310078 93.4883721,15.9534884 93.6124031,15.8914729 L93.627907,15.875969 L93.627907,14.2170543 L93.5503876,14.2790698 C93.4263566,14.3565891 93.3178295,14.4186047 93.1317829,14.4651163 C92.9767442,14.5116279 92.8372093,14.5271318 92.7286822,14.5271318 C92.3255814,14.5271318 92.0465116,14.4341085 91.8449612,14.2015504 C91.6589147,13.9844961 91.5658915,13.627907 91.5658915,13.1007752 L91.5658915,9.03875969 L93.627907,9.03875969 L93.627907,9.03875969 Z" id="Shape"></path>
                        </g>
                    </g>
                </g>
            </g>
        </g>
    </g>
</svg>