<?xml version="1.0" encoding="UTF-8"?>
<svg width="12px" height="14px" viewBox="0 0 12 14" version="1.1" xmlns="http://www.w3.org/2000/svg" xmlns:xlink="http://www.w3.org/1999/xlink">
    <!-- Generator: sketchtool 64 (101010) - https://sketch.com -->
    <title>16D65542-178E-4A5C-B728-2B40FF555490</title>
    <desc>Created with sketchtool.</desc>
    <g id="New-updated_-screens" stroke="none" stroke-width="1" fill="none" fill-rule="evenodd">
        <g id="My-Organisation-(selected-checkbox)" transform="translate(-1223.000000, -78.000000)">
            <g id="top">
                <g id="heading-copy" transform="translate(30.000000, 70.000000)">
                    <g id="all" transform="translate(694.000000, 0.000000)">
                        <g id="btns" transform="translate(98.000000, 0.000000)">
                            <g id="report" transform="translate(378.000000, 0.000000)">
                                <g id="txt" transform="translate(20.000000, 6.000000)">
                                    <g id="Group-26">
                                        <g id="repory">
                                            <g>
                                                <rect id="Rectangle" x="0" y="0" width="18" height="18"></rect>
                                                <g id="Group" transform="translate(3.750000, 2.250000)" fill="#1391FF" fill-rule="nonzero" stroke="#1391FF" stroke-width="0.5">
                                                    <path d="M0.9,0 C0.40659,0 0,0.406589819 0,0.8999996 L0,12.6000004 C0,13.0934102 0.40659,13.5 0.9,13.5 L9.6,13.5 C10.09341,13.5 10.5,13.0934102 10.5,12.6000004 L10.5,0.8999996 C10.5,0.406591319 10.09341,0 9.6,0 L0.9,0 Z M0.9,0.599999733 L9.6,0.599999733 C9.77139,0.599999733 9.9,0.728615676 9.9,0.8999996 L9.9,12.5999997 C9.9,12.7713753 9.77139,12.9000003 9.6,12.9000003 L0.9,12.9000003 C0.72861,12.9000003 0.6,12.7713753 0.6,12.5999997 L0.6,0.8999996 C0.6,0.728615676 0.72861,0.599999733 0.9,0.599999733 Z M2.1,2.09999907 C1.93431,2.09999907 1.8,2.23430901 1.8,2.39999893 C1.8,2.56568886 1.93431,2.6999988 2.1,2.6999988 L8.4,2.6999988 C8.56569,2.6999988 8.7,2.56568886 8.7,2.39999893 C8.7,2.23430901 8.56569,2.09999907 8.4,2.09999907 L2.1,2.09999907 Z M2.1,4.79999037 C1.93431,4.79999037 1.8,4.93430031 1.8,5.09999023 C1.8,5.26568016 1.93431,5.3999901 2.1,5.3999901 L8.4,5.3999901 C8.56569,5.3999901 8.7,5.26568016 8.7,5.09999023 C8.7,4.93430031 8.56569,4.79999037 8.4,4.79999037 L2.1,4.79999037 Z M2.1,7.50000267 C1.93431,7.50000267 1.8,7.63431261 1.8,7.80000253 C1.8,7.96569246 1.93431,8.1000024 2.1,8.1000024 L8.4,8.1000024 C8.56569,8.1000024 8.7,7.96569246 8.7,7.80000253 C8.7,7.63431261 8.56569,7.50000267 8.4,7.50000267 L2.1,7.50000267 Z M8.98125,8.69530714 C8.90481,8.70070713 8.830995,8.73681212 8.779695,8.79375209 L7.0125,10.6968762 L6.028125,9.95625157 C5.901885,9.86077662 5.6997,9.8900566 5.605725,10.0174215 C5.511765,10.1447715 5.543415,10.3465964 5.671875,10.4390564 L6.871875,11.339056 C6.98934,11.4258309 7.17111,11.4087309 7.27032,11.301556 L9.22032,9.20155691 C9.303315,9.11449695 9.325815,8.97519201 9.274455,8.86642706 C9.223095,8.75766211 9.101205,8.68653214 8.98125,8.69530714 L8.98125,8.69530714 Z M2.1,10.2000015 C1.93431,10.2000015 1.8,10.3343114 1.8,10.5000013 C1.8,10.6656913 1.93431,10.8000012 2.1,10.8000012 L4.65,10.8000012 C4.81569,10.8000012 4.95,10.6656913 4.95,10.5000013 C4.95,10.3343114 4.81569,10.2000015 4.65,10.2000015 L2.1,10.2000015 Z" id="Shape"></path>
                                                </g>
                                            </g>
                                        </g>
                                    </g>
                                </g>
                            </g>
                        </g>
                    </g>
                </g>
            </g>
        </g>
    </g>
</svg>