<?xml version="1.0" encoding="UTF-8"?>
<svg width="13px" height="13px" viewBox="0 0 13 13" version="1.1" xmlns="http://www.w3.org/2000/svg" xmlns:xlink="http://www.w3.org/1999/xlink">
    <!-- Generator: sketchtool 60.1 (101010) - https://sketch.com -->
    <title>B95D003F-E251-4DBB-BD78-25E39CF0B32D</title>
    <desc>Created with sketchtool.</desc>
    <g id="Asset-Artboard-Page" stroke="none" stroke-width="1" fill="none" fill-rule="evenodd">
        <g id="swagger10-swagger-error" transform="translate(-207.000000, -58.000000)" fill="#3c92ff">
            <g id="schedule" transform="translate(206.000000, 56.000000)">
                <g id="ic_av_timer" transform="translate(0.000000, 1.000000)">
                    <path d="M6.875,10.625 C6.875,10.96875 7.15625,11.25 7.5,11.25 C7.84375,11.25 8.125,10.96875 8.125,10.625 C8.125,10.28125 7.84375,10 7.5,10 C7.15625,10 6.875,10.28125 6.875,10.625 L6.875,10.625 Z M6.875,1.875 L6.875,4.375 L8.125,4.375 L8.125,3.175 C10.24375,3.48125 11.875,5.29375 11.875,7.5 C11.875,9.91875 9.91875,11.875 7.5,11.875 C5.08125,11.875 3.125,9.91875 3.125,7.5 C3.125,6.45 3.49375,5.4875 4.1125,4.7375 L7.5,8.125 L8.38125,7.24375 L4.13125,2.99375 L4.13125,3.00625 C2.7625,4.03125 1.875,5.65625 1.875,7.5 C1.875,10.60625 4.3875,13.125 7.5,13.125 C10.60625,13.125 13.125,10.60625 13.125,7.5 C13.125,4.39375 10.60625,1.875 7.5,1.875 L6.875,1.875 L6.875,1.875 Z M11.25,7.5 C11.25,7.15625 10.96875,6.875 10.625,6.875 C10.28125,6.875 10,7.15625 10,7.5 C10,7.84375 10.28125,8.125 10.625,8.125 C10.96875,8.125 11.25,7.84375 11.25,7.5 L11.25,7.5 Z M3.75,7.5 C3.75,7.84375 4.03125,8.125 4.375,8.125 C4.71875,8.125 5,7.84375 5,7.5 C5,7.15625 4.71875,6.875 4.375,6.875 C4.03125,6.875 3.75,7.15625 3.75,7.5 L3.75,7.5 Z" id="Icon"></path>
                </g>
            </g>
        </g>
    </g>
</svg>