<?xml version="1.0" encoding="UTF-8"?>
<svg width="85px" height="84px" viewBox="0 0 85 84" version="1.1" xmlns="http://www.w3.org/2000/svg" xmlns:xlink="http://www.w3.org/1999/xlink">
    <!-- Generator: sketchtool 64 (101010) - https://sketch.com -->
    <title>472E454C-3F07-4F5D-936F-39C3B67C9BC6</title>
    <desc>Created with sketchtool.</desc>
    <defs>
        <path d="M11.2750104,9.77063538 L11.3803934,9.78212388 C11.8039849,9.85649029 12.0941533,10.25101 12.0390561,10.6776571 L12.0390561,10.6776571 L11.7418723,12.3643457 C11.6911145,12.6749827 11.4639279,12.9274861 11.1604257,13.0105865 C10.4923278,13.1902171 9.85054077,13.4563488 9.25134281,13.8022315 C8.98068608,13.957817 8.64447631,13.942702 8.38886373,13.763457 L8.38886373,13.763457 L6.98693145,12.7940958 C6.78643003,12.6504585 6.51075537,12.6766552 6.34087971,12.8554887 L6.34087971,12.8554887 L5.36534158,13.8539308 C5.18859685,14.025556 5.16517663,14.3011687 5.31042718,14.5001716 L5.31042718,14.5001716 L6.27950479,15.9025142 C6.45869729,16.1582016 6.47380784,16.4945097 6.3182679,16.7652457 C5.97238683,17.3645699 5.70632743,18.0065582 5.52685451,18.6748873 C5.44377842,18.9784784 5.1913489,19.2057315 4.88080277,19.2565041 L4.88080277,19.2565041 L3.19460773,19.5537749 C2.95856964,19.5961043 2.78696647,19.8018159 2.78759513,20.0416867 L2.78759513,20.0416867 L2.78759513,21.4698789 C2.7832478,21.7101483 2.95225612,21.9187438 3.18814721,21.9642531 L3.18814721,21.9642531 L4.87434226,22.2615239 C5.18488838,22.3122965 5.43731791,22.5395496 5.520394,22.8431407 C5.70009694,23.510367 5.96615163,24.1512576 6.31180738,24.7495511 C6.46124592,25.0225581 6.43985925,25.3572945 6.25689298,25.6090514 L6.25689298,25.6090514 L5.28781537,27.011394 C5.14256482,27.2103969 5.16598504,27.4860096 5.34272977,27.6576348 L5.34272977,27.6576348 L6.33764945,28.6399209 C6.50922448,28.8167173 6.78475656,28.8401444 6.98370119,28.6948514 L6.98370119,28.6948514 L8.38563347,27.7254901 C8.64124605,27.5462452 8.97745582,27.5311302 9.24811255,27.6867157 C9.84871865,28.030482 10.4915766,28.2944351 11.1604257,28.4718983 C11.4639279,28.5549987 11.6911145,28.8075021 11.7418723,29.1181391 L11.7418723,29.1181391 L12.0390561,30.8048277 C12.0813731,31.0409348 12.2870246,31.2125882 12.5268251,31.2119594 L12.5268251,31.2119594 L13.9545995,31.2119594 C14.1824326,31.2146279 14.382564,31.0611489 14.4391383,30.8403709 L14.4391383,30.8403709 L14.7363221,29.1536824 C14.7870799,28.8430453 15.0142664,28.5905419 15.3177687,28.5074415 C15.984764,28.3275811 16.6254538,28.0614541 17.2236213,27.7157965 C17.494278,27.560211 17.8304878,27.575326 18.0861004,27.754571 L18.0861004,27.754571 L19.4880327,28.7239322 C19.6869773,28.8692253 19.9625094,28.8457982 20.1340844,28.6690017 L20.1340844,28.6690017 L21.1451554,27.6576348 C21.3219001,27.4860096 21.3453203,27.2103969 21.2000698,27.011394 L21.2000698,27.011394 L20.2083804,25.6122826 C20.0291879,25.3565952 20.0140773,25.0202871 20.1696173,24.7495511 C20.5155909,24.1491307 20.7816476,23.5060626 20.9610306,22.8366783 C21.0441067,22.5330872 21.2965363,22.3058341 21.6070824,22.2550615 L21.6070824,22.2550615 L23.2932774,21.9577907 C23.5822574,21.8934492 23.883212,21.9931031 24.076734,22.2172135 C24.2702559,22.441324 24.3250577,22.7536581 24.2193961,23.0302937 C24.1137344,23.3069292 23.8646922,23.5031414 23.5710797,23.5410808 L23.5710797,23.5410808 L22.3726537,23.751109 C22.2216774,24.2115251 22.0359411,24.659799 21.8170492,25.0920588 L21.8170492,25.0920588 L22.5147851,26.0872696 C23.1014673,26.9223215 23.0019174,28.0586133 22.2789762,28.7788627 L22.2789762,28.7788627 L21.2679052,29.7902296 C20.5478666,30.5133824 19.4119072,30.6129614 18.5770997,30.0261075 L18.5770997,30.0261075 L17.58218,29.3281674 C17.1500572,29.547146 16.7019127,29.7329374 16.2416227,29.8839345 L16.2416227,29.8839345 L16.0316558,31.0827112 C15.8595662,32.0931325 14.9825035,32.8310646 13.9578298,32.8275739 L13.9578298,32.8275739 L12.5268251,32.8275739 C11.5033712,32.8294837 10.6281176,32.0919248 10.4562293,31.0827112 L10.4562293,31.0827112 L10.2462625,29.8839345 C9.78599409,29.7328789 9.33785397,29.5470894 8.90570513,29.3281674 L8.90570513,29.3281674 L7.91078544,30.0261075 C7.07597791,30.6129614 5.94001854,30.5133824 5.21997994,29.7902296 L5.21997994,29.7902296 L4.20890896,28.7788627 C3.4859677,28.0586133 3.38641784,26.9223215 3.97310007,26.0872696 L3.97310007,26.0872696 L4.67083596,25.0920588 C4.45187598,24.6598303 4.26613753,24.2115512 4.11523146,23.751109 L4.11523146,23.751109 L2.91680548,23.5410808 C1.9090922,23.3693457 1.17212117,22.4956429 1.17243965,21.4731101 L1.17243965,21.4731101 L1.17243965,20.0416867 C1.16737983,19.0154933 1.9054702,18.1363618 2.91680548,17.9640224 L2.91680548,17.9640224 L4.11846172,17.7313757 C4.26939124,17.2709423 4.45512896,16.8226649 4.67406622,16.390426 L4.67406622,16.390426 L3.97633033,15.3952151 C3.38880639,14.5609249 3.48698695,13.4246978 4.20890896,12.7036221 L4.20890896,12.7036221 L5.21997994,11.6922552 C5.94001854,10.9691023 7.07597791,10.8695234 7.91078544,11.4563773 L7.91078544,11.4563773 L8.90570513,12.1543174 C9.33783317,11.9353501 9.78597678,11.7495591 10.2462625,11.5985503 L10.2462625,11.5985503 L10.4562293,10.3997735 C10.549669,9.9798579 10.9568018,9.70775748 11.3803934,9.78212388 Z M13.2407123,15.7506476 C13.686718,15.7506476 14.048277,16.1123124 14.048277,16.5584486 C14.048277,17.0045848 13.686718,17.3662497 13.2407123,17.3662497 C11.8695904,17.3636347 10.6320238,18.187808 10.1055058,19.4541805 C9.57898779,20.720553 9.86730016,22.1795103 10.835906,23.1502504 C11.8045118,24.1209905 13.2624894,24.412171 14.5294938,23.8879166 C15.7964983,23.3636622 16.6227907,22.1273085 16.6227932,20.7557828 C16.6227932,20.3096466 16.9843522,19.9479818 17.4303579,19.9479818 C17.8763635,19.9479818 18.2379225,20.3096466 18.2379225,20.7557828 C18.2343556,23.5156295 15.9954513,25.7503692 13.2364109,25.7479932 C10.4773704,25.7456134 8.24231928,23.5070178 8.24350626,20.747169 C8.24469418,17.9873203 10.4816708,15.7506476 13.2407123,15.7506476 Z M21.377734,1.24254102 C22.3306451,0.985746214 23.330047,1.45217934 23.7455136,2.34761283 L23.7455136,2.34761283 L24.1654473,3.25234999 C24.8568528,3.33687344 25.533102,3.51740437 26.1746682,3.78872988 L26.1746682,3.78872988 L26.9822329,3.20388193 C27.7888618,2.63740184 28.8858195,2.73281739 29.5825911,3.43006622 L29.5825911,3.43006622 L30.5516687,4.39942746 C31.2487136,5.09640301 31.3441012,6.19368176 30.7777869,7.00054679 L30.7777869,7.00054679 L30.2060311,7.81804143 C30.4772772,8.45979536 30.6577553,9.13624256 30.742254,9.82785041 L30.742254,9.82785041 L31.6467265,10.2479069 C32.5491252,10.6632852 33.0180794,11.6712163 32.7547052,12.6293044 L32.7547052,12.6293044 L32.4058372,13.921786 C32.1508102,14.8737563 31.2488339,15.5047794 30.267406,15.4178336 L30.267406,15.4178336 L29.2757166,15.3305911 C29.0574977,15.6106612 28.8200371,15.8751833 28.5650596,16.1222361 L28.5650596,16.1222361 L28.3138371,16.3623953 C28.1427895,16.5186396 27.9646997,16.6670817 27.7801068,16.8072513 L27.7801068,16.8072513 L27.8673238,17.799231 C27.953915,18.781893 27.321468,19.6844845 26.3684837,19.9382882 L26.3684837,19.9382882 L25.0763802,20.2872582 C24.1269591,20.5437119 23.1303888,20.0820504 22.7118309,19.19188 L22.7118309,19.19188 L22.2918972,18.2871428 C21.6059992,18.1935923 20.9363581,18.0054725 20.3020579,17.7281445 L20.3020579,17.7281445 L19.4848024,18.3000677 C18.6781735,18.8665477 17.5812158,18.7711322 16.8844441,18.0738834 L16.8844441,18.0738834 L15.9153665,17.1045221 C15.2183217,16.4075466 15.1229341,15.3102678 15.6892484,14.5034028 L15.6892484,14.5034028 L16.2610042,13.6859081 C15.989798,13.0441405 15.8093214,12.367699 15.7247813,11.6760992 L15.7247813,11.6760992 L14.8203088,11.2560426 C13.9251373,10.8404544 13.4588407,9.84076 13.7155603,8.88757 L13.7155603,8.88757 L14.0644283,7.59508835 C14.3194553,6.64311806 15.2214316,6.01209503 16.2028596,6.09904083 L16.2028596,6.09904083 L17.194549,6.18628335 C17.6152845,5.63157951 18.1097752,5.13694414 18.6643167,4.71608546 L18.6643167,4.71608546 L18.5770997,3.74672422 C18.4831745,2.75538648 19.1222454,1.84235642 20.0856305,1.59151106 L20.0856305,1.59151106 Z M22.2854367,3.0229345 C22.1983695,2.83643313 21.9898009,2.73961808 21.7912071,2.793519 L21.7912071,2.793519 L20.4991036,3.14248905 C20.29628,3.19117631 20.1591737,3.3804384 20.1760778,3.58839522 L20.1760778,3.58839522 L20.3052881,5.03920588 C20.3345803,5.33803063 20.1950889,5.62830742 19.9434991,5.79207644 C19.270257,6.23812891 18.6935353,6.81501941 18.2476133,7.48845861 C18.0853452,7.73454323 17.8015283,7.87215417 17.5078841,7.84712227 L17.5078841,7.84712227 L16.0574979,7.71787411 C15.8496019,7.70096509 15.6603952,7.83811154 15.6117222,8.04099452 L15.6117222,8.04099452 L15.2628543,9.33347618 C15.2089691,9.53212811 15.3057558,9.74075771 15.4922026,9.82785041 L15.4922026,9.82785041 L16.8166087,10.4450104 C17.0840131,10.5702379 17.2613307,10.831951 17.2785357,11.1267945 C17.325594,11.9321793 17.5366458,12.7194569 17.8987454,13.4403366 C18.0264583,13.7018825 18.0029876,14.0120337 17.8373705,14.2513689 L17.8373705,14.2513689 L17.0007335,15.4469144 C16.8865389,15.6099374 16.90133,15.8305238 17.0362663,15.9768319 L17.0362663,15.9768319 L18.0053439,16.9461931 C18.1503978,17.0921828 18.3794121,17.1126365 18.5480274,16.9946612 L18.5480274,16.9946612 L19.7335323,16.1577793 C19.9750763,15.9883511 20.289963,15.9647897 20.554018,16.0963864 C21.2788795,16.4591724 22.0704849,16.6692292 22.8798043,16.7135464 C23.1745615,16.7307565 23.436198,16.908126 23.5613889,17.1756086 L23.5613889,17.1756086 L24.1783683,18.5004023 C24.2654355,18.6869037 24.4740041,18.7837187 24.6725979,18.7298178 L24.6725979,18.7298178 L25.9647014,18.3808478 C26.167525,18.3321605 26.3046313,18.1428984 26.2877272,17.9349416 L26.2877272,17.9349416 L26.1585169,16.4841309 C26.1334923,16.1904008 26.271063,15.9065008 26.5170756,15.7441852 C27.1903178,15.2981327 27.7670395,14.7212422 28.2129614,14.047803 C28.3752295,13.8017184 28.6590465,13.6641075 28.9526907,13.6891394 L28.9526907,13.6891394 L30.4030768,13.8022315 C30.6109728,13.8191405 30.8001795,13.6819941 30.8488525,13.4791111 L30.8488525,13.4791111 L31.1977205,12.1866294 L31.2138718,12.1995542 C31.2663698,11.9984048 31.1650678,11.7888947 30.9748326,11.70518 L30.9748326,11.70518 L29.6504266,11.08802 C29.3830222,10.9627925 29.2057046,10.7010794 29.1884996,10.4062359 C29.1414412,9.60085116 28.9303895,8.81357352 28.5682899,8.09269379 C28.4367317,7.8285615 28.4602862,7.51358261 28.6296648,7.27196794 L28.6296648,7.27196794 L29.4759926,6.08611602 C29.5939334,5.91745135 29.5734857,5.68837008 29.4275387,5.54327372 L29.4275387,5.54327372 L28.4584611,4.57391248 C28.3134072,4.42792275 28.084393,4.40746907 27.9157776,4.52544442 L27.9157776,4.52544442 L26.7205819,5.36232629 C26.479513,5.53511744 26.1629468,5.56119523 25.8968659,5.43018158 C25.1761971,5.06797604 24.3891498,4.85686248 23.5840007,4.80979038 C23.2892435,4.79258033 23.027607,4.61521081 22.9024161,4.34772819 L22.9024161,4.34772819 Z M23.2319025,7.30104877 C25.1411161,7.30460516 26.6879542,8.851896 26.6915096,10.7616684 C26.6915096,12.6729159 25.1425907,14.222288 23.2319025,14.222288 C21.3212143,14.222288 19.7722954,12.6729159 19.7722954,10.7616684 C19.7722954,8.85042096 21.3212143,7.30104877 23.2319025,7.30104877 Z M23.9295148,9.04723086 C23.2354691,8.76073406 22.4372036,8.92120008 21.9076859,9.45365557 C21.3781683,9.98611105 21.2219345,10.7854401 21.5119804,11.4781782 C21.8020263,12.1709162 22.4810919,12.6203049 23.2319025,12.6164051 C24.2514076,12.6092866 25.0746318,11.781495 25.0763802,10.7616684 C25.0763802,10.0106278 24.6235606,9.33372765 23.9295148,9.04723086 Z" id="path-1"></path>
        <filter x="-140.6%" y="-134.3%" width="381.2%" height="381.2%" filterUnits="objectBoundingBox" id="filter-2">
            <feOffset dx="0" dy="2" in="SourceAlpha" result="shadowOffsetOuter1"></feOffset>
            <feGaussianBlur stdDeviation="14.5" in="shadowOffsetOuter1" result="shadowBlurOuter1"></feGaussianBlur>
            <feColorMatrix values="0 0 0 0 0.0745098039   0 0 0 0 0.568627451   0 0 0 0 1  0 0 0 1 0" type="matrix" in="shadowBlurOuter1"></feColorMatrix>
        </filter>
    </defs>
    <g id="New-updated_-screens" stroke="none" stroke-width="1" fill="none" fill-rule="evenodd">
        <g id="Settings-(Profile)" transform="translate(-4.000000, -45.000000)">
            <g id="top">
                <g id="heading-copy" transform="translate(30.000000, 68.000000)">
                    <g id="Group-16">
                        <g id="setting">
                            <rect id="Rectangle" x="0" y="0" width="34" height="34"></rect>
                            <g id="Combined-Shape" fill-rule="nonzero">
                                <use fill="black" fill-opacity="1" filter="url(#filter-2)" xlink:href="#path-1"></use>
                                <use fill="#1391FF" xlink:href="#path-1"></use>
                            </g>
                        </g>
                    </g>
                </g>
            </g>
        </g>
    </g>
</svg>