<?xml version="1.0" encoding="UTF-8"?>
<svg width="100px" height="17px" viewBox="0 0 100 17" version="1.1" xmlns="http://www.w3.org/2000/svg" xmlns:xlink="http://www.w3.org/1999/xlink">
    <!-- Generator: sketchtool 60.1 (101010) - https://sketch.com -->
    <title>256A99BE-2B22-465A-8B79-51C816C863AE</title>
    <desc>Created with sketchtool.</desc>
    <g id="End-User" stroke="none" stroke-width="1" fill="none" fill-rule="evenodd">
        <g id="5.data_source_27Nov" transform="translate(-820.000000, -236.000000)" fill="#007AFF" fill-rule="nonzero">
            <g id="datasource" transform="translate(100.000000, 226.000000)">
                <g id="datasource6" transform="translate(710.000000, 0.000000)">
                    <path d="M24.9042304,10 L24.9042304,13.0328494 L17.3630258,13.0328494 C15.7686055,13.058046 15.6419913,13.058046 15.1110284,13.1855717 C14.4029077,13.3634906 13.9725214,14.0263158 13.9725214,14.9179673 C13.9725214,15.6836358 14.3263265,16.2950393 14.9343811,16.5752874 C15.4403275,16.8051422 15.8451867,16.8555354 17.0602748,16.8555354 L19.767675,16.8555354 C22.2478844,16.8555354 23.5885657,17.2381125 24.5759524,18.257804 C25.3351272,19.0219298 25.8415842,20.5265275 25.8415842,22.0054144 C25.8415842,23.8149425 25.0063387,25.4964307 23.6906739,26.3124924 C22.855939,26.8472777 21.7935027,27 19.2872557,27 L10.8092079,27 L10.8092079,23.9671506 L18.5020433,23.9671506 C19.8427246,23.9671506 20.5768829,23.8396249 21.0072692,23.5593769 C21.5387426,23.227193 21.8425146,22.6682396 21.8425146,22.0054144 C21.8425146,21.2150635 21.4371449,20.5265275 20.7545512,20.1948578 C20.4007462,19.9912281 19.7416374,19.888899 18.931919,19.888899 L15.8191491,19.888899 C13.7953636,19.888899 12.4791883,19.5320327 11.5939098,18.7673926 C10.5815065,17.8747126 10,16.4986691 10,15.0208106 C10,12.8544162 11.1890505,10.9682698 12.9351016,10.3563521 C13.6543198,10.0903668 14.486717,10.0085252 16.2510015,10.0006471 L24.9042304,10 Z M34.7507755,10 C37.615655,10 39.9040619,10.9313401 41.1327693,12.5946648 L41.1327693,12.5946648 L41.2240725,12.7235103 L41.3129474,12.8574285 L41.397937,12.9979411 L41.482441,13.1425119 L41.5630597,13.2901262 L41.6412502,13.4438278 L41.7165268,13.6020947 L41.7879181,13.7623907 L41.8588237,13.930803 L41.9268154,14.1002298 L41.9918932,14.2752365 L42.0526001,14.4558231 L42.1113644,14.636917 L42.1677004,14.8251126 L42.2216081,15.0153373 L42.2721162,15.2101274 L42.3648763,15.6093456 L42.4450094,16.0217528 L42.5149438,16.4478561 L42.5712798,16.8876555 L42.6145031,17.3386149 L42.6465563,17.7981977 L42.6659825,18.2704622 L42.6732673,18.7503357 C42.6732673,21.6924775 41.7811189,24.1085847 40.192541,25.4401576 C38.988602,26.4455584 37.1586535,27 34.992146,27 C31.91115,27 29.4789892,25.9433653 28.227456,24.0568436 C27.2877133,22.6745442 26.8316832,20.8377346 26.8316832,18.6006923 C26.8316832,15.3820905 27.6738091,12.9426491 29.262387,11.6349178 C30.5139202,10.5787903 32.4881083,10 34.7507755,10 Z M52.9643341,10 C55.8848727,10 56.9097556,10.3043978 58.0076645,11.5533543 C58.9811774,12.6238885 59.5049505,14.0265864 59.5049505,15.5300647 C59.5049505,17.3148025 58.8054112,18.9715081 57.6571395,19.9649144 C56.683123,20.8061218 55.7871688,21.0591011 53.8900023,21.0591011 L53.8900023,21.0591011 L48.1959845,21.0591011 L48.1959845,27 L44.6534653,27 L44.6534653,10 Z M65.123659,10 L65.123659,16.9582854 L71.7080242,16.9582854 L71.7080242,10 L75.3465347,10 L75.3465347,27 L71.7080242,27 L71.7080242,19.9913183 L65.123659,19.9913183 L65.123659,27 L61.4851485,27 L61.4851485,10 L65.123659,10 Z M85.248739,10 C88.1142798,10 90.3994273,10.9313401 91.6262673,12.5946648 L91.6262673,12.5946648 L91.7175761,12.7235103 L91.8079134,12.8574285 L91.8924226,12.9979411 L91.9769318,13.1425119 L92.0575555,13.2901262 L92.1352651,13.4438278 L92.2110319,13.6020947 L92.284856,13.7623907 L92.354309,13.930803 L92.4218192,14.1002298 L92.4873866,14.2752365 L92.5480972,14.4558231 L92.6088078,14.636917 L92.6646616,14.8251126 L92.7166299,15.0153373 L92.7685982,15.2101274 L92.8599069,15.6093456 L92.9405306,16.0217528 L93.0099836,16.4478561 L93.0668087,16.8876555 L93.1105203,17.3386149 L93.1425755,17.7981977 L93.1615172,18.2704622 L93.1683168,18.7503357 C93.1683168,21.6924775 92.2765994,24.1085847 90.6879241,25.4401576 C89.4853683,26.4455584 87.6572503,27 85.4896387,27 C82.4074823,27 79.9751724,25.9433653 78.7250195,24.0568436 C77.7847335,22.6745442 77.3267327,20.8377346 77.3267327,18.6006923 C77.3267327,15.3820905 78.1713387,12.9426491 79.760014,11.6349178 C81.0121096,10.5787903 82.9864187,10 85.248739,10 Z M109.063667,10 L109.063667,13.0329411 L101.522463,13.0329411 C99.9280424,13.0581385 99.8014282,13.0581385 99.2709758,13.185668 C98.561834,13.3635924 98.1314478,14.0264376 98.1314478,14.9181161 C98.1314478,15.6838077 98.4862739,16.2952297 99.0948391,16.5754863 C99.5656262,16.7900239 99.9496894,16.8482258 100.987132,16.8550326 L103.927112,16.8557428 C106.406811,16.8557428 107.748003,17.2383315 108.73641,18.2580538 C109.494564,19.0222027 110,20.5263317 110,22.0052633 C110,23.8148462 109.165265,25.4963853 107.84909,26.3124716 C107.014355,26.8472731 105.951408,27 103.445672,27 L94.9686448,27 L94.9686448,23.9675731 L102.661991,23.9675731 C104.002162,23.9675731 104.735809,23.8400436 105.166706,23.559787 C105.697158,23.2275931 106.001441,22.6686228 106.001441,22.0057775 C106.001441,21.2154028 105.596582,20.5268459 104.913478,20.1951662 C104.558651,19.9915303 103.901585,19.8891981 103.091866,19.8891981 L99.978586,19.8891981 C97.95429,19.8891981 96.6381146,19.532321 95.7528361,18.7676578 C94.7409434,17.8749508 94.1584158,16.4988657 94.1584158,15.0209625 C94.1584158,12.8545026 95.3469558,10.9682991 97.094028,10.3563629 C97.8127626,10.0903695 98.6465089,10.0085254 100.410069,10.0006471 L109.063667,10 Z M34.7740869,12.8401814 C33.2097918,12.8401814 31.9820557,13.4458568 31.3317635,14.5283621 L31.3317635,14.5283621 L31.2861119,14.6069883 L31.2404603,14.6891654 L31.197237,14.7733715 L31.156442,14.8616358 L31.1151613,14.9544654 L31.0758232,15.0472951 L31.0389134,15.1446901 L31.0020036,15.2441142 L30.9670365,15.3460747 L30.9349832,15.4500642 L30.9048726,15.5591263 L30.874762,15.6707248 L30.8461083,15.7843523 L30.819883,15.902038 L30.7936576,16.0197237 L30.7693748,16.1414675 L30.7256659,16.3951004 L30.7062397,16.5269895 L30.6887561,16.6609077 L30.6717582,16.796855 L30.6567028,16.934324 L30.6435902,17.0748366 L30.6309631,17.2204219 L30.6202787,17.3680363 L30.6115369,17.5176797 L30.6047377,17.6713813 L30.5979386,17.8260973 L30.5916251,17.9843643 L30.5891968,18.1446603 L30.5872542,18.3079999 L30.5853115,18.4733685 C30.5853115,22.3950407 31.8858959,24.1811237 34.7740869,24.1811237 C37.6146837,24.1811237 38.9147824,22.3960553 38.9147824,18.5235879 C38.9147824,14.6019157 37.6389664,12.8401814 34.7740869,12.8401814 Z M85.2735089,12.8401814 C83.7081465,12.8401814 82.4798494,13.4458568 81.8309744,14.5283621 L81.8309744,14.5283621 L81.7824059,14.6069883 L81.7367515,14.6891654 L81.6930399,14.7733715 L81.6522423,14.8616358 L81.6104734,14.9544654 L81.5716186,15.0472951 L81.5347066,15.1446901 L81.4997373,15.2441142 L81.4657393,15.3460747 L81.4317414,15.4500642 L81.4016289,15.5591263 L81.3715165,15.6707248 L81.3428611,15.7843523 L81.3161484,15.902038 L81.2904071,16.0197237 L81.2666085,16.1414675 L81.2437813,16.2682839 L81.2228969,16.3951004 L81.2029838,16.5269895 L81.1859848,16.6609077 L81.1709286,16.796855 L81.1539296,16.934324 L81.1408161,17.0748366 L81.1306168,17.2204219 L81.1204174,17.3680363 L81.111675,17.5176797 L81.1019613,17.6713813 L81.0951618,17.8260973 L81.0912763,17.9843643 L81.0864194,18.1446603 L81.0844767,18.3079999 L81.0844767,18.4733685 C81.0844767,22.3950407 82.3851408,24.1811237 85.2735089,24.1811237 C88.1133085,24.1811237 89.4139726,22.3960553 89.4139726,18.5235879 C89.4139726,14.6019157 88.137107,12.8401814 85.2735089,12.8401814 Z M53.0887302,13.0331801 L48.1949772,13.0331801 L48.1949772,18.0269494 L53.013186,18.0269494 L53.1013209,18.0248926 L53.1869376,18.0248926 L53.2705399,18.0223217 L53.3521276,18.0207791 L53.4306936,18.0161515 L53.507245,18.0110096 L53.5837965,18.0063819 L53.6558153,18.0012401 L53.7258196,17.9919848 L53.7958238,17.9847862 L53.8612955,17.9755308 L53.9262635,17.9662755 L53.989217,17.9549634 L54.050156,17.9436513 L54.1085768,17.9328534 L54.166494,17.9199988 L54.2229004,17.904059 L54.2767886,17.8876051 L54.3286622,17.8726937 L54.3810395,17.8541831 L54.4303951,17.8341298 L54.4777361,17.815105 L54.5250771,17.7919666 L54.5704037,17.7698566 L54.6152266,17.7462041 L54.6580349,17.721009 L54.6983252,17.6952997 L54.739119,17.6680479 L54.7768911,17.637711 L54.8151669,17.607374 L54.8514281,17.5760087 L54.8871857,17.5441292 C55.3359182,17.1615752 55.6114027,16.3455629 55.6114027,15.4020325 C55.6114027,14.2811082 55.1616629,13.4656101 54.3870831,13.185379 C54.1126058,13.0830561 53.6628661,13.0331801 53.0887302,13.0331801 L53.0887302,13.0331801 Z" id="logo"></path>
                </g>
            </g>
        </g>
    </g>
</svg>