<?xml version="1.0" encoding="UTF-8"?>
<svg width="34px" height="10px" viewBox="0 0 34 10" version="1.1" xmlns="http://www.w3.org/2000/svg" xmlns:xlink="http://www.w3.org/1999/xlink">
    <!-- Generator: sketchtool 63.1 (101010) - https://sketch.com -->
    <title>ED8F6F63-B7A8-460F-8C4F-1755898DF9B7</title>
    <desc>Created with sketchtool.</desc>
    <g id="Page-2" stroke="none" stroke-width="1" fill="none" fill-rule="evenodd">
        <g id="7_End-User_dropdown" transform="translate(-815.000000, -283.000000)" fill-rule="nonzero">
            <g id="Group-2" transform="translate(804.000000, 218.000000)">
                <g id="no3" transform="translate(11.000000, 57.000000)">
                    <g id="splunk-vector-logo" transform="translate(0.000000, 8.000000)">
                        <path d="M7.30898876,2.25280899 C7.64044944,2.25280899 7.94382022,2.31460674 8.21910112,2.43820225 C8.49438202,2.56179775 8.73033708,2.73595506 8.93258427,2.96067416 C9.13483146,3.18539326 9.28651685,3.4494382 9.39325843,3.76404494 C9.50561798,4.08426966 9.56179775,4.42696629 9.56179775,4.80898876 C9.56179775,5.20786517 9.5,5.57865169 9.37640449,5.91011236 C9.25280899,6.24719101 9.08426966,6.53932584 8.86516854,6.78651685 C8.64606742,7.03932584 8.38764045,7.23033708 8.08988764,7.37078652 C7.79213483,7.51123596 7.46629213,7.57865169 7.12359551,7.57865169 C6.96629213,7.57865169 6.82022472,7.56741573 6.68539326,7.53932584 C6.5505618,7.51123596 6.42134831,7.46629213 6.29775281,7.40449438 C6.1741573,7.34269663 6.05617978,7.25842697 5.93820225,7.15730337 C5.82022472,7.05617978 5.69662921,6.93258427 5.56741573,6.78089888 L5.56741573,10 L4.25842697,10 L4.25842697,2.37640449 L5.56179775,2.37640449 L5.56741573,3.11797753 C5.80337079,2.82022472 6.06179775,2.6011236 6.34269663,2.46067416 C6.62359551,2.32022472 6.94382022,2.25280899 7.30898876,2.25280899 Z M17.2022472,2.37078652 L17.2022472,7.46067416 L15.8651685,7.46067416 L15.8595506,6.78089888 C15.6011236,7.06741573 15.3370787,7.26966292 15.0674157,7.3988764 C14.7977528,7.52247191 14.4775281,7.58426966 14.1179775,7.58426966 C13.7191011,7.58426966 13.3820225,7.50561798 13.1067416,7.34831461 C12.8314607,7.19101124 12.6348315,6.95505618 12.511236,6.64044944 C12.4775281,6.56741573 12.4494382,6.48876404 12.4325843,6.40449438 C12.4157303,6.32022472 12.3988764,6.23033708 12.3876404,6.12359551 C12.3764045,6.01685393 12.3651685,5.8988764 12.3651685,5.76404494 C12.3609551,5.66292135 12.3599017,5.54283708 12.3596383,5.40616222 L12.3595506,2.37640449 L13.7022472,2.37640449 L13.7022472,5.28089888 C13.7022472,5.53932584 13.7134831,5.73595506 13.7359551,5.87078652 C13.758427,6.00561798 13.8033708,6.12921348 13.8651685,6.23595506 C14.0224719,6.52247191 14.2977528,6.66292135 14.6910112,6.66292135 C15.1966292,6.66292135 15.5449438,6.45505618 15.7303371,6.03370787 C15.7752809,5.92696629 15.8146067,5.80337079 15.8314607,5.6741573 C15.8539326,5.54494382 15.8595506,5.35393258 15.8595506,5.10674157 L15.8595506,2.37078652 L17.2022472,2.37078652 Z M2.06179775,2.25842697 C2.3258427,2.25842697 2.57865169,2.29213483 2.8258427,2.36516854 C3.07303371,2.43820225 3.30337079,2.53932584 3.51123596,2.6741573 L3.11235955,3.31460674 C2.84269663,3.12359551 2.55617978,3.02808989 2.25842697,3.02808989 C2.07303371,3.02808989 1.92696629,3.07303371 1.80898876,3.16853933 C1.69101124,3.26404494 1.62921348,3.38202247 1.62921348,3.52247191 C1.62921348,3.65730337 1.67977528,3.78089888 1.78651685,3.88764045 C1.89325843,3.99438202 2.07303371,4.15168539 2.3258427,4.34269663 C2.58426966,4.53370787 2.79775281,4.69662921 2.96629213,4.84269663 C3.13483146,4.98314607 3.26966292,5.11797753 3.37078652,5.24719101 C3.47191011,5.37078652 3.53932584,5.5 3.57303371,5.62921348 C3.62921348,5.75842697 3.64606742,5.8988764 3.64606742,6.05617978 C3.64606742,6.28089888 3.6011236,6.48876404 3.50561798,6.6741573 C3.41011236,6.86516854 3.28089888,7.02247191 3.10674157,7.15730337 C2.93820225,7.29213483 2.73595506,7.39325843 2.5,7.46629213 C2.26404494,7.53932584 2.01123596,7.57865169 1.73033708,7.57865169 C1.3988764,7.57865169 1.1011236,7.53370787 0.837078652,7.44382022 C0.573033708,7.35393258 0.308988764,7.20224719 0.0449438202,6.99438202 L0.483146067,6.28651685 C0.691011236,6.46067416 0.882022472,6.58988764 1.0505618,6.6741573 C1.21910112,6.75280899 1.39325843,6.79775281 1.56741573,6.79775281 C1.78651685,6.79775281 1.96067416,6.74157303 2.08988764,6.62921348 C2.21910112,6.51685393 2.28651685,6.36516854 2.28651685,6.1741573 C2.28651685,6.09550562 2.2752809,6.01685393 2.25280899,5.94382022 C2.23033708,5.87078652 2.18539326,5.79775281 2.11797753,5.7247191 C2.05617978,5.65168539 1.96629213,5.56741573 1.85393258,5.48314607 C1.74157303,5.39325843 1.6011236,5.28651685 1.42134831,5.15730337 C1.28651685,5.06179775 1.15168539,4.96629213 1.02808989,4.86516854 C0.898876404,4.76404494 0.780898876,4.65730337 0.679775281,4.53932584 C0.573033708,4.42134831 0.488764045,4.29775281 0.426966292,4.15168539 C0.365168539,4.01123596 0.331460674,3.84831461 0.331460674,3.66292135 C0.331460674,3.45505618 0.376404494,3.25842697 0.460674157,3.08988764 C0.550561798,2.91573034 0.668539326,2.76966292 0.820224719,2.64606742 C0.971910112,2.52247191 1.15168539,2.42696629 1.36516854,2.35955056 C1.57865169,2.29213483 1.80898876,2.25842697 2.06179775,2.25842697 Z M25.2640449,-1.64313008e-14 L25.2640449,4.38202247 L25.4044944,4.38202247 L27.2022472,2.29775281 L28.2191011,2.73595506 L26.488764,4.58426966 L28.5337079,7.12359551 L27.2808989,7.56179775 L25.2640449,4.75280899 L25.2640449,7.45505618 L23.9101124,7.45505618 L23.9101124,-1.64313008e-14 L25.2640449,-1.64313008e-14 Z M11.4831461,1.77635684e-15 L11.4831461,7.45505618 L10.1404494,7.45505618 L10.1404494,1.77635684e-15 L11.4831461,1.77635684e-15 Z M21.2247191,2.24157303 C21.6235955,2.24157303 21.9606742,2.3258427 22.2359551,2.48876404 C22.511236,2.65730337 22.7078652,2.88764045 22.8314607,3.19662921 C22.8595506,3.26966292 22.8820225,3.34831461 22.9044944,3.42696629 C22.9269663,3.50561798 22.9438202,3.59550562 22.9550562,3.69662921 C22.9662921,3.79775281 22.9775281,3.91573034 22.9831461,4.05617978 C22.9868914,4.14981273 22.9881398,4.25593009 22.988556,4.37453184 L22.988764,7.44382022 L21.6460674,7.44382022 L21.6460674,4.5505618 C21.6460674,4.29213483 21.6348315,4.09550562 21.6123596,3.96067416 C21.5898876,3.8258427 21.5449438,3.70224719 21.4831461,3.59550562 C21.3258427,3.30898876 21.0505618,3.16853933 20.6573034,3.16853933 C20.4044944,3.16853933 20.1910112,3.21910112 20.011236,3.3258427 C19.8314607,3.43258427 19.6966292,3.58426966 19.6067416,3.78651685 C19.5561798,3.90449438 19.5280899,4.02247191 19.511236,4.15730337 C19.494382,4.28651685 19.4831461,4.47191011 19.4831461,4.70786517 L19.4831461,7.4494382 L18.1292135,7.4494382 L18.1292135,2.37078652 L19.4831461,2.37078652 L19.4831461,3.0505618 C19.741573,2.76404494 20.005618,2.56179775 20.2752809,2.43258427 C20.5449438,2.30898876 20.8651685,2.24157303 21.2247191,2.24157303 Z M6.88202247,3.06179775 C6.47191011,3.06179775 6.15168539,3.23033708 5.91011236,3.57303371 C5.66853933,3.91573034 5.5505618,4.37640449 5.5505618,4.96067416 C5.5505618,5.52808989 5.66853933,5.97752809 5.90449438,6.30337079 C6.14044944,6.62921348 6.46067416,6.79213483 6.87078652,6.79213483 C7.11797753,6.79213483 7.32022472,6.73033708 7.47752809,6.60674157 C7.64044944,6.48314607 7.76966292,6.32022472 7.86516854,6.12921348 C7.96629213,5.93820225 8.03370787,5.7247191 8.07303371,5.5 C8.11797753,5.26966292 8.14044944,5.05617978 8.14044944,4.85955056 C8.14044944,4.30337079 8.02808989,3.86516854 7.80337079,3.54494382 C7.57865169,3.2247191 7.26966292,3.06179775 6.88202247,3.06179775 Z" id="Combined-Shape" fill="#FFFFFF"></path>
                        <polygon id="Path" fill="#96989A" points="29.6910112 7.32022472 29.6910112 6.42696629 32.8426966 4.87078652 29.6910112 3.34269663 29.6910112 2.42696629 33.758427 4.46629213 33.758427 5.29775281"></polygon>
                        <path d="M30.0898876,1.11235955 C30.3370787,1.11235955 30.5393258,1.31460674 30.5393258,1.56741573 C30.5393258,1.8258427 30.3426966,2.02808989 30.0898876,2.02808989 C29.8426966,2.02808989 29.6404494,1.8258427 29.6404494,1.56741573 C29.6348315,1.31460674 29.8370787,1.11235955 30.0898876,1.11235955 L30.0898876,1.11235955 Z M30.0842697,1.18539326 C29.8820225,1.18539326 29.7191011,1.35955056 29.7191011,1.57303371 C29.7191011,1.79213483 29.8820225,1.96067416 30.0842697,1.96067416 C30.2865169,1.96067416 30.4494382,1.79213483 30.4494382,1.57303371 C30.4550562,1.35393258 30.2921348,1.18539326 30.0842697,1.18539326 L30.0842697,1.18539326 Z M30,1.83146067 L29.9213483,1.83146067 L29.9213483,1.32022472 C29.9662921,1.31460674 30.005618,1.30898876 30.0674157,1.30898876 C30.1460674,1.30898876 30.1966292,1.3258427 30.2247191,1.34831461 C30.252809,1.37078652 30.2696629,1.40449438 30.2696629,1.45505618 C30.2696629,1.52247191 30.2247191,1.56179775 30.1685393,1.57865169 L30.1685393,1.58426966 C30.2134831,1.58988764 30.241573,1.63483146 30.252809,1.70786517 C30.2640449,1.78651685 30.2752809,1.82022472 30.2865169,1.83146067 L30.2022472,1.83146067 C30.1910112,1.81460674 30.1797753,1.76966292 30.1685393,1.70224719 C30.1573034,1.63483146 30.1235955,1.61235955 30.0617978,1.61235955 L30.005618,1.61235955 L30.005618,1.83146067 L30,1.83146067 Z M30,1.5505618 L30.0561798,1.5505618 C30.1235955,1.5505618 30.1797753,1.52808989 30.1797753,1.46067416 C30.1797753,1.41573034 30.1460674,1.37078652 30.0561798,1.37078652 C30.0280899,1.37078652 30.011236,1.37078652 30,1.37640449 L30,1.5505618 Z" id="Shape" fill="#96989A"></path>
                    </g>
                </g>
            </g>
        </g>
    </g>
</svg>