<?xml version="1.0" encoding="UTF-8"?>
<svg width="67px" height="15px" viewBox="0 0 67 15" version="1.1" xmlns="http://www.w3.org/2000/svg" xmlns:xlink="http://www.w3.org/1999/xlink">
    <!-- Generator: sketchtool 60.1 (101010) - https://sketch.com -->
    <title>16303D34-A2C6-4433-99BB-00470E4F3653</title>
    <desc>Created with sketchtool.</desc>
    <g id="End-User" stroke="none" stroke-width="1" fill="none" fill-rule="evenodd">
        <g id="5.data_source_27Nov" transform="translate(-497.000000, -243.000000)" fill="#FFFFFF">
            <g id="datasource" transform="translate(100.000000, 226.000000)">
                <g id="datasource8" transform="translate(355.000000, 0.000000)">
                    <g id="Symantec_Logo" transform="translate(10.000000, 10.000000)">
                        <g id="logo">
                            <path d="M47.8660764,9.14047288 L47.8660764,10.5312935 C48.5479185,10.0751756 48.959937,9.80343069 49.0972765,9.71641525 C49.6573858,9.35765486 50.2015415,9.17863129 50.7300905,9.17863129 C51.1792184,9.17863129 51.5964392,9.30915445 51.9765505,9.56984416 C52.3466042,9.80343069 52.6108787,10.1564851 52.7745762,10.6290075 C53.3294833,10.2053422 53.7834667,9.89579544 54.1379136,9.7000107 C54.7240342,9.35230555 55.2577854,9.17863129 55.7332714,9.17863129 C56.4570783,9.17863129 57.0171876,9.40116258 57.4188016,9.85228772 C57.8148665,10.2977069 58.0160204,10.9007525 58.0160204,11.656075 L58.0160204,15.8121322 C58.0160204,16.2033451 58.0368294,16.4640348 58.0895455,16.5942013 C58.1318572,16.7518277 58.2216828,16.8602404 58.3801781,16.9148033 C58.554627,16.9800649 58.8133525,17.0289219 59.157048,17.061731 L59.157048,17.4907457 L55.3212529,17.4907457 L55.3212529,17.061731 C55.6857575,17.0289219 55.9815923,16.9800649 56.2035551,16.9148033 C56.3675995,16.8552477 56.4730319,16.7518277 56.5309503,16.5942013 C56.578811,16.4640348 56.6051691,16.2033451 56.6051691,15.8121322 L56.6051691,12.2316608 C56.6051691,10.8900538 56.0450598,10.2217467 54.9144366,10.2217467 C54.2485482,10.2217467 53.5722552,10.5205948 52.9011644,11.1125851 C52.9278693,11.4656396 52.9382738,11.6396705 52.9382738,11.6343212 L52.9382738,15.8121322 C52.9382738,16.2033451 52.9646319,16.4640348 53.0124927,16.5942013 C53.0492552,16.7464784 53.1446299,16.8552477 53.3031252,16.9148033 C53.4775741,16.9800649 53.7467041,17.0289219 54.1004573,17.061731 L54.1004573,17.4907457 L50.2594599,17.4907457 L50.2594599,17.061731 C50.6981834,17.023216 50.9888159,16.9747156 51.1313577,16.9148033 C51.289853,16.8602404 51.3956322,16.7518277 51.4538974,16.5942013 C51.5010645,16.4640348 51.5277694,16.2033451 51.5277694,15.8121322 L51.5277694,12.1557006 C51.5277694,10.8683 50.9832669,10.2217467 49.8949554,10.2217467 C49.234616,10.2217467 48.558323,10.5095396 47.8660764,11.0908313 L47.8660764,15.8121322 C47.8660764,16.2033451 47.8872322,16.4640348 47.9402952,16.5942013 C47.9930114,16.7518277 48.0987905,16.8602404 48.2468814,16.9148033 C48.4209835,16.9800649 48.6904602,17.0289219 49.0445603,17.061731 L49.0445603,17.4907457 L45.1133905,17.4907457 L45.1133905,17.061731 C45.5732697,17.023216 45.8847113,16.9747156 46.0380044,16.9148033 C46.2072511,16.8602404 46.3182325,16.7518277 46.3817,16.5942013 C46.4292139,16.4640348 46.455572,16.2033451 46.455572,15.8121322 L46.455572,11.503798 C46.455572,11.1072358 46.4344161,10.8354909 46.3976536,10.6835705 C46.3605441,10.5423487 46.2655163,10.4389287 46.107021,10.3847224 C45.9852882,10.3301594 45.6894534,10.2759531 45.2191697,10.2217467 L45.2186137,9.92524966 C45.0615005,9.96570868 44.95082,10.0022181 44.8865722,10.0368033 C44.754435,10.1184694 44.6379045,10.2215328 44.5428767,10.3520559 C44.3668671,10.646268 44.2274659,10.8914447 44.1276838,11.0844904 L44.0725929,11.1940373 C43.7132906,11.9058521 43.422658,12.5253022 43.201042,13.0573803 C43.0425467,13.4107913 42.7730699,14.0573446 42.3818604,15.0023894 C41.9857955,15.9424414 41.7849885,16.4370743 41.7690349,16.4641775 C40.7493932,18.9519632 40.0994583,20.6419885 39.8299815,21.5381762 C39.7561095,21.847723 39.5712561,22 39.26467,22 C39.0586607,22 38.8578537,21.9129846 38.6518445,21.7393103 C38.4773956,21.581684 38.3823677,21.3805499 38.3612119,21.14732 C38.3823677,21.0164402 38.4246794,20.9133768 38.4881469,20.8427659 C38.5620189,20.7610998 38.6834048,20.6419885 38.868605,20.4897115 C39.3600446,20.1420063 39.7720631,19.5988731 40.1206141,18.8706537 C40.3848886,18.2786634 40.569742,17.8221889 40.6807234,17.5069363 C40.7070815,17.387825 40.7178329,17.3004529 40.7178329,17.2462466 C40.7178329,17.1267786 40.7018793,17.0073107 40.6647699,16.8931921 C40.2315955,15.4970222 39.5605048,13.6062195 38.667798,11.2104419 C38.5408631,10.8299276 38.4194771,10.5421347 38.3032935,10.3303021 C38.2290746,10.1890803 38.0969374,10.0749617 37.9068817,9.99365215 C37.7431841,9.92268464 37.4681583,9.8684783 37.0772957,9.83067651 L37.0772957,9.40130523 L40.7545955,9.40130523 L40.7545955,9.83067651 L40.2104397,9.90663671 C39.9940259,9.93908919 39.8882468,10.0532078 39.8882468,10.2432866 C39.8882468,10.3410007 39.9305585,10.5203809 40.0096327,10.7814272 L41.5893838,15.3664991 C41.6636026,15.20388 41.9805933,14.3939945 42.5511071,12.9436183 C42.9260162,11.9493599 43.201042,11.2104419 43.3647396,10.7215149 C43.4386116,10.5039763 43.475721,10.3356514 43.475721,10.2215328 C43.475721,10.0585571 43.3543351,9.96084305 43.1108696,9.92268464 L42.4401257,9.83067651 L42.4401257,9.40130523 L45.631535,9.40130523 L45.631,9.79 L45.748551,9.76358332 C46.4543928,9.59261082 47.1602346,9.38411612 47.8660764,9.14047288 Z M34.979851,9.17870261 C35.529209,9.17870261 36.0366021,9.2871153 36.5120881,9.49930459 C36.686537,9.93366856 36.8186743,10.5313648 36.908153,11.2863307 L36.4697765,11.4004493 C35.9783369,10.2924289 35.3759159,9.73824043 34.6576581,9.73824043 C34.2876044,9.73824043 33.9917696,9.86305767 33.7698067,10.1130488 C33.5637975,10.3790878 33.4583651,10.6779359 33.4583651,11.0092365 C33.4583651,11.6397418 33.9865673,12.1828751 35.0377694,12.6282943 C35.735565,12.9000392 36.2741717,13.2423951 36.6653812,13.6714097 C37.0402903,14.0736778 37.2306928,14.5733034 37.2306928,15.160301 C37.2306928,15.7034343 37.082602,16.1706073 36.7919694,16.5614636 C36.5172904,16.9419778 36.157988,17.2354766 35.7088601,17.4362541 C35.2756858,17.6209836 34.8106043,17.7137049 34.3139625,17.7137049 C33.901944,17.7137049 33.4951277,17.6373881 33.1042651,17.490817 C32.7661186,17.3763418 32.4699369,17.2190721 32.2112115,17.0289933 C32.147744,16.8389144 32.1002301,16.5564709 32.0686698,16.165258 C32.0211558,15.6221247 32,15.2309119 32,14.9916194 L32.4120185,14.8828501 C32.5757161,15.4805463 32.8507419,16.0076317 33.2468068,16.4694554 C33.6376695,16.9259299 34.0867974,17.1538105 34.5886415,17.1538105 C34.9534929,17.1538105 35.25453,17.0289933 35.4924464,16.7843515 C35.7459695,16.5454156 35.8729045,16.2084091 35.8729045,15.7736885 C35.8729045,15.371777 35.7567209,15.0351271 35.529209,14.7690881 C35.307593,14.4919939 34.9534929,14.2416462 34.4565042,14.0244642 C33.7382464,13.6714097 33.1992929,13.3347598 32.8455396,12.9977533 C32.4699369,12.6500481 32.2850835,12.1939303 32.2850835,11.6233373 C32.2850835,11.2160765 32.401614,10.8027531 32.6284323,10.390143 C32.8611464,10.020684 33.1833393,9.72183588 33.5901556,9.49930459 C34.0181277,9.2871153 34.4832091,9.17870261 34.979851,9.17870261 Z M78.5261487,7 L78.5261487,9.40148354 L80.6344488,9.40148354 C80.6871649,9.45034057 80.7083208,9.53699939 80.7083208,9.66217325 C80.7083208,9.82514889 80.6448533,9.97171998 80.5075138,10.1075925 L78.5261487,10.1075925 L78.5261487,15.0296708 C78.5261487,16.1598017 78.9173582,16.7300382 79.6938813,16.7464427 C80.0216233,16.7464427 80.3753765,16.6323241 80.7610369,16.3933883 L80.9410349,16.8059984 L79.4563117,17.5666702 C79.2659092,17.6643843 79.086258,17.7135979 78.9118091,17.7135979 C77.7180653,17.7135979 77.1208465,16.9639813 77.1208465,15.4643914 L77.1208465,10.1075925 L75.7946186,10.1075925 L75.7262957,9.92286295 L76.2437466,9.40148354 L77.1208465,9.40148354 L77.1208465,8.22784494 L78.2937814,7 L78.5261487,7 Z M92.6965678,9.17877394 C92.9712468,9.17877394 93.2511281,9.22192504 93.5369052,9.30894048 C93.880254,9.40665454 94.1334303,9.53182839 94.2974747,9.6837488 C94.4192074,9.77076424 94.4771259,9.91198602 94.4771259,10.0913662 C94.4771259,10.3085482 94.4084561,10.498627 94.2711166,10.650904 C94.1285749,10.8245783 93.9964376,10.9115937 93.8747049,10.9115937 C93.8008329,10.9115937 93.7110073,10.868086 93.6052281,10.7814272 C93.0347143,10.2432866 92.4059352,9.98259691 91.7192377,9.98259691 C91.4126516,9.98259691 91.0800541,10.0856603 90.7256073,10.2978496 C90.3822585,10.5096823 90.1075795,10.8409828 89.8856167,11.2864021 C89.6584516,11.7047181 89.5422679,12.2589066 89.5422679,12.9489676 C89.5422679,13.8020042 89.7063123,14.4917086 90.0337075,15.0294925 C90.3559004,15.5676331 90.7256073,15.9477907 91.1591284,16.170322 C91.6134586,16.3932099 92.0150726,16.5073286 92.3691726,16.5073286 C92.7596885,16.5073286 93.1033841,16.4370743 93.4099702,16.3012018 C93.6954005,16.1596234 94.0703096,15.8825292 94.529842,15.4642131 L94.7677584,15.7035056 C94.4084561,16.2683927 93.9593282,16.746621 93.4099702,17.1538818 C92.8814212,17.5286901 92.3636236,17.7137763 91.8461727,17.7137763 C91.1168167,17.7137763 90.4616796,17.5343961 89.8856167,17.1756357 C89.3151028,16.8061767 88.8767263,16.3225991 88.5597356,15.7195535 C88.2531494,15.1111587 88.0946541,14.4646054 88.0946541,13.7798937 C88.0946541,13.1119432 88.2371959,12.46539 88.5278284,11.8459399 C88.8503682,11.2268464 89.2516353,10.7104597 89.7378727,10.2978496 C90.2133587,9.90663671 90.7207518,9.61313791 91.2701098,9.42305909 C91.8617795,9.26008345 92.3424677,9.17877394 92.6965678,9.17877394 Z M63.1295237,9.1811633 C63.7003843,9.1811633 64.1741363,9.32844763 64.5545944,9.62194644 C64.8240712,9.83377911 65.0071905,10.0880496 65.0966693,10.3868978 C65.1801943,10.6088941 65.2297603,10.8920608 65.2439621,11.2287619 L65.2482283,11.4371456 L65.2482283,15.624942 C65.2482283,16.2982419 65.4195558,16.6359616 65.7525001,16.6359616 C65.9374691,16.6359616 66.1513395,16.5782584 66.388893,16.4647094 L66.5342254,16.3898934 L66.6982698,16.8046432 L64.869851,17.7122428 C64.3839605,17.619878 64.0482417,17.2236725 63.8737928,16.5065083 C63.7839672,16.566064 63.6917139,16.6227667 63.5963393,16.6880282 C63.4957624,16.7532898 63.3223539,16.8620591 63.0795821,17.0250348 C62.7410887,17.253272 62.4605139,17.4273029 62.2600537,17.5307229 C62.0536976,17.6555401 61.8927746,17.7122428 61.7557819,17.7122428 C61.3434166,17.7122428 60.9660798,17.6131022 60.6331355,17.4009129 C60.2953358,17.1890803 60.0366104,16.917692 59.8514102,16.59709 C59.6984639,16.3039478 59.5951125,15.958739 59.5743035,15.5728754 C59.5743035,14.6873863 60.0418127,14.0625869 60.9612243,13.6931279 C61.1672336,13.6114618 61.3864219,13.5133911 61.6291937,13.4206697 C61.8723124,13.3229557 62.0439867,13.2641133 62.1334655,13.2263115 C62.2815563,13.1721051 62.6214369,13.0116258 63.1551881,12.7723334 C63.4584052,12.6234697 63.6767725,12.5039508 63.8126924,12.421637 L63.8737928,12.3836168 L63.8737928,11.7481188 C63.8737928,10.5694875 63.3740296,9.98498627 62.3859482,9.98498627 C61.6780949,9.98498627 61.1981003,10.5031561 60.9234213,11.5405656 C60.865156,11.7798581 60.7240015,11.9036054 60.507241,11.9036054 C60.3591501,11.9036054 60.1930248,11.8322813 60.0029692,11.6964088 C59.8181157,11.5876395 59.7255156,11.4478442 59.7255156,11.268464 C59.7255156,11.0459327 59.9311781,10.7741878 60.3431966,10.4646411 C61.2095452,9.79098463 62.1417891,9.37124211 63.1295237,9.1811633 Z M84.9934519,9.18109197 C85.421424,9.18109197 85.8514769,9.30697907 86.279449,9.55732677 C86.681063,9.81801648 86.9855683,10.1404016 87.2123865,10.542313 C87.4555052,10.9335259 87.5782784,11.3450662 87.5782784,11.7740808 C87.5782784,12.0458258 87.5647525,12.2166471 87.5276431,12.2926073 C87.4908805,12.3689241 87.3847545,12.423487 87.1999011,12.4612888 C87.2845245,12.4612888 87.016435,12.4773368 86.393205,12.5261938 C86.0019955,12.5750508 85.4026959,12.6178453 84.6150746,12.6560037 C84.4198167,12.6720516 83.6935821,12.7127064 82.4464284,12.7726187 C82.4464284,13.6524018 82.6045769,14.3759852 82.9004118,14.9248244 C83.1910444,15.5004101 83.5701153,15.906601 84.0351967,16.1562355 C84.5002782,16.4008773 84.9605043,16.519632 85.4096322,16.519632 C85.9475137,16.519632 86.5080386,16.2741237 87.0977212,15.7804278 L87.2755072,15.6248707 L87.5276431,15.8969723 C87.2162015,16.3423915 86.8912341,16.7015085 86.5315849,16.9732535 C86.1618781,17.2614029 85.8337893,17.4457758 85.5480121,17.5438465 C85.2469751,17.6579651 84.9979605,17.7121715 84.7919513,17.7121715 C84.057393,17.7121715 83.4081518,17.5413502 82.8372911,17.193645 C82.282384,16.8348846 81.852331,16.3673549 81.551294,15.7803573 C81.276615,15.1990657 81.1257496,14.5389608 81.1101428,13.7839949 C81.1101428,12.9580614 81.2762681,12.1952498 81.6144146,11.4891409 C81.9522143,10.793374 82.4387985,10.2252773 83.051624,9.79055668 C83.6328891,9.38293927 84.275194,9.18109197 84.9934519,9.18109197 Z M69.4438806,9.14047288 L69.4438806,10.5312935 C69.6238786,10.4011269 70.030348,10.129382 70.6646762,9.72176456 C71.2192364,9.35765486 71.7422363,9.17863129 72.2177223,9.17863129 C72.9522806,9.17863129 73.5227944,9.40116258 73.9188593,9.85228772 C74.3208201,10.2977069 74.5216271,10.9007525 74.5216271,11.656075 L74.5216271,15.8121322 C74.5216271,16.2033451 74.5424362,16.4640348 74.5954991,16.5942013 C74.6322617,16.7464784 74.7224341,16.8552477 74.8809295,16.9148033 C75.0657829,16.9800649 75.3245083,17.0289219 75.6626548,17.061731 L75.6626548,17.4907457 L71.8213106,17.4907457 L71.8213106,17.061731 C72.186162,17.0289219 72.4819968,16.9800649 72.7091619,16.9148033 C72.8676573,16.8602404 72.9786387,16.7518277 73.0317017,16.5942013 C73.0844178,16.4640348 73.1107759,16.2033451 73.1107759,15.8121322 L73.1107759,12.2316608 C73.1107759,10.8900538 72.5451175,10.2217467 71.4252457,10.2217467 C70.7437504,10.2217467 70.083411,10.5095396 69.4438806,11.0908313 L69.4438806,15.8121322 C69.4438806,16.2033451 69.4702387,16.4640348 69.5233017,16.5942013 C69.554862,16.7357798 69.6446876,16.8388431 69.808732,16.9148033 C69.9880364,16.9800649 70.2523109,17.0289219 70.6064109,17.061731 L70.6064109,17.4907457 L66.6911947,17.4907457 L66.6911947,17.061731 C67.1562762,17.023216 67.4680646,16.9747156 67.6158086,16.9148033 C67.7850553,16.8602404 67.901239,16.7518277 67.9643596,16.5942013 C68.0122204,16.4640348 68.0333762,16.2033451 68.0333762,15.8121322 L68.0333762,11.503798 C68.0333762,11.1072358 68.0174226,10.8354909 67.9803132,10.6835705 C67.9435506,10.5423487 67.848176,10.4389287 67.6896806,10.3847224 C67.5682947,10.3301594 67.2672576,10.2759531 66.7969739,10.2217467 L66.7969739,9.8847402 C67.6792761,9.69466139 68.5615784,9.44502692 69.4438806,9.14047288 Z M97.9432488,15.6707321 L98.1964252,16.9096323 L98.4450929,15.6707321 L99,15.6707321 L99,17.4035519 L98.6670558,17.4035519 L98.6719112,16.0020327 L98.344516,17.4035519 L98.0434789,17.4035519 L97.7157369,16.0020327 L97.7264883,17.4035519 L97.3883418,17.4035519 L97.3883418,15.6707321 L97.9432488,15.6707321 Z M97.2667824,15.6708391 L97.2667824,15.9639813 L96.828059,15.9639813 L96.828059,17.4036589 L96.4902594,17.4036589 L96.4902594,15.9639813 L96.051536,15.9639813 L96.051536,15.6708391 L97.2667824,15.6708391 Z M63.8737928,12.9798866 C63.0813161,13.3168931 62.4733461,13.5964837 62.0457208,13.8357762 C61.7283833,13.9930459 61.4977501,14.1963197 61.3392548,14.4192076 C61.1807594,14.6306836 61.0999511,14.9045683 61.0999511,15.2358689 C61.0999511,15.6923434 61.2296606,16.0436147 61.4783283,16.2989551 C61.7158979,16.5649941 61.9912706,16.6880282 62.2975099,16.6880282 C62.4775079,16.6880282 62.7296438,16.6163475 63.041779,16.480475 C63.2753602,16.3662673 63.4868969,16.2418289 63.6828267,16.1041511 L63.8737928,15.9619486 L63.8737928,12.9798866 Z M84.5144977,9.80339503 C84.2238651,9.80339503 83.9370476,9.91359081 83.6568195,10.1147249 C83.3505801,10.3212082 83.1105828,10.5794016 82.9257294,10.9053529 C82.7757311,11.1725212 82.6657131,11.4998692 82.5964781,11.8783164 L82.5598376,12.111444 L85.7120565,12.046539 C85.8389915,12.046539 85.9315917,12.0112336 85.9895101,11.9295674 C86.0262727,11.8593131 86.0397985,11.6945544 86.0397985,11.4499126 C86.0397985,11.0480011 85.9038463,10.6774723 85.623965,10.3351164 C85.3385347,9.98170536 84.9688279,9.80339503 84.5144977,9.80339503 Z" id="Combined-Shape"></path>
                        </g>
                    </g>
                </g>
            </g>
        </g>
    </g>
</svg>