<?xml version="1.0" encoding="UTF-8"?>
<svg width="34px" height="26px" viewBox="0 0 34 26" version="1.1" xmlns="http://www.w3.org/2000/svg" xmlns:xlink="http://www.w3.org/1999/xlink">
    <!-- Generator: sketchtool 64 (101010) - https://sketch.com -->
    <title>F774456E-1B4E-4F12-A51B-CD0048AE4BE5</title>
    <desc>Created with sketchtool.</desc>
    <g id="New-updated_-screens" stroke="none" stroke-width="1" fill="none" fill-rule="evenodd">
        <g id="New-Group" transform="translate(-683.000000, -621.000000)" fill="#1391FF" fill-rule="nonzero">
            <g id="Group-7" transform="translate(301.000000, 102.000000)">
                <g id="Group-5" transform="translate(20.000000, 18.000000)">
                    <g id="Group-3" transform="translate(0.000000, 88.000000)">
                        <g id="upload" transform="translate(177.000000, 396.000000)">
                            <g id="Group-6" transform="translate(82.000000, 17.000000)">
                                <g id="Group" transform="translate(103.000000, 0.000000)">
                                    <path d="M17,0.136827333 C19.6084422,0.136827333 22.2239111,1.12263089 24.2132133,3.11182733 C25.7568889,4.65554444 26.6766267,6.587024 27.0228978,8.58960511 C30.9729422,9.23118889 34,12.6342867 34,16.7590533 C34,21.3401756 30.2700111,25.0701644 25.6888889,25.0701644 L7.17777778,25.0701644 C3.21436,25.0701644 0,21.8558044 0,17.8923867 C0,14.0338778 3.05259556,10.9139849 6.87083333,10.7500293 C6.76033333,8.00102356 7.70406,5.20639356 9.79861111,3.11183111 C11.7866289,1.12375289 14.3915578,0.136827333 17,0.136827333 L17,0.136827333 Z M17,1.64793844 C14.7743222,1.64793844 12.5612622,2.48596289 10.8611111,4.18613289 C8.8961,6.15113644 8.07568,8.81963022 8.38194444,11.3757049 C8.40916555,11.5918755 8.34175286,11.8092753 8.19700417,11.9721205 C8.05225547,12.1349657 7.84426017,12.2274054 7.62638889,12.22572 L7.17777778,12.22572 C4.02537333,12.22572 1.51111111,14.7399822 1.51111111,17.8923867 C1.51111111,21.0447911 4.02537333,23.5590533 7.17777778,23.5590533 L25.6888889,23.5590533 C29.4533311,23.5590533 32.4888889,20.5234956 32.4888889,16.7590533 C32.4888889,13.2044289 29.7807511,10.2973382 26.3145644,9.98266444 C25.9587881,9.95177341 25.673212,9.67602953 25.62988,9.32155333 C25.4119022,7.44389578 24.5932956,5.62871133 23.1506756,4.18613667 C21.4516578,2.48708867 19.2256778,1.64793844 17,1.64793844 L17,1.64793844 Z M17,9.20348972 C17.2020733,9.20727178 17.3996889,9.29348067 17.5076578,9.39238289 L21.6632133,13.1701644 C21.9737089,13.4404267 21.9887822,13.9500489 21.7222222,14.2444889 C21.4556244,14.5388911 20.9412044,14.55948 20.6478978,14.2917111 L17.7555556,11.6590382 L17.7555556,19.7812756 C17.7555556,20.1985689 17.4173689,20.5368311 17,20.5368311 C16.5826311,20.5368311 16.2444444,20.1985689 16.2444444,19.7812756 L16.2444444,11.6590382 L13.3521022,14.2917111 C13.0587956,14.55948 12.5583911,14.5255933 12.2777778,14.2444889 C11.9868511,13.9531089 12.0411756,13.43544 12.3367867,13.1701644 L16.4923422,9.39238667 C16.6586778,9.24040667 16.7994756,9.20285556 17,9.20348972 L17,9.20348972 Z" id="Shape"></path>
                                </g>
                            </g>
                        </g>
                    </g>
                </g>
            </g>
        </g>
    </g>
</svg>